<?xml version="1.0" encoding="UTF-8" standalone="no"?>
<svg xmlns:svg="http://www.w3.org/2000/svg" xmlns="http://www.w3.org/2000/svg" x="0" y="0" viewBox="0 0 270 50" version="1.1" width="270" height="50">
  <path d="m 252.76396,49.184294 q -0.51642,0 -0.88639,-0.192693 -0.36226,-0.192694 -0.63203,-0.562665 l 0.32372,-0.254355 q 0.24665,0.323725 0.53954,0.477879 0.2929,0.154155 0.68599,0.154155 0.45476,0 0.7014,-0.192693 0.24665,-0.192694 0.24665,-0.554957 0,-0.316017 -0.19269,-0.493295 -0.18499,-0.184985 -0.61662,-0.246647 l -0.32372,-0.05395 q -0.26978,-0.03854 -0.4933,-0.115616 -0.22352,-0.07708 -0.38539,-0.208109 -0.15415,-0.131032 -0.24664,-0.316017 -0.0848,-0.192694 -0.0848,-0.462464 0,-0.277479 0.1002,-0.485587 0.10791,-0.208109 0.28519,-0.346848 0.17728,-0.138739 0.42392,-0.208109 0.24665,-0.06937 0.53184,-0.06937 0.49329,0 0.80931,0.16957 0.31602,0.169571 0.53954,0.439341 l -0.29289,0.269771 q -0.15416,-0.184986 -0.41622,-0.33914 -0.25436,-0.161863 -0.66287,-0.161863 -0.42392,0 -0.66286,0.184986 -0.23123,0.184985 -0.23123,0.524126 0,0.346848 0.20811,0.501002 0.21581,0.154155 0.63974,0.223524 l 0.31601,0.04625 q 0.60121,0.09249 0.88639,0.362263 0.2929,0.262063 0.2929,0.739943 0,0.554956 -0.37768,0.863266 -0.36997,0.308309 -1.02513,0.308309 z m -8.80991,0 q -0.3931,0 -0.70911,-0.138739 -0.31602,-0.138739 -0.53955,-0.400802 -0.22352,-0.269771 -0.34684,-0.655158 -0.12333,-0.385386 -0.12333,-0.870973 0,-0.485587 0.12333,-0.863266 0.12332,-0.385387 0.34684,-0.64745 0.22353,-0.269771 0.53955,-0.40851 0.31601,-0.146447 0.70911,-0.146447 0.39309,0 0.70911,0.146447 0.31602,0.138739 0.53954,0.40851 0.22352,0.262063 0.34685,0.64745 0.12332,0.377679 0.12332,0.863266 0,0.485587 -0.12332,0.870973 -0.12333,0.385387 -0.34685,0.655158 -0.22352,0.262063 -0.53954,0.400802 -0.31602,0.138739 -0.70911,0.138739 z m 0,-0.393094 q 0.57808,0 0.90951,-0.362264 0.33914,-0.362263 0.33914,-1.063667 v -0.493295 q 0,-0.693696 -0.33914,-1.055959 -0.33143,-0.369971 -0.90951,-0.369971 -0.57808,0 -0.91722,0.362263 -0.33144,0.362264 -0.33144,1.063667 v 0.493295 q 0,0.693696 0.33144,1.063667 0.33914,0.362264 0.91722,0.362264 z m -6.65304,-4.717133 q -0.15415,0 -0.23123,-0.07708 -0.0694,-0.07708 -0.0694,-0.200401 v -0.07708 q 0,-0.123324 0.0694,-0.200401 0.0771,-0.07708 0.23123,-0.07708 0.15416,0 0.22353,0.07708 0.0771,0.07708 0.0771,0.200401 v 0.07708 q 0,0.123324 -0.0771,0.200401 -0.0694,0.07708 -0.22353,0.07708 z m -0.21581,1.071375 h 0.43934 v 3.946359 h -0.43934 z m -7.0321,3.314325 H 230.03 q -0.15416,0.331433 -0.45476,0.531834 -0.29289,0.192693 -0.74765,0.192693 -0.76306,0 -1.1947,-0.539541 -0.43163,-0.539542 -0.43163,-1.526131 0,-0.98659 0.43163,-1.526131 0.43164,-0.539542 1.1947,-0.539542 0.45476,0 0.75536,0.200401 0.3006,0.192694 0.44705,0.524126 h 0.0231 v -2.389397 h 0.43934 v 5.703722 h -0.43934 z m -1.12533,0.331433 q 0.23123,0 0.43163,-0.06166 0.20811,-0.06166 0.36227,-0.177278 0.15415,-0.123324 0.23894,-0.285186 0.0925,-0.16957 0.0925,-0.377679 v -1.56467 q 0,-0.192693 -0.0925,-0.354555 -0.0848,-0.161863 -0.23894,-0.277479 -0.15416,-0.115616 -0.36227,-0.177278 -0.2004,-0.06937 -0.43163,-0.06937 -0.59349,0 -0.92493,0.377679 -0.33143,0.377678 -0.33143,1.01742 v 0.554957 q 0,0.639742 0.33143,1.017421 0.33144,0.377679 0.92493,0.377678 z m -8.28576,-0.323725 h -0.0308 q -0.054,0.138739 -0.14645,0.269771 -0.0925,0.131031 -0.23123,0.231231 -0.13874,0.09249 -0.33143,0.154155 -0.18499,0.06166 -0.43934,0.06166 -0.63204,0 -0.98659,-0.385387 -0.35456,-0.393094 -0.35456,-1.117621 V 45.14544 h 0.43934 v 2.451059 q 0,0.608911 0.26207,0.901805 0.26206,0.292894 0.75535,0.292894 0.20811,0 0.3931,-0.05395 0.19269,-0.05396 0.33914,-0.161863 0.15415,-0.107908 0.23894,-0.269771 0.0925,-0.16957 0.0925,-0.393094 v -2.767076 h 0.43934 v 3.946359 h -0.43934 z m -8.08937,0.624326 q -0.23894,0 -0.36226,-0.131031 -0.12333,-0.131032 -0.12333,-0.354556 v -3.075385 h -0.68598 v -0.385387 h 0.44704 q 0.16187,0 0.21582,-0.06166 0.0617,-0.06937 0.0617,-0.238939 v -0.801605 h 0.40081 v 1.102206 h 0.89409 v 0.385387 h -0.89409 v 3.175586 h 0.83243 v 0.385386 z m -7.96201,0.09249 q -0.51642,0 -0.88639,-0.192693 -0.36226,-0.192694 -0.63203,-0.562665 l 0.32372,-0.254355 q 0.24665,0.323725 0.53954,0.477879 0.2929,0.154155 0.68599,0.154155 0.45476,0 0.70141,-0.192693 0.24664,-0.192694 0.24664,-0.554957 0,-0.316017 -0.19269,-0.493295 -0.18499,-0.184985 -0.61662,-0.246647 l -0.32372,-0.05395 q -0.26977,-0.03854 -0.4933,-0.115616 -0.22352,-0.07708 -0.38539,-0.208109 -0.15415,-0.131032 -0.24664,-0.316017 -0.0848,-0.192694 -0.0848,-0.462464 0,-0.277479 0.1002,-0.485587 0.10791,-0.208109 0.28519,-0.346848 0.17728,-0.138739 0.42392,-0.208109 0.24665,-0.06937 0.53184,-0.06937 0.49329,0 0.80931,0.16957 0.31602,0.169571 0.53954,0.439341 l -0.29289,0.269771 q -0.15416,-0.184986 -0.41622,-0.33914 -0.25436,-0.161863 -0.66287,-0.161863 -0.42392,0 -0.66286,0.184986 -0.23123,0.184985 -0.23123,0.524126 0,0.346848 0.20811,0.501002 0.21581,0.154155 0.63974,0.223524 l 0.31602,0.04625 q 0.6012,0.09249 0.88638,0.362263 0.2929,0.262063 0.2929,0.739943 0,0.554956 -0.37768,0.863266 -0.36997,0.308309 -1.02513,0.308309 z M 234.77551,0.81569919 h 1.13304 V 28.871849 h 0.16186 l 4.31633,-4.262376 11.16851,-11.168504 h 1.51071 l -11.60014,11.546183 13.0569,15.754606 h -1.4028 l -12.46341,-14.945294 -4.74796,4.694009 v 10.251285 h -1.13304 z M 203.58328,40.741758 V 13.440969 h 1.13304 v 4.694009 h 0.16186 q 0.48559,-0.971174 1.13304,-1.780486 0.7014,-0.863266 1.67258,-1.510716 1.02512,-0.647449 2.42793,-1.025128 1.40281,-0.377679 3.2912,-0.377679 h 2.21212 v 1.025128 h -2.37398 q -1.67258,0 -3.23725,0.485587 -1.51071,0.431633 -2.6977,1.348854 -1.18699,0.91722 -1.8884,2.320027 -0.7014,1.402807 -0.7014,3.291202 v 18.829991 z m -23.67827,0 q -1.56467,0 -1.56467,-1.56467 V 36.58729 h -0.16186 q -1.02513,1.942348 -3.12934,3.39911 -2.05026,1.402807 -5.82705,1.402807 -4.20842,0 -6.52845,-1.942348 -2.26607,-1.996303 -2.26607,-5.719138 0,-1.672578 0.48559,-3.12934 0.53954,-1.456761 1.72653,-2.481889 1.18699,-1.025129 3.12934,-1.618624 1.9963,-0.593496 4.90983,-0.593496 h 7.66148 v -3.992605 q 0,-4.208422 -1.9963,-6.150771 -1.94235,-1.942348 -5.77309,-1.942348 -3.07539,0 -5.12564,1.240945 -1.99631,1.18699 -3.12934,3.884697 l -0.97118,-0.431633 q 1.13304,-2.643752 3.23725,-4.154468 2.15816,-1.56467 5.98891,-1.56467 4.47819,0 6.69031,2.320028 2.21212,2.266073 2.21212,6.636357 v 17.966725 h 4.5861 v 1.025129 z m -10.68292,-0.377679 q 1.83444,0 3.45307,-0.485587 1.67258,-0.485588 2.91352,-1.402808 1.24095,-0.971174 1.9963,-2.373981 0.75536,-1.456762 0.75536,-3.345156 v -5.881 h -7.60753 q -4.80192,0 -6.96008,1.672578 -2.10421,1.672578 -2.10421,4.370284 v 1.618624 q 0,2.859569 2.10421,4.370284 2.10421,1.456762 5.44936,1.456762 z M 119.59611,0.81570219 h 1.13303 V 17.649391 h 0.16187 q 0.43163,-0.863266 1.18699,-1.726532 0.75535,-0.917221 1.83443,-1.56467 1.13304,-0.701404 2.5898,-1.133037 1.45677,-0.431633 3.23725,-0.431633 5.39542,0 8.41685,3.560973 3.02143,3.560972 3.02143,10.736871 0,7.175899 -3.02143,10.736872 -3.02143,3.560972 -8.41685,3.560972 -1.78048,0 -3.23725,-0.431633 -1.45676,-0.431633 -2.5898,-1.079082 -1.07908,-0.701404 -1.83443,-1.56467 -0.75536,-0.863266 -1.18699,-1.780486 h -0.16187 v 4.208422 h -1.13303 z M 129.73948,40.364079 q 4.90983,0 7.55358,-3.183294 2.64375,-3.237248 2.64375,-8.794523 v -2.589798 q 0,-5.557275 -2.64375,-8.740569 -2.64375,-3.237247 -7.55358,-3.237247 -1.78048,0 -3.39911,0.539541 -1.61863,0.539541 -2.91352,1.510716 -1.24094,0.971174 -1.9963,2.320027 -0.70141,1.348853 -0.70141,2.967477 v 11.869908 q 0,1.618624 0.70141,2.967477 0.75536,1.348854 1.9963,2.320028 1.29489,0.971174 2.91352,1.510715 1.61863,0.539542 3.39911,0.539542 z M 59.4246,40.741758 V 13.440969 h 1.13304 v 4.100514 h 0.16186 q 0.37768,-0.917221 1.02513,-1.780487 0.64745,-0.863266 1.67258,-1.510715 1.02512,-0.64745 2.37398,-1.025129 1.4028,-0.431633 3.18329,-0.431633 3.34516,0 5.55728,1.56467 2.21211,1.510716 3.02143,4.478193 H 77.769 q 0.75536,-2.643753 2.91353,-4.316331 2.21212,-1.726532 6.04286,-1.726532 4.5861,0 6.96008,2.643753 2.37398,2.643752 2.37398,7.769394 v 17.535092 h -1.13303 v -17.37323 q 0,-4.963779 -2.15817,-7.229853 -2.10421,-2.320027 -6.15077,-2.320027 -1.67258,0 -3.18329,0.485587 -1.51072,0.431633 -2.64376,1.402807 -1.13303,0.91722 -1.83444,2.320028 -0.64745,1.402807 -0.64745,3.291201 v 19.423487 h -1.13303 v -17.37323 q 0,-4.963779 -2.15817,-7.229853 -2.15816,-2.320027 -6.15077,-2.320027 -1.61862,0 -3.12934,0.485587 -1.51071,0.431633 -2.6977,1.348853 -1.13304,0.91722 -1.83444,2.320028 -0.64745,1.402807 -0.64745,3.237247 v 19.531395 z m -32.50905,0.647449 q -5.39541,0 -8.41684,-3.560972 -3.02143,-3.614927 -3.02143,-10.736872 0,-7.067991 2.96748,-10.682917 2.96747,-3.614927 8.25498,-3.614927 2.48189,0 4.47819,0.971175 2.05026,0.91722 3.50702,2.697706 1.45676,1.780486 2.26607,4.31633 0.80932,2.48189 0.80932,5.61123 v 0.539541 H 16.71823 v 1.456761 q 0,5.557275 2.64375,8.794523 2.64375,3.183294 7.55357,3.183294 6.90613,0 9.44198,-6.690312 l 0.97117,0.377679 q -1.24094,3.39911 -3.8847,5.395413 -2.58979,1.942348 -6.52845,1.942348 z M 26.69974,13.818648 q -4.80192,0 -7.39172,3.237247 -2.58979,3.183294 -2.58979,8.740569 v 0.107908 h 19.80116 v -0.215816 q 0,-2.697707 -0.7014,-4.855872 -0.70141,-2.212119 -1.99631,-3.776789 -1.2949,-1.564669 -3.12934,-2.373981 -1.78048,-0.863266 -3.9926,-0.863266 z" />
</svg>
