<?xml version="1.0" encoding="UTF-8"?>
<!-- Generator: Adobe Illustrator 23.0.3, SVG Export Plug-In . SVG Version: 6.00 Build 0)  -->
<svg version="1.1" id="Layer_1" xmlns="http://www.w3.org/2000/svg" xmlns:xlink="http://www.w3.org/1999/xlink" x="0px" y="0px" viewBox="0 0 1005 225.37" style="enable-background:new 0 0 1005 225.37;" xml:space="preserve"><script xmlns=""/>
<style type="text/css">
	.st0{fill:none;}
	.st1{fill:none;stroke:#0095E6;stroke-miterlimit:10;}
	.st2{fill:#0095E6;}
</style>
<g>
	<path class="st0" d="M621.59,67.38c-21.2,0-38.38,17.18-38.38,38.38c0,21.2,17.19,38.38,38.38,38.38   c21.2,0,38.38-17.18,38.38-38.38C659.98,84.56,642.79,67.38,621.59,67.38z"/>
	<path class="st0" d="M327.89,82.4c-7.01-9.22-18.09-15.17-30.57-15.17c-17.28,0-31.88,11.41-36.7,27.11   c-1.09,3.56-1.68,7.35-1.68,11.27c0,0.69,0.02,1.37,0.05,2.04l36.33-13.32L327.89,82.4z"/>
	<path class="st0" d="M748.66,67.23c-21.2,0-38.38,17.18-38.38,38.38c0,21.2,17.18,38.38,38.38,38.38   c21.2,0,38.38-17.18,38.38-38.38C787.04,84.41,769.86,67.23,748.66,67.23z"/>
	<path d="M156.53,0h-62.4C94.09,51.95,51.97,94.06,0.01,94.07v62.4C86.44,156.46,156.49,86.42,156.53,0z"/>
	<path d="M297.32,143.99c-12.12,0-24.95-5.41-31.73-16.82l89.91-32.83c-0.1-0.6-0.17-1.19-0.3-1.77   c-1.34-6.26-3.47-11.74-7.02-17.62c-10.4-17.22-29.29-28.73-50.87-28.73c-28.94,0-53.04,20.71-58.31,48.12   c-0.7,3.65-1.08,7.42-1.08,11.27c0,3.23,0.27,6.4,0.76,9.49c0.1,0.6,0.2,1.19,0.32,1.78c1.34,6.97,3.89,13.51,7.44,19.38   c10.4,17.22,29.29,28.73,50.87,28.73c28.94,0,53.04-20.71,58.31-48.12h-21.61C329.2,132.58,314.6,143.99,297.32,143.99z    M258.94,105.61c0-3.92,0.59-7.71,1.68-11.27c4.82-15.7,19.42-27.11,36.7-27.11c12.47,0,23.55,5.96,30.57,15.17l-32.57,11.94   l-36.33,13.32C258.96,106.98,258.94,106.3,258.94,105.61z"/>
	<rect y="162.72" width="156.54" height="62.66"/>
	<path d="M501.99,46.38c-8.25,0-15.87,1.86-22.63,5.54c-6.47,3.51-11.22,7.62-16.2,14.04l-0.89,1.48l-0.89-1.48   c-2.79-5.2-8.38-10.1-14.79-13.9c-6.35-3.77-13.36-5.68-22.25-5.68c-7.14,0-13.71,2.01-19.45,4.79c-5.57,2.7-10.1,6.51-14.2,11.53   l-1.77,2.37V48.8h-22.48v114.16h22.48V96.12c0-10.44,3.4-16.93,9.17-22.48c4.65-4.47,11.23-7.69,20.11-7.69   c8.75,0,15.64,3.77,20.41,8.87c4.67,5,7.99,11.14,7.99,19.82v68.32h22.48V96.42c0-10.08,2.57-15.86,7.99-21.59   c5.11-5.4,12.44-8.87,20.7-8.87c8.73,0,17.18,3.97,21.89,9.76c4.43,5.45,7.1,11.15,7.1,20.11v67.14h22.48V95.83   C549.23,65.47,526.61,46.38,501.99,46.38z"/>
	<path d="M808.02,48.8h-22.48v10.35c-10.13-8.03-22.96-12.93-36.88-12.93c-32.8,0-59.39,26.59-59.39,59.39   c0,32.8,26.59,59.39,59.39,59.39c14.03,0,26.92-4.88,37.08-13.01v10.97l22.28,0l0.03-57.35c0,0,0,0,0,0c0,0,0,0,0,0L808.02,48.8z    M748.66,143.99c-21.2,0-38.38-17.18-38.38-38.38c0-21.2,17.18-38.38,38.38-38.38c21.2,0,38.38,17.18,38.38,38.38   C787.04,126.81,769.86,143.99,748.66,143.99z"/>
	<path d="M621.59,46.37c-13.92,0-26.74,4.75-36.87,12.78V12.13l-22.48,8.28v142.56h22.48v-10.94c10.16,8.14,22.84,13.13,36.87,13.13   c32.8,0,59.39-26.59,59.39-59.39C680.98,72.96,654.39,46.37,621.59,46.37z M621.59,144.14c-21.2,0-38.38-17.18-38.38-38.38   c0-21.2,17.19-38.38,38.38-38.38c21.2,0,38.38,17.18,38.38,38.38C659.98,126.96,642.79,144.14,621.59,144.14z"/>
	<path d="M859.81,50.57c-5.57,2.7-10.25,6.62-13.91,11.64l-2.1,2.85V48.8h-22.48v114.16h22.48V99.38c0-10.44,3.32-19.17,8.79-25.01   c5.18-5.54,12.46-8.47,21.05-8.47c3.17,0,6.12,0.38,8.84,1.12l7.24-19.69c-3.3-0.63-6.8-0.95-10.5-0.95   C872.09,46.38,865.55,47.79,859.81,50.57z"/>
	<polygon points="959.18,97.31 959.75,96.69 1003.52,48.8 976.31,48.8 922.48,108.25 922.48,13.9 900,22.18 900,162.96   922.48,162.96 922.48,137.23 944.96,112.69 979.86,162.96 1005,162.96  "/>
</g>
</svg>