<svg id="Layer_1" xmlns="http://www.w3.org/2000/svg" viewBox="0 0 3840.4 99.7" preserveAspectRatio="xMinYMid"><style>.st0{fill:#541d82}.st2{fill:#8741c2}.st4{fill:#7922b1}.st5{fill:#821dc3}.st6{fill:#8228be}.st7{fill:#7827a4}.st8{fill:#7935a4}.st9{fill:#7822a6}.st10{fill:#7f24c2}.st11{fill:#8322d0}.st12{fill:#7127a1}.st13{fill:#7c30af}.st14{fill:#6c2499}.st15{fill:#9127db}.st16{fill:#5e1d87}.st17{fill:#6c1da1}.st18{fill:#823cb8}.st19{fill:#7828a3}.st20{fill:#681d97}.st21{fill:#5e1d90}.st22{fill:#9e38e8}.st23{fill:#8327d0}.st24{fill:#7b1db8}.st25{fill:#8727d8}.st26{fill:#641d93}.st27{fill:#642493}.st28{fill:#791dbb}.st29{fill:#70279e}.st30{fill:#682495}.st31{fill:#7d3baf}.st32{fill:#852ed0}.st33{fill:#9335db}.st34{fill:#9538e2}.st35{fill:#a03bf3}.st36{fill:#7027a0}.st37{fill:#682795}.st38{fill:#833db8}.st39{fill:#7e38b1}.st40{fill:#7b1dbb}.st41{fill:#972ee5}.st42{fill:#6c1d9e}.st43{fill:#7c3ba6}.st44{fill:#682797}.st45{fill:#823bb4}.st46{fill:#681d99}.st47{fill:#993be2}.st48{fill:#5e1d85}.st49{fill:#6c2795}.st50{fill:#501d7d}.st51{fill:#622790}.st52{fill:#6d279b}.st53{fill:#853dc1}.st54{fill:#591d86}.st55{fill:#9738e2}.st56{fill:#681d9e}.st57{fill:#973be2}.st58{fill:#9330df}.st59{fill:#7d35af}.st60{fill:#791db0}.st61{fill:#791db8}.st62{fill:#872ed1}.st63{fill:#5e1d93}.st64{fill:#7d38b0}.st65{fill:#682793}.st66{fill:#541d7f}.st67{fill:#5e2284}.st68{fill:#823bb8}.st69{fill:#7024a1}.st70{fill:#823cbb}.st71{fill:#6c279b}.st72{fill:#501d82}.st73{fill:#7927af}.st74{fill:#701da4}.st75{fill:#8728d0}.st76{fill:#792ea4}.st77{fill:#7b27b1}.st78{fill:#711daf}.st79{fill:#6c1da0}.st80{fill:#7d27bc}.st81{fill:#8341b8}.st82{fill:#781daf}.st83{fill:#681da0}.st84{fill:#9030d3}.st85{fill:#7127a0}.st86{fill:#7827af}.st87{fill:#7d1dc2}.st88{fill:#7c27bb}.st89{fill:#7a3ca5}.st90{fill:#461d6d}.st91{fill:#8827d4}.st92{fill:#632492}.st93{fill:#7124a5}.st94{fill:#8428c6}.st95{fill:#481d72}.st96{fill:#832ec2}.st97{fill:#8730d0}.st98{fill:#8731ca}.st99{fill:#9027d8}.st100{fill:#952ee2}.st101{fill:#5e1d91}.st102{fill:#a13bf5}.st103{fill:#a038e8}.st104{fill:#9930e5}.st105{fill:#8228c1}</style><path class="st0" d="M54 100H9c-4.7-1.8-6.9-5.9-9-10V4c4.3-4.5 8.7-.7 12.5.5 15 4.7 30 9.4 45.2 13.9 3 .9 3.6.1 3.3-2.6-.4-3.1 0-6.3-.8-9.4-.7-2.5-.3-4.8 1.8-6.4h31c1.7 2 .8 3.9-.8 5.2-7.1 5.8-13.6 12.5-21.4 17.5-2.6 1.6-2.4 4.6-4.4 6.4-2.9 3.2-1.4 7.3-1.8 10.9-2.2 18.5-5.3 36.8-7.4 55.2-.2 2.2-1.8 3.4-3.2 4.8zM3831 100h-45c-2.3-1.7-3.1-4-3.4-6.8-2-15.3-3.9-30.6-6.3-45.9-.7-4.8-1.1-9.6-1.2-14.4 0-1.6-.1-3-1.5-4-3.5-7.8-11.5-10.8-17.2-16.4-2.6-2.5-5.2-5-8.2-7.1-1.8-1.3-3-3.2-1.2-5.5h31c2.1 1.6 2.5 3.9 1.9 6.3-.7 3.1-.4 6.3-.8 9.4-.3 2.7.2 3.4 3.3 2.7 6-1.4 11.8-3.5 17.7-5.3 11.3-3.4 22.5-7 33.7-10.5 2.5-.8 4.5-.7 6.3 1.4v86c-2.2 4.2-4.4 8.3-9.1 10.1z"/><path d="M1960 100h-80a24.3 24.3 0 0 1-7.6-5.5c-7.7-8-15.8-15.6-23.5-23.6-2.1-2.2-3.2-3.9.2-5.8 1 0 2 .4 2.9-.2 9-5.6 19.4-7.8 29-11.9 10.8-4.6 22-8.5 32.9-13 4-1.7 8.2-1.7 12.2 0 13.4 5.8 27.3 10.4 40.8 16.1 6.9 2.9 14.4 4.3 20.7 8.6 1 .7 2.3 0 3.4.2 3 1.5 2.6 3.4.6 5.5l-25.7 25.7c-1.8 1.8-3.9 2.7-5.9 3.9z" fill="#9046c2"/><path class="st2" d="M1960 100l29.2-29.7c1.2-1.2 3.5-2 1.8-4.3-2.6.7-3.9-1.2-5.1-2.9-12.8-17.8-25.6-35.6-37.9-53.7-.9-1.4-2-2.6-3-4-1.3-1.8-1.7-3.6 0-5.4h46c1.7 1.3 2.3 3.2 2.3 5.3.3 16.4 1.9 32.9.6 49.3.4-6.2 2.8-12 4.4-18 2.4-9.3 5.2-18.4 7.5-27.7 1-3.9 2.1-7.3 6.2-8.9h27c6.2 3.7 8.3 10.5 12 16.1 4.1 6.2 7.8 12.7 11.9 18.9.6 1.1.4 2.5.8 3.7.8 1.8.9 3.5-.5 5-10.5 11.2-23.2 19.7-34.8 29.6-7.1 6-14.8 11.3-21.7 17.5-2.2 2-4.7 3.7-7.6 4.6-4.3.7-5.5-2.3-6.1-5.6-.6-3.1-1-6.2-1.4-9.3-.2-1.5-.1-3.3-1.6-3.9-1.9-.8-2.9 1.2-4 2.2-4.7 4.6-9.4 9.3-14 14.1-2.9 3-6 5.6-10 7.1h-2zM1849 66c-1.7 2.4.6 3.1 1.8 4.3L1880 100h-2c-5.4-1.9-9-6.2-12.8-10l-11.3-11.3c-1-1-2-2.7-3.6-2.2-1.9.6-1.7 2.7-1.9 4.3-.4 3-.8 5.9-1.4 8.9-.6 3.2-1.6 6.4-6 5.8-7.4-2.5-12.1-8.6-18-13.1-14.2-10.9-28-22.4-41.9-33.7-1.7-1.4-2.5-3.5-4.3-4.8-1.5-1.5-1.3-3.2-.5-5 .4-1.2.2-2.5.8-3.7 6.6-9.2 11.8-19.2 17.9-28.6 1.7-2.6 3.4-4.8 6-6.3h27c2.4 1.3 4.7 2.9 5.1 5.7.8 5.4 3 10.5 4.2 15.8 1.2 5.1 2.7 10.2 4.1 15.2 1.7 5.9 3.8 11.6 4.5 15.6-1.1-14.1.5-30.3.8-46.5 0-2.2.4-4.3 2.3-5.7h46c2.1 2.3.9 4.2-.5 6.2-11.1 16.2-22.8 31.9-34 48.1-2.2 3.1-4.2 6.4-6.9 9.1-1.3 1-2.6 2.3-4.6 2.2z"/><path d="M1849 66l43.3-60.7c1.2-1.6 2.3-3.2 2.7-5.3h50c2.4 6.1 6.6 11.1 10.3 16.3 11.7 15.9 22.8 32.2 34.2 48.4.4.5 1 .9 1.5 1.3-1.3 2.7-3.2 1.1-4.7.5-20.3-7.9-40.5-16-60.8-24a14.2 14.2 0 0 0-10.7-.2l-60.8 24c-1.5.6-3.5 2.6-5-.3z" fill="#9347d0"/><path class="st4" d="M3413 100h-7c-30.7-6.7-59.2-20-88.8-30-2.5-1.3-4.1-.8-5.1 2.1-.7 2.1-1.9 4.5-5 2.6-2.2-3.5.6-6.1 1.6-9 .7-1.1 1.6-2.1 2.7-2.9 6.4-2 12-5.6 18.1-8.3l46.1-20c14.3-3.1 28.6-6.5 43.1-8.7 1.8-.3 3.6-.5 5.4 0 1 .6 1.8 1.3 2.2 2.4a19 19 0 0 1-.3 11.3c-2.9 11.6-3.2 23.6-5.7 35.3-1.3 6.3-2.7 12.6-3.4 19.1-.2 2.6-1.9 4.5-3.9 6.1zM434 100h-7a10.7 10.7 0 0 1-4.2-7.6c-2.2-15.4-5.4-30.6-7.3-46.1-.6-5.2-2.6-10.3-2.4-15.6 0-.8.4-1.6.6-2.4a4.3 4.3 0 0 1 2.2-2.4 10 10 0 0 1 5.4-.1c14.5 2.2 28.8 5.6 43.1 8.8 17.9 7.6 35.6 15.4 53.4 23.2 3.6 1.6 6.6 4.5 10.7 5.1 1.1.7 1.9 1.8 2.7 2.9 1 2.9 3.8 5.4 1.8 8.9-3.3 2-4.5-.5-5.2-2.8-1-2.9-2.7-2.9-4.9-1.8-15.6 6.2-31.5 11.3-47.1 17.2-6.2 2.3-12.6 4.2-18.7 6.9-7.5 2.9-15.3 4.2-23.1 5.8z"/><path class="st5" d="M3210 0h38c5.9 2.1 9.9 6.7 13.7 11.2 3.4 4.1 7.1 7.9 10.9 11.6 12.1 11.9 23.1 24.9 35.5 36.5 3.3 3 2.9 5.6-.2 8.3-4.6 1.2-9.3.8-13.9.6-14.6-.7-29.2-1.3-43.8-1.2-10 .1-19.9.3-29.9.3-3.2 0-6-1.9-9.2-2a5 5 0 0 1-1.6-.9c-2.4-4.4-1.2-9.1-1.5-13.7-.9-14.3.2-28.6-.3-42.9-.1-2.8-.3-5.8 2.3-7.8zM592 0h38c2.1 1.6 2.4 3.9 2.3 6.3-.5 14.6.6 29.2-.3 43.8-.3 4.7 1 9.6-1.4 14.1a3 3 0 0 1-1.5 1c-8.3 2.3-16.7 1.4-25.2 1.5-18.9.1-37.9-.2-56.8 1.4-5 .4-10 .7-14.9-.4-3.8-4.4-3.9-4.9-.1-8.5 13.9-13.3 26.3-28.1 40.3-41.3 3.3-3.1 5.7-6.9 8.9-10.1 3.2-3.2 6.4-6.2 10.7-7.8z"/><path class="st6" d="M2758 100h-92c-2.4-1.5-5.5-1.3-7.9-3-1.4-1-3.5-1.4-3.7-3.7.4-1.9 2.2-2.5 3.3-3.7l2.9-2.2c13.6-8.6 27.7-16.2 41.8-23.9 16.9-9.3 33.9-18.3 50.5-28 1.9-1.1 3.8-2.1 5.8-3 3.9-1.7 5.2-.9 6.8 3.5 1 6.7-.6 13.2-1.2 19.7-1.1 13-2.3 26-3.9 39-.3 2.1-.7 4-2.4 5.3zM1174 100h-92c-1.5-1.2-2.1-2.9-2.3-4.8-2.3-18.3-3.8-36.7-5.5-55.1-.1-1.3.4-2.6.4-4 1.4-4.6 3.1-5.4 7.7-3.2 7.3 3.6 14.2 7.8 21.4 11.8l37.1 20.2c13 7.2 26.2 14.2 38.6 22.5 1 .6 2 1.3 2.9 2.1 1.1 1.2 2.9 1.8 3.3 3.7-1.1 3.5-4.3 4-7 5.2-1.5.7-3.3.5-4.6 1.6z"/><path class="st7" d="M2552 0h17c12 3.5 22.9 9.5 33.9 15.1 11.8 6 24 11.2 35.5 17.7 1.5.8 2.9.2 4.3.7 1.8 1 1.8 2.6 1.5 4.3a3 3 0 0 1-.9 1.3c-6.5 4.3-14.2 5.5-21.4 7.7-10.5 3.2-20.9 6.6-31.4 10-10.3 3.3-20.9 5.4-29.8 9.8 9.1.1 18.9 2.2 28.8 3.3 10.1 1.1 20.2 2.4 30.2 3.8 3.8.5 8.2.7 8.6 6.2-2.4 2.5-4.8.1-7.2.1-14.2-1.2-28.3-3.3-42.4-5.2-6.9-.9-13.8-1.5-20.7-2.5-3.3-.5-6.5-1.1-9.6-2.5-2.9-2.2-3.4-5.1-3.2-8.8 1.4-18.1 2.8-36.3 4.4-54.4.2-2.3.1-4.9 2.4-6.6zM1271 0h17c1.5 1.2 2.1 2.9 2.3 4.8 1.8 19.6 3.1 39.2 4.7 58.7.2 2.9-1.4 4.7-3.3 6.4-7.9 3.4-16.6 3.1-24.9 4.3-5.9.9-11.8 1.6-17.7 2.6-2.5.3-4.6-.6-6.7-1.9-1.8-2.8.3-3.7 2.3-4 11.6-1.7 23.3-3.6 35-4.5-14-4.9-28.4-8.9-42.5-13.6-9.3-3.1-18.8-5.4-27.9-9.1-4.1-1.7-9-1.2-12.5-4.6-.4-.3-.8-.8-1-1.3-.4-1.7-.4-3.3 1.3-4.3 2.6.3 4.5-1.4 6.7-2.4 20.2-8.5 39-19.9 59.3-28.4 2.6-1 5.5-1 7.9-2.7z"/><path class="st8" d="M2272 100h-94c-1.2-4 1.6-6.7 3.6-9.2 15.8-19.2 31.5-38.5 47.4-57.6 1.4-1.7 2.8-3.3 4.6-4.5 1.3-.8 2.1-2.2 3.7-2.5 1.1 0 2 .5 2.7 1.3 5.7 9.9 10.1 20.4 15 30.7 5.4 11.1 10.6 22.3 15.9 33.5 1.2 2.6 3.6 5.2 1.1 8.3zM1662 100h-94c-2.2-2.2-.7-4.5.2-6.5 4.7-10.3 9.6-20.4 14.4-30.6a3164 3164 0 0 0 12.5-26.5c1.4-3 3.3-5.8 4.8-8.7.7-.9 1.5-1.4 2.7-1.4 1.7.1 2.5 1.6 3.7 2.5 4.5 3.5 7.7 8.3 11.3 12.6 13.6 16.3 26.9 32.8 40.5 49.2 2.2 2.5 4.8 5.3 3.9 9.4z"/><path class="st9" d="M3413 100c3.5-18.2 6.8-36.5 9.2-54.9.8-5.7 2.5-11.3 2.8-17.1l.6-.6.8-.4c5.4-.1 10.5 2 15.4 3.4 8.6 2.5 17.5 3.9 26.1 5.9 13.5 3.1 26.8 7.3 40.5 9.7 2.6.5 5.8.7 6.5 4.3-.5 2.2-2 3.8-3.7 5.2-27 13.5-54.3 26.2-81.1 40-4.2 2.2-8.9 2.6-13.2 4.3-1.2.2-2.6.2-3.9.2zM415 28c.4 9.8 3.6 19.2 4.6 28.9 1.5 14.5 4.8 28.7 7.4 43.1h-4c-11.6-2.4-21.5-8.7-31.9-13.8-20.8-10.2-41.7-20.1-62.3-30.5-1.7-1.4-3.1-3-3.8-5.1.4-3.6 3.5-3.9 5.9-4.4 15.7-3.3 31-8.1 46.6-11.2 8.4-1.7 16.6-4.2 25.1-5.3 3.3-.4 6.2-2.4 9.5-2.9a5 5 0 0 1 1.7.3c.5 0 .9.4 1.2.9z"/><path class="st10" d="M3210 64h1c.3.4.6.9.7 1.4-1.7 11.1-6.3 21.3-10.5 31.5-.6 1.5-2.1 2-3.1 3.1h-87c-1.7-2-.8-3.7.6-5.3 12.7-14.1 24.3-29.2 37-43.4 2-2.2 4-4.4 6.7-5.8 5.9-1.3 11 1.9 16.3 3.5 10.9 3.4 21.8 6.9 32.7 10.6 2.3.9 4.6 1.7 5.6 4.4zM629 64h1c.8-2.2 2.6-3.3 4.8-4 14.8-4.8 29.5-9.8 44.4-14.3 1.7-.5 3.5-1.1 5.3-.2 7.1 4.6 11.8 11.5 17.2 17.7 8.6 10.1 16.9 20.4 25.7 30.3 1.6 1.8 3.8 3.6 1.6 6.4h-87c-1-1.1-2.5-1.6-3.1-3.1-4.2-10.3-8.9-20.4-10.5-31.5 0-.4.2-.9.6-1.3z"/><path class="st11" d="M685 47c-11.2 2.2-21.8 6.5-32.7 9.9L630.1 64c-.4-6.9-.3-13.8-.1-20.7.3-14.4 0-28.9 0-43.3h56c5.1 1.5 9.3 4.9 14.5 6.4a4 4 0 0 1 1.8 1.3c.7 1.4-.1 2.5-.7 3.6A651.7 651.7 0 0 1 688 44.8a5.5 5.5 0 0 1-3 2.2zM3210 64l-46.8-14.9c-2.7-.8-5.4-1.4-8.2-2.1a5 5 0 0 1-3-2.3c-4.8-11-9.3-22.2-13.6-33.5-.7-1.1-1.4-2.2-.8-3.5a4 4 0 0 1 1.8-1.3c5.1-1.6 9.5-4.7 14.5-6.4h56c0 14.4-.3 28.9.1 43.3.3 6.9.4 13.8 0 20.7z"/><path class="st12" d="M2386 0h25c2.1 1 2.5 2.9 2.4 5-.1 10.8-.7 21.5-1 32.3-.1 4.7.5 9.3 1 13.9.2 1.6.1 3.3 0 5-.1 9.6-.8 10.4-10.1 11.4-10.2-1.6-19.4-6.5-29.5-8.6-11.4-2.3-21.8-7.9-33.4-9.4-2.9-.4-5.2-2.7-7.9-3.9-2.1-1-2.3-3.1-1.2-5.1 2.2-4.3 6.4-6.9 10.1-9.5A934.2 934.2 0 0 0 2375.5 6a58 58 0 0 1 10.5-6zM1429 0h25c11.6 5.7 21 14.5 31.4 21.9 6.5 4.6 13.3 8.8 19.2 14.2 1.5 1.4 3.1 2.5 3.9 4.4 1.4 2.9.3 4.4-2.4 5.9-8.2 4.7-17.7 5.1-26.3 8.4-11.1 4.3-23 5.9-34.1 10.6-2.8 1.2-6.1 1.3-9.2 2.1-1.4.2-2.6-.5-4-.4-3.8.2-5.2-1.9-5.7-5.5-.5-4-.7-8-.3-12 1.2-9.5 1.2-18.9 0-28.4-.7-5.9 1.2-11.9 0-17.9-.2-1.4 1.1-2.5 2.5-3.3z"/><path class="st13" d="M1601 28c-.9 5.3-3.7 9.9-6 14.7l-27 57.3h-5c-8.3-4.8-14.4-12.2-20.7-19.1-7-7.7-14.4-15-21.9-22.4-1-1.5-2.3-2.7-3.6-3.9-1.8-2.1-4.5-3.7-5.2-6.7-1.1-5.8-.9-6.3 4.8-7.5 22.8-4.7 45.8-8.5 68.6-12.7 3.1-.6 6.2-1.4 9.2-2.1 2.6 0 5 .5 6.8 2.4zM2272 100c-7.6-16.2-15.3-32.2-22.7-48.5-3.5-7.8-8.4-15-10.4-23.5 1.8-1.9 4.2-2.2 6.7-2.4 19.3 4.4 38.9 7.1 58.3 11 6.5 1.3 13.1 2.2 19.6 3.8 5.7 1.4 6 1.8 4.7 7.4-1 2.8-3.9 4-5.3 6.4a27.2 27.2 0 0 0-3.4 4.2 492.5 492.5 0 0 0-22.6 23.1c-4 4.4-7.8 9-12.4 12.8-2.4 2-5 3.7-7.5 5.6l-5 .1z"/><path class="st14" d="M2552 0c-.4 17.1-2.7 34-3.6 51.1-.3 5.9-3.1 12.1.6 17.9a2 2 0 0 1-1.3.9c-11.3-.1-21.6-4.7-32.3-7.5a776.6 776.6 0 0 1-39.6-11.3c-.5-.1-1-.2-1.4-.5-7.3-4.1-7.2-6.9-.2-11.4l37.5-24.2c8.7-5.5 16.7-12.7 27.2-15h13.1zM1291 69c3.6-5.8.8-12 .6-17.9-.3-11.1-1.7-22.1-2.5-33.2-.4-6-1.5-11.9-1-17.9h13c11.4 3.2 20.2 11.1 30 17 7.5 4.5 14.7 9.7 22.2 14.1 5.3 3.1 10 7 15.4 10 3.3 1.9 3.2 4.7.2 7.2a12.5 12.5 0 0 1-4.7 2.8c-20.4 6.4-41.1 11.5-61.5 17.7-3.3 1-6.9.9-10.3 1.1a2 2 0 0 1-1.4-.9z"/><path class="st15" d="M832 0h75c1.4 2.4-.4 3.3-1.9 4.3A32.7 32.7 0 0 1 890.6 9c-8.4 1-16.9.2-25.3-.5-10.9-.9-21.9.8-32.7-1.1-4.1.7-6.1 3.9-9 6.4-6.3 5.4-12.2 11.2-18.2 16.8-10.2 9.4-21.3 17.8-31.4 27.3-4.8 4.5-9.8 8.9-15.1 12.8-1.2.9-2.4 2.6-4.3 1.2-1.4-2.4-1.6-5.1-1.4-7.7l5.9-55.5c.3-3 .2-6.4 3-8.7h51c4.1 1.3 8.4 1.4 12.6 2 2.3.3 4.5-.1 6.3-2zM2933 0h75c1.9 2.1 4.4 2.3 6.9 1.9 4-.6 8.2-.7 12.1-1.9h51c1.9 1.4 2.2 3.6 2.6 5.7 2.1 14.1 3.1 28.4 4.7 42.6l1.5 14.4c.3 3.2.2 6.3-1.3 9.2-4.4.6-6.7-3.1-9.4-5.3-11.1-9-21.6-18.7-32.5-27.9-7.2-6.2-14.7-12.4-21.2-19.6-3.1-3.4-6.8-6.1-9.9-9.6-3.9-4.3-9.6-3.7-14.6-2.9-6.6 1-13.3.2-19.8 1.6-7.8.3-15.5 1.5-23.3 1.1a41.5 41.5 0 0 1-19.5-4.9c-1.6-.9-3.8-1.7-2.3-4.4z"/><path class="st16" d="M3678 100h-26c-3.5-1.5-3.7-4.8-4.3-7.9-2.3-12.6-3.8-25.3-6.3-37.8-.4-1.8-.7-3.6-2.1-4.9-1-3.5 1.6-5.1 3.6-7.1.6-.2 1.1-.2 1.7-.1 5.8.5 11.5-1.1 17.3-1.6 17.9-1.5 35.8-2.6 53.6-5.5 1.1-.4 2.2-.3 3.3.4 1.7 1.9.6 3.6-.5 5.2-3.4 1.8-4.6 5.5-6.5 8.5-9.5 15.1-18.5 30.5-27.9 45.7a13.2 13.2 0 0 1-5.9 5.1zM188 100h-26c-2.5-1-4.3-2.9-5.8-5.2-10.6-16.9-20.6-34.2-31.2-51-.8-1.3-1.9-2.2-3-3.2-.3-1.7-2.4-3.2-.8-5.2 1-.7 2.1-.9 3.3-.6 10 2.5 20.4 2.5 30.5 3.8 12.8 1.6 25.8 1.7 38.5 4 .7.1 1.3-.1 1.9-.4.6-.1 1.1-.1 1.7.1 2 1.9 4.6 3.6 3.7 7.1-3.4 5.2-3.3 11.4-4.3 17.2l-4.4 27.1c-.5 2.5-1.2 5.1-4.1 6.3z"/><path class="st17" d="M326 0h48c12.5 4.9 23.1 13.1 34.8 19.8.8-2.3-.6-5.5 2.9-6.2 5 3.6 6.1 10.3 2.3 14.4-15.4 3.8-30.8 7.3-46.3 10.9-12.4 2.9-24.7 6.1-37.2 8.6-2.3.5-4.5 1-6.1 2.9-.5.3-1.1.3-1.7.3-.9-.3-1.5-.9-1.9-1.7-1.3-3.3-.3-6.6-.1-9.9.6-11.3 1.6-22.5 2.8-33.8.3-2.1.8-4 2.5-5.3zM3466 0h48c3 2.6 2.9 6.3 3.1 9.6.6 11.9 2.4 23.7 2.6 35.6 0 1.2-.3 2.3-.6 3.4a3 3 0 0 1-1.8 1.8c-.6.1-1.1.1-1.7-.1-2-2.2-4.9-2.5-7.6-3.1-15.8-3.6-31.5-7.4-47.3-11.1L3426 28c-3.7-4-2.8-10.4 2.1-14.4 2.7 1.8 2.7 1.8 2.9 6.2 11.8-6.6 22.5-14.9 35-19.8z"/><path class="st18" d="M2175 100h-2a27.3 27.3 0 0 1-10-6.1c-14-12-27.5-24.6-41.3-36.8-7.4-6.6-15.5-12.6-21.3-20.9-.5-1-.6-2.1-.1-3.2 1.2-1.8 3-1.8 4.9-1.9 6.5-.2 12.9-.5 19.4.6 5.3.9 10.9.6 16.4.6 9.6 0 19.1 2.8 28.8 1.4 1.3-.2 2.7.1 3.9.5 3.6.7 7 1.9 10.5 3.1 2.9 1 3.7 2.7 3.5 5.6-.4 6.3-1.6 12.5-2.7 18.7-1.5 8.8-2.5 17.7-4.1 26.4-.7 4.5-.9 9.6-5.9 12zM1667 100h-2c-2.6-1.2-3.9-3.3-4.6-6.1-2.2-8.7-3.1-17.6-4.3-26.4-1.1-7.7-3-15.3-3.7-23.1-.4-4.2.5-6.5 4.8-7.7l9.1-2.6c1-.3 2-.5 3-.4 14.8 1.1 29.3-2.2 44.1-1.9 7 .1 14.1-1.3 21.3-.7 1.9.2 3.7.1 4.9 1.8.6 1.1.5 2.1-.1 3.1-8.2 11-19.3 19.1-29.4 28.3-8.8 8.1-17.5 16.3-26.8 23.9-5.2 4.3-9.2 10.2-16.3 11.8z"/><path class="st19" d="M1594 28c-11.5 3.3-23.4 4.6-35.1 6.9-14 2.7-28 5.5-42.1 7.7-4.5.7-4.2 2.4-2.8 5.4-2 .9-3.1-.4-4.1-1.8a16.4 16.4 0 0 1-.7-9.8c1.2-8.8 3-17.5 4.2-26.3A16 16 0 0 1 1518 0h58c7.6 4.5 13.5 10.9 20 16.7 2 1.8 3.9 2 6.1 2 2.1 1.5 3 3.7 1.8 5.9-1 1.9-2.9 2.9-5.2 2.9-1.5 0-3.2-.4-4.7.5zM2326 48c1.5-3 1.7-4.6-2.7-5.4-23.7-4-47.4-8.5-71.1-12.9-2.1-.4-4.3-.4-6.2-1.7-1.4-.9-2.9-.5-4.3-.5-2.5 0-4.7-.8-5.7-3.1-1-2.2-.2-4.2 1.8-5.7 4.5.6 7.2-2.6 9.9-5.3 5.1-5 10.5-9.5 16.4-13.5h58c2 2.1 3.4 4.4 3.9 7.3 1.7 9.9 4.1 19.7 4.5 29.8 0 2.9.3 5.8-.2 8.7-.9 1.9-2.1 3.1-4.3 2.3z"/><path class="st20" d="M3417 100c4.7-3.7 10.4-5.8 15.6-8.5 24.2-12.1 48.5-23.8 72.8-35.7 1.5-.7 3.1-1.2 4.6-1.8 2.7-1.4 5.1-3.6 8.4-3.8 3.2.9 3.7 3.6 3.9 6.3.9 11.6 2.1 23.1 3 34.7.2 3.1.7 6.4-2.2 8.8H3417zM330 54c8 3.7 16 7.3 23.8 11.2l67.3 33.2c.7.3 1.2 1.1 1.8 1.6h-106c-3.1-2.7-2.4-6.4-2.1-9.7.8-11.1 2.1-22.1 2.9-33.1.2-2.8.4-5.7 3.9-6.7 3.4-.2 5.7 2.1 8.4 3.5z"/><path class="st21" d="M3643 43l-3 6c2.2 2.2.9 4.4-.2 6.4-7.1 13-13.9 26.1-20.9 39.2-1.2 2.3-2.9 4-5 5.5h-31c-4.4-5.6-4.6-12.6-6.2-19.1-2.5-9.6-4.4-19.3-7.4-28.7-.1-2.7 1.4-3.6 3.8-4.3 6.3-1.8 12.9-1.4 19.3-1.8 11.6-.8 23.2-2.1 34.8-2.2 10-.1 11-1.5 8.6-11.2-2.1-8.6-4.7-17-6.6-25.6-.5-2.4-1.6-4.9.7-7h2c1.9 1.6 2.6 3.7 3.3 6 2.7 9.7 5 19.6 7.8 29.3.8 2.4 1.1 4.9 0 7.5zM200 49l-3-6c-1-2.4-.9-4.8-.2-7.3 2.9-10 5.3-20.2 8.1-30.2.6-2.1 1.4-4.1 3.1-5.5h2c2.3 2.1 1.3 4.6.7 7-2.1 9.4-4.9 18.7-7.2 28-1.6 6.5-.8 8.1 5.7 8.4 11.6.6 23.2 1.6 34.8 2.4 7.6.5 15.3.4 22.8 2.1 2.4.6 3.9 1.6 3.9 4.2-3.1 9.4-5 19.2-7.5 28.8-1.7 6.5-1.9 13.5-6.2 19.1h-31c-5.7-3.7-7.2-10.2-10.3-15.6-5.4-9.5-10.3-19.4-15.5-29-1.1-2-2.4-4.2-.2-6.4z"/><path class="st22" d="M2866 0h62c5.1 2.3 10.1 4.6 14.8 7.6.2.5.3.9.2 1.4-.7 2.1-2 3.8-3.6 5.3-12.8 12.5-24.4 26.2-37.5 38.4-3.6 3.4-5.8 8.2-10.5 10.4-.8.4-1.4.8-2.3.8-4.3-.2-8.6.3-12.8-1.2-1.8-.7-4-.8-4.7-3.2 1.3-3.9 4.4-2.7 7.1-2.4 5.1.5 5.4.3 3.8-4.5a723 723 0 0 0-15.8-42.5c-1.3-3-3.7-6.5-.7-10.1zM912 0h62c3 3.6.6 7.1-.7 10.2a786 786 0 0 0-16 42.9c-1.5 4.5-1.2 4.8 3.7 4.2 2.7-.3 5.7-1.5 7.3 2.1-3.1 5-8.4 4-13 4.6-1.4.2-2.9-.6-4.3 0-3.3-.6-5.8-2.6-7.7-5-4.2-5.4-9.1-10.1-14-14.8-10.2-9.7-19-20.8-29.3-30.4a12.3 12.3 0 0 1-3-4.5c-.1-.5 0-1 .1-1.5 4.7-3.3 9.8-5.4 14.9-7.8z"/><path class="st23" d="M3154 44l1 3c-13.8 16.5-27.3 33.2-41.7 49.2-1 1.1-2 2.2-2.3 3.8h-63a42.2 42.2 0 0 0-10-2c-1.9-.2-3.5-.7-4.4-2.5-.2-.5-.2-1-.1-1.6 1.8-2.3 4.2-3.8 6.8-5 12.2-4.5 23.9-10.4 36-15.3 5-.5 9.7-1.4 13.5-5.1l1.2-.8 5.2-2c19.1-7.5 38.6-14.1 57.8-21.7zM685 47l1-3c12.3 4.4 24.2 9.8 36.6 13.8 7.3 2.3 14.2 5.4 21.3 8 1.8.5 3.4 1.4 5.2 2l1.2.8c3.8 3.6 8.5 4.7 13.5 5.2 12.1 4.9 23.8 10.6 36 15.2 2.7 1.1 4.9 2.7 6.8 4.9.2.5.1 1 0 1.6-.9 1.9-2.4 2.4-4.4 2.6-3.4.3-6.8.7-10.1 2h-63c-4.1-6.8-10.1-12.2-15-18.4-9.5-11.8-19.4-23.2-29.1-34.7z"/><path class="st24" d="M3211 65v-1c8.4 1.2 16.8 0 25.1.2 19.5.4 39-.2 58.4 1.7 4.8.5 9.6.1 14.4.1.3-.3.7-.4 1 0l-2 9c1.4.9 1.8 2.3 1.5 3.9a87.3 87.3 0 0 1-6.5 18.6c-.6 1.3-1.9 1.7-3 2.5h-36a59 59 0 0 1-18-9.2c-10-6.6-19.9-13.2-30.1-19.5-1.1-.7-2.1-1.7-2.9-2.7-.6-1.1-1.5-2.2-1.9-3.6zM629 64v1a8.1 8.1 0 0 1-2.4 3.4c-5.8 5-12 9.4-18.6 13.2-7.4 4.4-14.4 9.4-21.6 14.1-3.3 2.2-7.1 2.4-10.4 4.2h-36a7.5 7.5 0 0 1-3.9-4.3c-2-5.1-4.1-10.1-5.3-15.4-.5-2-.9-3.9 1.2-5.3l-2-9c.3-.3.7-.4 1 0 32.6-1.6 65.3-1.2 98-1.9z"/><path class="st25" d="M763 76c-5.3-.4-9.2-4.2-14-6-.5-4.5-4.7-6.2-7.1-9.1a3313 3313 0 0 0-38.8-45.3A19.1 19.1 0 0 1 700 10l2-2c-.5-1.9 1-2.1 2.2-2.7A44.8 44.8 0 0 1 719.8 1c1.8-.2 3.6-.1 5.2-1h37l-4.4 43.5-2.6 23.7c-.2 1.7-.1 3.3.9 4.8 4.8-1.2 6.2-.4 7.1 4zM3091 70c-4.7 1.8-8.6 5.6-14 6 .9-4.4 2.3-5.2 7-4 2.4-5.3-.1-10.5-.5-15.6-1.6-18.8-3.6-37.6-5.5-56.4h37c5.5 1.6 11.5 1.1 16.7 3.6 2.3 1.1 5.6.9 6.3 4.4l2 2c-1.4 5.3-5.7 8.5-9 12.4-11.9 14-24 27.8-35.8 42-1.5 1.8-4.6 2.3-4.2 5.6z"/><path class="st26" d="M270 52c-3.1-3.8-7.6-2.6-11.4-2.8-8.1-.5-16.1-1.5-24.2-1.6-6.8-.1-13.4-1.5-20.2-1.3-4.3.1-8.6-.7-12.8-1.5-3-.5-2.1-2.9-1.6-4.8L210 0h30c5.3 2.7 7.3 8 9.9 12.7 5.3 9.6 11.4 18.7 16 28.7.4.7 1 1.3 1.6 1.9 1.2.8 2.1 2 2.9 3.2 1.2 1.7 2 3.6 3.5 5.1 1.4 1.4 1.6 3.1.1 4.7-3.2.3-4.7-.9-4-4.3zM3630 0c3.3 12.9 6.5 25.7 10 38.6 1.1 4.2 1 6.2-4.3 6.7-13.5 1.3-26.9 2-40.4 2.8-7.4.4-14.8 1.1-22.2 1.7-1.5.1-2.3 1.1-3 2.3.7 3.4-.8 4.6-4 4.3-1.6-1.6-1.4-3.3 0-4.7 1.5-1.5 2.3-3.5 3.5-5.2.9-1.1 1.7-2.4 2.9-3.2 4.7-6.8 8-14.5 12.4-21.5 3.4-5.3 6-11.1 9.5-16.3 1.5-2.3 3.2-4.2 5.6-5.4l30-.1z"/><path class="st27" d="M2476 49l42.7 11.9L2548 69c1.5.8 2.4 1.9 1.6 3.7l-.3.4c-9.8-.5-15.5 7.2-22.9 11.4-6.2 3.5-11.9 7.8-17.8 11.9-2.7 1.9-6 1.9-8.7 3.6h-22a10.1 10.1 0 0 1-3.2-6l-8.1-40.5c-.3-1.6-.7-3.3.3-4.8 3.2-3.3 6.1-.5 9.1.3zM1292 69l65.3-18.1 6.7-1.9c2.9-.8 5.8-3.6 8.8-.4 1.1 2.3.5 4.6 0 6.8l-7.6 38.1c-.5 2.5-1.2 4.8-3.3 6.5h-22c-9.7-2.7-17-9.5-25.2-14.7-5-3.2-10.2-6.2-14.8-10.1a6.8 6.8 0 0 0-6-1.7c-1.3.3-2.6.5-3.6-.8-.7-1.8.2-2.9 1.7-3.7z"/><path class="st28" d="M3310 66h-1c.6-1.9-.4-3-1.7-4.3a5968.3 5968.3 0 0 1-43.2-44.1c-5.5-5.7-10.8-11.7-16.1-17.6h68c3.9 2.8 2.5 6.6 1.4 9.9-1.2 3.6-1.8 7-.2 10.6.3.6.6 1.3.4 1.9-3 10.3.4 21.1-2.8 31.4-.7 2.1-.9 4.2-.3 6.4.3 2-1.1 2.9-2.5 3.7l-2 2.1zM531 66h-1l-2-2c-1.5-.9-2.8-1.8-2.5-3.8.9-3.1-.3-5.9-.9-8.8-.9-4.4-1.9-8.7-.4-13.2.8-2.4-.1-4.9-.7-7.4-1-4.2-1.8-8.3-.1-12.7 1-2.7-.1-5.5-.9-8.2-1-3.4-2.4-7.1 1.5-9.9h68c-4.7 6-10.3 11.2-15.5 16.8C562.3 32 547.6 46.6 533 61.4c-1.3 1.3-2.7 2.4-2 4.6z"/><path class="st0" d="M3678 100l34.6-56.7c1.1-1.8 2.1-3.4 4.4-3.3 2.7.2 4.1 2.1 5.1 4.2 5.8 11.7 12.9 22.7 18.6 34.5 1.5 3.1 3.5 6 5.1 9.1 1.3 2.4 2.7 2.2 3.6-.4 1.1-3.1 2.5-6.1 3.4-9.3.7-2.2 1.8-4 4.6-3.2.4.3.7.7 1 1.2 1 1.8.3 3.5-.2 5.3-1.1 4-3.1 7.7-4.2 11.7-1.1 3.9-3.6 5.8-7.6 5.6-1.2.4-2.4.5-3.4 1.4l-65-.1zM123 40c1.8 0 3 .8 4 2.4l28.5 46.5 6.6 11.1h-65c-.9-.8-2-.9-3.1-1.3-1.8-.4-4.1.2-4.7-2.5 0-.5 0-1 .2-1.4 5.2-4.2 7.6-10.4 10.5-16 6-11.4 13.1-22.2 18.3-34.1.8-2 2.3-3.9 4.7-4.7z"/><path class="st29" d="M2329 46v-9c-.6-.7-.5-1.4-.2-2.1 4.4 0 3.1 3.8 4.2 6.1-1.2 2.6.3 3.4 2.5 4.2 8.5 3.1 17.6 4.5 26.2 7.7 10.7 4 22.1 5.6 32.6 10.2 2.7 1.2 5.8 1.3 8.7 2 2.6.6 5.1 1.4 7.8 1.7.4.3.7.7.8 1.2.3 1.9-.8 3.2-2.1 4.3-8.3 7.6-14.7 17-23.7 23.9-2.2 1.7-4.6 2.5-6.8 3.9h-17a40.6 40.6 0 0 1-9.2-12.9c-6.5-12.1-13.9-23.8-20.6-35.9a12 12 0 0 0-3.2-5.3zM1511 37c0 3-1.3 6 0 9a13 13 0 0 0-3.2 5.1c-7.4 13.3-15.5 26.1-22.6 39.6a28.7 28.7 0 0 1-7.3 9.3h-17a47 47 0 0 1-15.6-12c-4.9-5.4-9.8-10.7-15-15.9-1.2-1.2-2.4-2.4-2.2-4.3.1-.5.4-.9.8-1.3 2.7-.2 5.3-1 8-1.6 9-1.5 17.4-5.4 26.2-7.8 13.8-3.9 27.5-8 41.3-12 2.3-.7 3.7-1.5 2.5-4.1 1.1-2.3-.2-6.1 4.2-6.1.4.7.5 1.4-.1 2.1z"/><path class="st30" d="M1372 49c-2.7-1.7-5.3-.1-8 0 6.5-4.2 6.3-4-.5-8.3-12-7.6-23.8-15.7-35.8-23.4-6.8-4.4-13.8-8.6-20.7-12.8-2.1-1.3-4.4-2.3-5.9-4.5h91c2.6 2.4 1.1 4.8 0 7.2-5.5 12.6-11.3 25-17 37.5-1.1 1.4-1.3 3.4-3.1 4.3zM2476 49c-2.7-.1-5.3-1.7-8 0-1.8-.9-2-2.9-3.1-4.3-5.7-12.5-11.5-24.9-17-37.5-1.1-2.4-2.6-4.8 0-7.2h91c-4.6 5-11 7.3-16.5 11.1-11.9 8.2-24.4 15.4-36.5 23.2-4.6 3-8.9 6.4-13.8 8.9-2.1 1-2.2 2.4-.1 3.6l4 2.2z"/><path class="st31" d="M1738 36l1-2c1.1-1.2 2.3-.8 3.6-.2 1.1.7 2.3 1.3 3.1 2.3 10.8 19 21.2 38.2 31.6 57.4 1.1 2 2.4 4.1.7 6.4h-62c-2.6-2.2-1.8-4.7-.8-7.3 5.7-14.4 11.3-28.7 16.8-43.1 1.7-4.6 4.8-8.6 6-13.5zM2101 34l1 2c-.8 3.1 2.1 4.6 3 7 5.9 14.5 12.2 28.9 17.2 43.8.7 2.1 1.8 3.9 2.6 5.9 1.1 2.5 1.8 5.1-.8 7.3h-62c-1.7-2.4-.4-4.4.7-6.4 10.5-19.2 20.8-38.4 31.6-57.4.8-1.1 2-1.6 3.1-2.3 1.2-.7 2.5-1.1 3.6.1z"/><path class="st32" d="M2758 100c.3-12.8 2.4-25.5 3.4-38.2.7-8.9 1.7-17.8 2.6-26.8.3-.4.7-.6 1.2-.8.5-.1 1 0 1.4.1 5.1 3.1 8.2 8.2 11.9 12.6 13.4 15.9 26.9 31.7 39.9 47.9 1.2 1.5 2.9 3 1.5 5.3l-61.9-.1zM1076 35l4.7 47.1c.6 6 .9 11.9 1.3 17.9h-62c-1.4-2.3.3-3.7 1.5-5.3 11.4-14.1 23.1-27.8 34.7-41.7 3.7-4.4 7.5-8.9 11.1-13.5 1.6-1.3 2.8-3.1 4.3-4.5.5-.5 1.1-1 1.8-1.2.5-.1 1 0 1.5.1l1.1 1.1z"/><path class="st33" d="M2766 35h-1c-.8-1.6-2.3-2.9-2.5-4.9-.6-3.5 2.1-5.7 3.1-8.6 1.6-4.8 4.1-9.4 5.8-14.2 1.1-3.1 2.8-5.6 5.5-7.3h28a18 18 0 0 1 5.6 5.4 842 842 0 0 0 22.7 39c1.7 2.7 3.3 5.8 1.8 9.3-2.5 2-5.2.8-7.6.1-18.6-5.2-37-10.9-55.4-16.5-2.1-.7-3.7-2.4-6-2.3zM1075 35h-1c-2.6-.7-4.2 1.5-6.3 2.3-9.2 3.3-18.7 5.7-28.1 8.7-8.7 2.8-17.5 5.3-26.3 7.6-2.7.7-5.4 2.2-8.1.3-1.8-4.5.7-8 2.8-11.4 7-11.3 13.6-22.8 20-34.4 1.8-3.2 3.6-6.3 7-8.1h28c2.8 1.7 4.5 4.3 5.6 7.4 2.7 7.7 6.8 14.8 8.8 22.7-.1 2-1.6 3.3-2.4 4.9z"/><path class="st34" d="M2766 35c1.2-2.7 3.1-1.1 4.7-.6l56.1 16.7c2.7.8 5.5 1.3 8.2 1.9.9-1.2.2-2.5.4-3.8.4-2 1.3-3.4 3.7-1.9 1.4 1.7.8 3.6.8 5.5.2 4.9-2.2 9.3-3.3 13.9-1.9 8.2-3.1 16.6-4.9 24.9-.7 3.4-1.8 6.4-4.7 8.4h-7l-49.1-58.7c-1.7-2-3.3-4.2-4.9-6.3zM1005 53c12.5-2.6 24.6-6.7 36.8-10.3l29-8.7c1.3-.4 2.6-.7 3.3 1.1l-1 1c-1.1 1.8-2.9 3.2-4 5l-41.3 49.8-7.7 9.2h-7c-2.9-2-4.1-5-4.7-8.4-1.5-10-3.9-19.7-5.7-29.7-.6-3.1-3.3-5.5-2.5-8.9 0-1.9-.7-3.8.6-5.5 2.3-1.7 3.3-.3 3.7 1.7.3 1.1-.4 2.5.5 3.7z"/><path class="st21" d="M3716 36c-.8 2-2.5 1.8-4.1 2.1-17.1 2.3-34.2 3.6-51.4 5-4 .3-7.9 1-11.8 1.6-1.9.3-3.7.6-4.6-1.6a3 3 0 0 1 .8-4c5.4-4.2 8.8-10.2 14.9-13.9 5.6-3.4 9.5-9.2 14.1-14 4.6-4.7 8.4-9.8 15.3-11.1h26c1.2 1.1 1.5 2.5 1.5 4-.1 10.4.3 20.7-.2 31.1-.3.2-.4.5-.5.8zM196 43c-.9 2.3-2.8 1.8-4.6 1.6L143 39.9c-5.4-.5-10.8-1.4-16.3-2-1.3-.2-2.2-.7-2.7-1.9a14.3 14.3 0 0 1-1.4-6.8V6.8c0-2.5 0-5 2.3-6.8h26c6.9 1.3 10.6 6.5 15.3 11 5.7 5.5 10.3 12.2 17.3 16.4 5 3 7.7 8.6 12.2 12.4 1 .7 1 2.1.3 3.2z"/><path class="st35" d="M1002 47v6a9.3 9.3 0 0 1-6.3 3.5l-20.6 3.4c-2.5.4-5 .7-7.2-.9-3.5-.3-6.9.8-10.3 1.3-1.6.3-3.5 1.3-4.7-.2-1.4-1.7.1-3.4.7-5.1l20.3-55h19a7.9 7.9 0 0 1 3.7 5.6c2.3 11.9 4.1 23.8 6.3 35.7.5 2 .2 3.9-.9 5.7zM2838 53v-6c-1.4-2.3-1.2-4.7-.7-7.2 2-10.6 3.6-21.2 5.6-31.8.6-3.1.9-6.3 4.2-8h19c5.5 15 10.9 30 16.5 44.9 1.5 3.9 2.4 7.9 4.4 11.7 1.7 3.3-.1 4.7-3.5 4-3.8-.7-7.5-1.8-11.3-1.6-2.2 1.6-4.7 1.3-7.2.9l-20.6-3.4a9.3 9.3 0 0 1-6.4-3.5z"/><path class="st36" d="M1373 44l17-38c.9-2 2-3.8 2-6.1h9c6.1 3.9 6.1 11.1 9.1 16.7 4.2 8 6.7 16.9 10.8 25 1.9 3.7 2.4 7.9 3.9 10.5-.2-14.8-.1-30.8 0-46.8 0-2.1.6-3.9 2.3-5.3h2c-.3 1.3-.9 2.6-.8 3.9l.8 39.7c.1 5.6-1.6 11.1-.5 16.9.8 4.3 2.4 5.9 6.6 4.4.6-.2 1.3.1 1.9.1a12 12 0 0 1-8 2c-4 1.1-7.8.4-11.6-1.1a632 632 0 0 0-31.6-11.6 55.8 55.8 0 0 1-10-4.3c-2.4-1.3-4.3-3-2.9-6zM2448 0c2.5 9.3 7.6 17.5 11.2 26.4l7.8 17.7c1.2 2.7-.1 4.4-2.3 5.7a40.8 40.8 0 0 1-9 4.1c-11.1 3.4-21.6 8.1-32.6 11.6-3.8.4-7.8-.3-11.4 1.6h-.7a12 12 0 0 1-8-2c8.2.1 9.3-.6 8.9-9.5-.4-8.6-1.5-17.3-.7-25.9.8-8.4-.9-16.9.7-25.3.3-1.5-.2-3-.8-4.4h2c1.7 1.3 2.3 3.2 2.3 5.3.1 15.9.1 31.9 0 46.9-.4 1.6.4 1.1-.2 1.1v-.5c2.7-7.4 6.1-14.6 8.9-22 3.2-8.2 7.5-15.8 9.9-24.3.8-3 3.1-4.6 5.1-6.5h8.9z"/><path class="st37" d="M1373 44c0 2.3 1.7 3 3.4 3.7 11.6 5 23.5 9 35.3 13.2L1429 67v1c-.1 2.4-2.1 3.3-3.7 4.3-12.3 7.1-23.9 15.3-36 22.8-3.3 2-6.9 3.1-10.2 5h-17c1.6-13.5 5.1-26.6 7.5-39.9.7-3.7 1.7-7.4 2.5-11.1-.1-1.8-.3-3.6.9-5.1zM2422 63c13.9-4.6 27.6-9.5 41.1-15.1 1.8-.8 3.9-1.3 3.9-3.9 1.2 1.5 1 3.3 1 5 3.7 16.9 7.5 33.8 10 51h-17c-16.9-7.4-31.1-19.3-47.1-28.3-1.4-.8-2.8-1.8-2.9-3.7v-1c3-3.1 7.8-1.4 11-4z"/><path class="st38" d="M1999 94l63-51c4.5.9 3.2 4.5 2.9 7.1-1.3 8.7-2.7 17.4-3.9 26.2-.7 4.6-.9 9.3-1.7 13.9-.6 3.6-1.1 7.3-4.3 9.8h-47c-1.7-1.1-3.6-1.3-5.6-1.6-1.9-.3-3.5-.9-3.9-3.1 0-.5.1-.9.5-1.3zM1778 43l63 51c.4.4.5.8.5 1.4-.4 2.1-2.1 2.8-3.9 3.1-1.9.3-3.9.4-5.6 1.6h-47c-3.2-2.5-3.8-6.2-4.2-9.8a897.6 897.6 0 0 0-5.6-39.6c-.4-2.9-2-6.6 2.8-7.7z"/><path class="st39" d="M1742 35l-3-1c-7-.3-13.9-1.1-21.1-.2-8.1 1.1-16.5.2-24.6 1.3-8.8 1.2-17.6.5-26.4 1.8-3.9 1-7.9.3-11.8.7-2.4-1.2-2.5-3.4-2-5.6 1.7-8.6 2.1-17.4 3.4-26 .4-2.6 1.1-4.8 3.4-6.2h11c6.3 2.5 13 3.5 19.2 6.6 12.8 6.6 26.3 11.7 39.4 17.6 3.5 1.6 6.5 2.8 8.4-1.9.2-.6 1.1-.7 1.8-.7 4.2 4.2 3.8 8.8 2.3 13.6zM2101 34l-3 1c-1.6-4.8-1.8-9.3 2-13.3.5-.1 1.2-.2 1.4.2 2.8 5.8 6.6 3.4 10.6 1.6 14.4-6.4 29-12.5 43.2-19.3 4.4-2.1 9.5-1.8 13.8-4.2h11c1.8 1.3 3 2.8 3.3 5.2 1.4 9 1.8 18.2 3.6 27.2.4 2 0 4-2 5.3-4-.2-8 .2-11.9-.7-1.1-.3-2.3-1.1-3.3-.9-9.3 2-18.4-1-27.5-1.4-7.8-.3-15.7.3-23.6-1.3-5.6-1-11.7.3-17.6.6z"/><path class="st40" d="M3312 64l1-4c3.9-11.2 11.4-20.5 17.1-30.7 4.3-7.6 9-15 13.5-22.6A18 18 0 0 1 3350 0h11c4.8 2.9 5.8 8.3 8 12.8 2.7 5.7 5.3 11.4 7.7 17.2.9 2.1 1.3 4.2-.7 5.9a6.4 6.4 0 0 1-3.1 2.5c-18.8 7.9-37.6 16-56.1 24.6-1.5.8-3.1 1-4.8 1zM527 60l1 4c-7.3-.8-13.3-5.1-19.8-7.7-13.2-5.4-26.2-11.4-39.3-17.1-1.8-.8-3.8-1.3-4.9-3.2-1.8-1.6-1.7-3.4-.9-5.4 3.7-8.9 7.9-17.6 11.7-26.3.8-1.9 2.9-2.7 4.2-4.2h11c6.4 3.5 8.4 10.5 12 16.1 7.1 11.2 13.5 22.8 20.6 33.9 1.9 3.1 3.1 6.5 4.4 9.9z"/><path class="st41" d="M912 0c-3.9 4.1-9.7 4.7-14 8-4.3 6.1-9.7 11.1-15.1 16.3-7.6 7.4-14.9 15-22 22.9-3.8 4.3-7 9.3-12.8 11.3-3.2.7-4.1-1.6-4.9-3.8-2.6-7.2-4-14.7-6.6-21.9-2.3-6.4-3.2-13.2-6.1-19.4-1.1-2.4-.1-4.5.2-6.8l.1-.7c1.6-1.2 3.5-1.2 5.3-.8 4.3 1.1 8.6 1.1 12.9.7 11.5-1.1 22.8 1.6 34.1 1 6.9-.4 14 .4 20.2-3.7 1.4-.9 3-1.4 3.5-3.3 1.9.2 3.5.2 5.2.2z"/><path class="st42" d="M326 0l-4 49c-2 2.1-4.6 2.3-7.3 2.4h-36.8c-1.2 0-2.3 0-3.5-.3-3.9-.9-4.9-3-3-6.5 1-1.9 2.1-3.8 3.6-5.4 2.9-2.9 4.8-6.3 6.1-10.1 7.1-8.5 13.4-17.6 20.5-26.1 1.3-1.5 3-1.9 4.4-3.1l20 .1zM3518 49l-3-33.1-1-15.9h20c2.3 1 4 2.7 5.6 4.6 6.7 7.9 12.6 16.5 19.3 24.4 1.2 5.8 6 9.4 8.9 14.1 3.1 5.1 1.9 7.8-4.2 8-13.3.3-26.5.2-39.8 0-2.2.2-4.3-.3-5.8-2.1z"/><path class="st41" d="M2942 8c-4.3-3.3-10.1-3.9-14-8h5c3.8 4.9 9.1 5.9 14.8 6.5 10.4 1.2 20.8-.3 31.2-.5 8.1-.4 16.2-.5 24.3-.5 6.3.4 7.7 2.8 5.8 8.7-3.8 12-7.6 24.1-10.9 36.3-.9 3.3-.8 7.6-5.7 8.3-6.1-1.5-9.2-6.8-13.1-10.9-8.2-8.7-16-17.7-24.9-25.7A80 80 0 0 1 2942 8z"/><path class="st43" d="M1738 36c2.8 1.4 1.2 3.6.6 5.2-4.9 12-10.5 23.8-14.7 36.1-2.6 7.6-6.7 14.7-7.8 22.8h-49l37.7-34.1c7.4-6.7 15-13.1 22.4-19.7 3.6-3.5 6.6-7.5 10.8-10.3zM2124 100c.3-4.1-2.5-7.1-3.6-10.7-4-13.4-10.5-25.8-14.7-39.1-1-3.1-3.1-5.9-4.2-9-.6-1.6-2.3-3.8.5-5.2l71 64h-49z"/><path class="st44" d="M2549 73l-1-4h1l36 4.3 37 4.7c3.1 1 3.5 3.1 1.3 5.1-5.8 5.6-9.8 13.1-17.3 16.9h-43c-5.9-3.8-7.4-10.7-11.1-16-1.2-1.7-2-3.8-3.1-5.6-1.1-1.8-1.7-3.7.2-5.4zM1292 69l-1 4c.9 1.7 1.3 3.4.3 5.2-3.4 5.9-6.5 11.9-10 17.7-1.1 1.8-2.8 2.8-4.3 4.1h-43c-7.6-3.8-11.7-11.1-17.3-16.9-3.1-3.2-1.1-6.1 4.3-7 7.8-1.3 15.7-1.9 23.7-1.7 1.4 0 3 .5 4.3-.5l35.6-4.4c2.1-.3 4.3-.4 6.4-.6l1 .1z"/><path class="st45" d="M2173 37h12c3.2-3.2 7.7-2.9 11.6-3.7 11-2.4 22-5.1 33.1-6.8 2.7-.4 5.9-1.2 5.3 3.6l-29.6 35.4-22.8 27.5c-1.8 2.2-3.1 4.7-4.6 7h-3c2-2.3 2.8-5 3.2-8.1 1.8-13.9 3.5-27.8 6.4-41.5.6-2.9.7-5.9 1-8.9.2-2.4-1.8-2.4-3.3-3-3.1-1.1-6.5.3-9.3-1.5zM1655 37h12c-2.8 1.8-6.2.6-9.2 1.5-2.4.7-3.4 1.6-3.1 4.5.7 7.4 2.8 14.6 3.6 22 1 9 3.1 17.9 3.6 26.9.2 3.2 1.1 5.8 3.1 8.1h-3c-3.9-7.4-10.1-13.1-15.2-19.6-10-12.5-20.4-24.8-30.6-37.2L1605 29.9c-.6-4.7 2.6-4 5.3-3.6 8.3 1.5 16.6 3.1 24.8 5.1l14.1 3c2.1.6 4 1.3 5.8 2.6z"/><path class="st46" d="M284 29c-1 5.6-6 8.6-8.6 13.1-1.1 1.9-4.1 3.6-3.2 5.7 1 2.3 4.2 1.1 6.4 1.1l43.4.1 1 1c.4.2.5.4.4.7-.1.2-.2.3-.4.3-2.3.9-2.7 2.9-2.8 4.9-.6 14.7-3.2 29.3-3.2 44.1h-7c-6.3-2.4-9.4-8.3-13.4-13-6.9-8.1-13.8-16.1-20.5-24.4-1.4-1.8-3.7-3.7-2.1-6.6l-5-9c-.5-.8-.5-1.6 0-2.3 3.4-4.8 6.8-9.8 10.8-14.1 1.1-1.2 2.2-2.6 4.2-1.6zM3518 49h43.9c2.1 0 5 1.1 5.9-1.1.9-2-1.8-3.6-3-5.3-2.2-3.1-4.6-6.1-7-9.1a6.8 6.8 0 0 1-1.9-4.5c.6-.4 1.3-.6 1.8-.2a40 40 0 0 1 13.2 18.2l-5 9c1.6 2.7-.4 4.6-1.8 6.2-9.5 11.3-18.9 22.7-28.5 33.9-1.6 1.9-3.7 2.7-5.7 3.9h-7c0-14.8-2.6-29.4-3.2-44.1-.1-2-.6-4-2.8-4.9-.4-.2-.5-.4-.4-.7.1-.2.2-.3.4-.3l1.1-1z"/><path class="st47" d="M2838 53l34 6c5.7 2.5 12.1 2.2 18 4l.5.5c.2.5.2.9.2 1.4-.2.5-.4.8-.8 1.2a443.4 443.4 0 0 1-51.8 33.9h-11c4.5-15.5 4.7-31.9 10.9-47zM968 59l34-6c6.2 15.1 6.4 31.5 11 47h-11a451.2 451.2 0 0 1-51.8-33.8 2 2 0 0 1-.8-1.2c-.1-.5 0-1 .2-1.5l.5-.5c5.8-1.8 12.2-1.5 17.9-4z"/><path class="st48" d="M125 0v30.2c0 2 .3 4-1 5.8h-3c-1.2 1.4-2.8 1.8-4.5 2.1-14.1-3.2-28.3-6.1-42.5-9.4-2-.5-3.9-.7-5.9-.1-.5.1-1 .1-1.5-.1L66 28c-.3-3.4 1.7-5.5 4.1-7.4L91 3.3A5 5 0 0 0 93 0h32zM3719 36h-3c-.8-12-.8-24 0-36h31c1.8 4.6 6.3 6.5 9.6 9.6 4.6 4.2 9.6 8 14.4 12 2 1.7 3.2 3.7 3 6.4l-.6.5c-.5.2-1 .2-1.5.1-7.3-.7-13.9 2.3-20.9 3.5-8.8 1.6-17.4 3.9-26.2 5.4-1.9.3-3.5-.4-5-1.3l-.8-.2z"/><path class="st49" d="M2329 46c3.9-1.4 4.6 1 5 4-1.8 1.8-1.9 4.5-1.8 6.4.1 8.1-1.8 15.9-2.4 23.9-.5 6.5-.5 13.3-2.8 19.7h-50c.2-1.6 1.2-2.7 2.3-3.8 13.7-12.3 24.8-27.2 38.7-39.3.9-1.4 2.1-2.6 3-4 1.3-2 3-3.7 5-5l3-1.9zM1506 50c.4-3 1.1-5.4 5-4l3 2c1.3 2 3 3.7 5 5 .9 1.4 2.1 2.6 3 4 11 9.7 20.4 20.8 30.4 31.5 3.6 3.8 8.5 6.4 10.6 11.6h-50c-1.9-2.2-1.3-5.2-1.4-7.6-.6-7.8-1.6-15.6-2.5-23.3-.7-6.4.1-13.2-3.1-19.2z"/><path class="st50" d="M90 96l5 2c-1.6 1.9-4.4.3-6 2H54l9-68.8c.2-1.8.1-3.9 3-3.2 4.1 4.5 5.1 10.5 7.1 15.8 5.5 14.6 10.7 29.3 15.6 44.1.9 2.7 1.5 5.3 1.3 8.1zM3745 98c4.4-.8 6.5-3.6 7.5-7.9 1.1-4.8 3.9-9.1 4.5-14.1-.5-6.3 2.9-11.6 4.6-17.3 2.5-8.8 6.3-17 9.4-25.6.7-1.9 1.5-3.7 3-5 2-.6 2.8.5 2.9 2.2.9 13.2 3.3 26.2 5.1 39.3l4 30.5h-35c-1.6-1.8-4.4-.2-6-2.1z"/><path class="st51" d="M1379 100c2.5-4 6.8-5.7 10.6-8l34.5-21.7c1.6-1 3.1-2 4.9-2.3 5.5 4.8 10.9 9.8 15.4 15.6 3.7 4.8 9 7.9 13 12.3l3.6 4.1h-82zM2411 68c10.1 4.4 18.8 11 28.1 16.8l16.4 10.3c2.1 1.3 4.2 2.7 5.5 5h-82a44 44 0 0 1 9.2-9.1c6.4-4.9 10.5-12 16.6-17.2l6.2-5.8z"/><path class="st52" d="M2333 41c-3.6-.5-2.4-4.1-4-6-2.4-10.2-3.5-20.6-5.5-30.8-.3-1.4-.7-2.9.5-4.2h62c-3.8 5.7-9.8 8.9-15.1 12.8-12.6 9.4-25.4 18.6-37.9 28.2zM1511 35c-1.6 1.9-.4 5.5-4 6l-47.5-35.3A21.3 21.3 0 0 1 1454 0h62c1.2 1.3.8 2.8.5 4.2-2 10.2-3.1 20.6-5.5 30.8z"/><path class="st16" d="M274 56l31.9 38.4c1.5 1.8 2.8 3.7 4.1 5.6h-53c.7-10.5 4.4-20.4 6.5-30.6.8-4 2.2-8 2.8-12.1.3-2.3.8-4.7 3.7-5.3 1 1.7 2.3 3 4 4zM3530 100c7.5-10.6 16.4-20.1 24.7-30 3.8-4.6 7.7-9.2 11.3-14 1.7-1 3-2.3 4-4 2.7.5 3.2 2.7 3.7 4.8l8.5 35.8c.6 2.4.9 4.9.8 7.4h-53z"/><path class="st53" d="M2055 100l7.5-49.8c.4-2.5 1.1-4.9-.5-7.2a4 4 0 0 0 0-4c6-3.7 13.1-4.2 19.7-6.1 3.2-.9 6.4-1.6 9.7-2.2 1.9-.4 4.1-1 5.5.9 1.5 2 .1 3.7-.9 5.4-5.5 10.2-10.9 20.5-16.5 30.7L2062 100h-7zM1778 43c-2.3 6.4.7 12.4 1.5 18.6 1.6 12.8 3.6 25.6 5.5 38.4h-7l-32.2-58.9c-.7-1.3-1.2-2.7-1.8-4.1-1.1-1.7-2.4-3.4-.9-5.4 1.3-1.7 3.2-1.4 5-1 9.5 2.1 19.1 4.1 28.3 7.2.6.2 1.1.7 1.5 1.2-.6 1.3-.6 2.7.1 4z"/><path class="st54" d="M196 43c-6.2-4.7-10-11.8-16.9-15.9-5.1-3-8.3-8.4-12.6-12.6C161.3 9.7 157 4 151 0h57c-1.2 11.4-5.4 22.1-8 33.1-.8 3.3-1.2 6.8-3 9.9h-1zM3689 0c-9.5 6.8-16.1 16.6-24.8 24.1-7 6-13.5 12.6-20.2 18.9h-1a304.6 304.6 0 0 1-11-43h57z"/><path class="st55" d="M938 100h-21a96.5 96.5 0 0 1-28.4-19.7c-.2-.5-.2-1-.1-1.5.4-1 1.3-1.6 2-2.3 1.3-.8 2.7-1.4 4.2-2 1.7-.5 3.5-.6 5.2-.9 5.2-1.2 10.4-2.3 15.4-4 1.6-.5 3.3-.6 4.9-.9 1.2-.1 2.2-.7 3.3-1 1.6-.3 3.1-.5 4.6-1 .4-.2.9-.3 1.4-.3 2.7.2 5-1.3 7.5-1.7 2.9-.5 5.6-1.7 8.5-1.9 1.8.2 3.2 1 4.5 2.2 2.1 1.9 1.5 4.3.8 6.5-2.5 7.7-5.9 15.1-8.3 22.8-.8 2.4-2.3 4.4-4.5 5.7zM2923 100h-21a9.8 9.8 0 0 1-4.7-6.2c-2.2-7.5-5.6-14.5-8-21.9-.7-2.3-1.6-4.8.6-6.9a8 8 0 0 1 4.5-2c2.9.1 5.5 1.5 8.4 1.8 2.6.3 4.9 1.9 7.5 1.7l1.4.2c1.5.5 3 .9 4.6 1.2 1.1.3 2.2.8 3.3.9 1.7.2 3.3.5 4.9.9a80 80 0 0 0 15.3 4c1.7.2 3.5.4 5.2.9 1.4.6 2.8 1.1 4.2 1.9.8.7 1.6 1.2 2.1 2.2.2.5.2 1 0 1.5-6.3 6.6-14 11.4-21.3 16.7-2 1.5-4.8 1.7-7 3.1z"/><path class="st56" d="M3317 68c12.5 3.4 24.5 8.5 36.7 12.7 16.4 5.6 32.6 11.6 48.8 17.5 1.2.4 2.3 1.2 3.5 1.9h-69c-5.1-1.8-7.2-6.6-10.2-10.3-4.3-5.2-8.2-10.7-11.9-16.3-2.2-3.4-1.5-5 2.1-5.5zM434 100c3.7-2.6 8.2-3.5 12.4-5 22.3-8.2 44.7-16.2 67.1-24.2 3.1-1.1 6.4-1.9 9.5-2.8 3.8.5 4.4 2.1 1.9 5.7-4.7 7.1-10 13.9-15.3 20.6a15.8 15.8 0 0 1-6.6 5.7h-69z"/><path class="st57" d="M938 100c3.3-11.9 9-23 12-35a8 8 0 0 1 5.1 1.8c13.3 10.9 28.8 18.6 42.7 28.7 1.7 1.2 3.9 2 4.3 4.5H938zM2890 65c3 12 8.7 23.1 12 35h-64c.3-2.1 2-2.9 3.5-4 14.3-10.1 29.9-18.2 43.5-29.3a8 8 0 0 1 5-1.7z"/><path class="st58" d="M1002 47c-3.4-12-4.4-24.5-7-36.7L993 0h42c-5.1 10.8-11.6 20.8-17.4 31.1L1005 53c-3.5-.7-.9-4.5-3-6zM2847 0l-8 43.7c-.2 1.1-.7 2.2-1 3.3-2.1 1.5.5 5.3-3 6l-21.8-37.7c-2.9-5-5.5-10.2-8.2-15.3h42z"/><path class="st59" d="M1655 37c-6.3 1.4-12.1-1.7-18-2.6-9.2-1.5-18.2-3.7-27.3-5.7-1.8-.4-3.7-1.1-4.6 1.3a4 4 0 0 1-2-3c.2-2.8 1.9-4.2 4.2-5.5 11.1-6.1 22.6-11.4 33.5-17.6 3.9-2.2 8.5-1.6 12.2-3.9h7l-5 37zM2235 30c-.8-2.1-2.4-1.8-4.1-1.5l-37 7.9c-2.9.6-5.9 1.1-8.9.5l-5-37h7c16.7 4.4 30.8 14.3 46.1 21.7a6.7 6.7 0 0 1 3.9 5.3 4 4 0 0 1-2 3.1z"/><path class="st60" d="M479 0c-3.7 8.6-7.4 17.3-11.3 25.8-1.5 3.3-3.3 6.5-3.7 10.2-6.9 0-13.4-2.1-20.1-3.4-9-1.7-17.9-3.7-26.9-5.6-.8-4.4 3.3-5.3 5.6-6.5 10-5.1 19.7-10.6 29.6-15.9 3.5-1.9 7.6-2.2 10.8-4.6h16zM3376 36c-1.8-8.2-6.5-15.1-9.5-22.8-1.7-4.4-4.4-8.5-5.5-13.2h16c7.5 3 14.7 6.5 21.7 10.5 7.2 4.2 15 7.5 22 12.2 1.5 1 3.2 2 2.3 4.3l-40.1 8.2c-2.2.5-4.6.6-6.9.8z"/><path class="st61" d="M527 60c-5.1-2.1-5.7-7.5-8.2-11.4-9.4-14.6-18-29.7-26.9-44.6-.8-1.3-1.2-2.7-1.8-4.1h34c-1.4 5.3 1.8 10 2.3 15 .1 1.5.7 2.9-.3 4.3-2.2 3.1-1.3 6.4-.3 9.5 1.2 3.9 1.8 7.7.5 11.7-1.1 3.7 0 7.2.9 10.7.6 3.1 1.3 6-.2 8.9zM3350 0c-6 12-13.6 23-20.3 34.7-4.2 7.3-8.6 14.5-12.9 21.8-.9 1.6-1.7 3.3-3.8 3.6-.7-1.5-1.4-3.3-.8-4.8 2.9-7.4 1.1-15 1.3-22.5.1-3.9 3.3-7.8 1.3-11.5-2.1-4.1-1.1-7.7.2-11.4a20 20 0 0 0 1-9.7c11.3-.2 22.7-.2 34-.2z"/><path class="st62" d="M3034 94v1c-.2 2.2-1.8 2.8-3.6 3.3s-3.8.5-5.4 1.7h-76c-2.6-2.8-1-6.2-.8-9.1.2-4.1.1-8.7 3.8-11.9 2.9-2.8 6.5-1.4 9.4-.8 21.2 4.1 42.4 8 63.5 12.3 3.2.7 6.4 1.4 9.1 3.5zM806 95v-1c6.3-4 13.7-4.5 20.7-5.9l50.8-9.8c3.4-.6 7.1-2 10.4.6 4.6 6.5 4.8 13.6 3 21h-76c-1.6-1.2-3.6-1.2-5.4-1.7-1.7-.4-3.3-1-3.5-3.2z"/><path class="st63" d="M3571 47c-6.1-5.1-9.4-12.5-15-18-4.3-3.2-6.6-8.2-9.9-12.3-4.3-5.4-9.2-10.3-12.1-16.7h43c1 1 1.8 2 1.6 3.5-1.2 8.8-1.5 17.7-2.3 26.6-.5 5.1-1.9 9.9-2.3 14.9a4 4 0 0 1-3 2zM284 29c-5.5 5.6-9 12.9-15 18a4.2 4.2 0 0 1-3-2c-.4-5-1.8-9.9-2.3-14.9-.8-8.9-1.1-17.8-2.3-26.6C261.2 2 262 1 263 0h43c-6.3 10.4-14.2 19.7-22 29z"/><path class="st64" d="M2169 0a8.3 8.3 0 0 1-5 3.8c-18.6 6.9-36.3 15.9-54.6 23.5-7.7 3.2-8.4 2.9-8.4-5.4-1-.6-2-1.5-1.9-2.7.7-6.7.2-13.6 4.9-19.3l65 .1zM1739 22c0 8.3-.7 8.5-8.4 5.4-18.6-7.7-36.5-17.1-55.5-23.9a7.6 7.6 0 0 1-4.1-3.4h65c4.7 5.6 4.2 12.6 4.9 19.3.1 1.1-.9 2-1.9 2.6z"/><path class="st65" d="M1506 50c1-.7 1.4-2.7 3-2 1.3.5.6 2 .7 3.1.8 7.7 2 15.4 2.5 23.1.4 7.1 1.5 14.2 2.4 21.2.2 1.4-1.1 3.1-1.7 4.6h-35c.4-1.4.5-3 1.2-4.2L1506 50zM2327 100c-3.5-4.8-1.4-10.3-.3-14.7 1.2-4.7.8-9.4 1.4-14 1-7.1 2.5-14.4 2-21.7 0-.5.4-1.5.8-1.6 1.7-.5 2 1.4 3.1 2l26.8 45.8c.7 1.2.8 2.8 1.2 4.2h-35z"/><path class="st66" d="M200 49c4.1 7.9 8.3 15.7 12.2 23.7 4.5 9.2 10.4 17.6 13.8 27.3h-38c3.3-13.2 4.7-26.6 7-40 .5-3.1 1.4-6.1 1.9-9.2.4-1.9 1.2-2.6 3.1-1.8zM3614 100c3.4-9.7 9.3-18.1 13.8-27.3 3.9-8 8.1-15.8 12.2-23.7 2.9-1.2 2.9 1 3.2 2.8l7.8 44.4c.2 1.3.7 2.5 1 3.8h-38z"/><path class="st67" d="M1277 100c2.1-6.1 5.9-11.3 8.9-16.9 1.8-3.3 3.4-6.7 5.1-10.1 2.9-4.1 6.3-2.6 9.5-.5l38.2 26c.5.4.9 1 1.3 1.5h-63zM2549 73c2.9 7.2 7.4 13.5 10.9 20.3 1.1 2.2 2.6 4.2 3.1 6.7h-63c5.6-5.2 12.5-8.7 18.6-13.2 6.4-4.7 13.4-8.5 19.7-13.4 3.3-2.5 7-5.2 10.7-.4z"/><path class="st68" d="M2061 36c-8-11.6-15.5-23.5-22-36h49c1.7 1.8 1.3 3.6.1 5.4l-17.8 28c-.7 1.1-1.5 2.2-2.4 3.1-2.6 2.3-4.9 2.9-6.9-.5zM1801 0c-6.5 12.5-14 24.4-22 36-3 3.1-5 3.1-7.8-.6-3.8-5-6.6-10.6-10.3-15.7-3.1-4.3-5.5-9-8.4-13.4-1.4-2.1-2.5-4-.5-6.2l49-.1z"/><path class="st69" d="M2642 34c-1.1 2.7-2.8 1.5-4.5.7l-56.3-27.5C2577 5.1 2572 4.3 2569 0h50c6 3.1 8.3 9.3 11.8 14.4 3.1 4.5 6.1 9.1 9.5 13.3 1.5 1.9 2.9 3.8 1.7 6.3zM1271 0c-1.6 2.8-4.5 3.8-7.2 5.1l-61.3 29.6c-1.6.8-3.3 2-4.5-.7-1.1-1.9-.2-3.7.9-5 5.9-7.5 10.9-15.8 16.3-23.7 1.5-2.2 3.3-4.1 5.8-5.3h50z"/><path class="st70" d="M1752 0c3.3 7.4 8.1 14 12.5 20.7 3 4.6 5.7 9.3 8.6 13.9 1.8 2.8 3.3 3.5 5.8 1.3l-1 3c-10.4-.4-20.2-3.8-30.2-6.1-4.4-1-5.1.4-3.8 4.1l-2-2-3-13c.1-7.5-2.9-14.5-3-22l16.1.1zM2061 36c1.7 1 3.3 2.6 5-.1l21.4-34c.3-.5.4-1.3.6-1.9h16c-.1 7.5-3.1 14.5-3 22l-3 13-2 2c1.3-3.7.6-5.2-3.8-4.1-10 2.3-19.8 5.7-30.2 6.1l-1-3z"/><path class="st71" d="M2439 0c-2.3 7.6-5.6 14.8-8.7 22l-10.5 25.5c-1.8 4.2-4.1 8.1-5.6 12.5-1.8-20.1-.9-40.1-1.2-60h26zM1427 0c-.2 19.9.6 39.8-.7 61.2-2.4-5.3-4.7-9.3-6-13.7-1.6-5.3-4.4-9.9-6.3-15-4-11-9.6-21.3-13-32.5h26z"/><path class="st72" d="M3840 4c-6.8.1-12.7 3.4-19 5.2-13.7 3.9-27.2 8.5-40.8 12.9-1.4.5-2.9 1.2-4.2-.2-1.2-1.3-.6-2.7-.2-4.2 1.8-5.8 1.4-11.8 2.2-17.7 19.3 0 38.7.1 58-.1 3.4 0 4.8.7 4 4.1zM62 0c.9 6.2.3 12.6 2.5 18.7 1.1 3.1-.8 4.8-4.2 3.5-6.7-2.5-13.6-4.2-20.4-6.3-12-3.7-24-7.7-35.9-11.5C2.7 4 1.3 4.1 0 4-.8.6.6-.1 4-.1 23.3.1 42.7 0 62 0z"/><path class="st73" d="M1182 0h34c1.5 1.5.9 3-.1 4.4-5.5 7.4-9.7 15.7-15.8 22.7-2.1 2.4-2.8 5.6-4.3 8.4-.3.5-.6.8-1.1 1-1.1.2-2-.1-2.9-.7-7.1-9.9-14.9-19.4-22.7-28.9-1.8-2.2-3.4-4.2-1.1-6.9h2c4 4.2 8 1.5 12 0zM2670 0h2c2.3 2.7.7 4.8-1.1 6.9-6.7 7.8-12.9 16-19.2 24.1-1.3 1.4-2.4 3.1-4.1 4.2-1 .5-1.9.6-2.9.1-6.3-10.7-13.9-20.5-20.6-30.9-1-1.5-1.6-2.9-.1-4.5h34c4 1.6 8 4.3 12 .1z"/><path class="st74" d="M3423 27c-13.3-8.3-27.3-15.2-41.1-22.6-2-1.1-4.4-1.7-4.9-4.4h55c2.8 4.8 1.4 11.4-3 14-2.3 4.4-4 8.9-3 14h-1l-2-1zM463 0c-.5 2.8-2.9 3.4-4.9 4.4l-38.7 20.9c-.9.5-1.6 1.1-2.4 1.7l-2 1h-1c1-5.1-.7-9.6-3-14-4.4-2.6-5.8-9.2-3-14h55z"/><path class="st75" d="M1076 30c-5.4-9.6-8.7-20-13-30h34c3.8 1.9 8.9 2.1 9.3 7.9-.3 3-3.1 3.7-4.8 5.4-6.2 5.7-12.6 11.1-18.9 16.8-2.1 1.8-4.4 3.2-6.6-.1zM2777 0c-4.2 10.1-7.7 20.4-13 30-1.5 2.5-3.8 2.2-5.5.8-8.2-7-16.3-14.1-24.3-21.4-.4-.3-.4-.9-.5-1.4.4-5.8 5.5-6.2 9.3-8h34z"/><path class="st76" d="M2237 27c-7.5-5.3-15.8-9-23.9-13-7.4-3.7-14.3-8.4-22.3-10.9A7.2 7.2 0 0 1 2187 0h54c2.4 1.6 3.1 3.7 2.2 6.4-1 3-.7 6.2-1.6 9.2-.4 1.4-.1 3.5-2.6 3.4-2.5 6.2-2.1 7.1 4.2 8.1.9.1 1.8.6 2.8.9h-7l-2-1zM1653 0c-2.1 2.9-5.5 3.4-8.4 4.9-13.3 6.7-26.6 13.6-39.8 20.4-.7.4-1.2 1.1-1.8 1.7l-2 1h-7c.9-.3 1.8-.8 2.8-.9 6.3-1 6.8-1.9 4.2-8.1-1.6.2-2-.9-2.3-2-1.1-4.1-1.3-8.4-2.2-12.6-.5-2.1 1.1-3.3 2.5-4.4h54z"/><path class="st77" d="M2655 93c3.2 3 8.2 3.4 11 7h-2c-8.1-1.8-14.7-6.7-22-10.2-2.8-2.9-6-5.2-9.5-7.2-7.1-4-7.9-7.5-4.7-14.7 3.6-7.9 7.9-15.4 10.4-23.7.8-2.6 3.5-4 4.8-6.3.7-.9.6-3.1 2.8-1.9 2.7 5.5 2.3 11.6 3.6 17.4 2.6 12.2 3.4 24.7 5.5 37 .2 1 .3 1.8.1 2.6zM1174 100c2.8-3.6 7.8-3.9 11-7-.2-.8-.1-1.7.2-2.5 2.1-12.1 3-24.4 5.4-36.5a170 170 0 0 0 2.2-14.3c.2-1.6.7-2.9 2.2-3.7 2-.6 1.1 1.5 2 2 6.3 6.5 7.8 15.5 11.9 23.2 1.5 2.7 2.8 5.6 4.1 8.5 2.6 5.9 1.9 8.8-3.7 12a47 47 0 0 0-11.2 8.1c-7.3 3.4-13.9 8.5-22.1 10.2h-2z"/><path class="st78" d="M576 100l28.9-19.1L626 67c3.5.4 4.7 2.9 2.5 7-2.9 5.6-4.7 11.7-7.4 17.4-1.5 3.3-2.5 6.9-6.2 8.6H576zM3214 67l32.8 21.4L3264 100h-39c-5.5-2.9-6-8.9-8.3-13.7-1.9-4-3.2-8.3-5.4-12.3a7.3 7.3 0 0 1-.2-6.3c.7-1.2 1.7-1.6 2.9-.7z"/><path class="st53" d="M1849 0c.1 20.9-1.7 41.7-.9 62.6l-1.4.3c-.9-2-2.4-4-2.7-6.1-1.9-11-5.8-21.5-8.7-32.2-2.2-8.2-3.7-16.7-7.2-24.5L1849 0zM2012 0c-3.9 6.7-5 14.2-6.6 21.6-.8 3.7-2.5 7.1-3.3 10.8-1.8 8.8-5.1 17.3-6.7 26.2a5.7 5.7 0 0 1-3.4 4.4c.8-21.4-1-42.2-.9-63.1l20.9.1z"/><path class="st79" d="M503 100c5.9-9.7 13.7-17.9 19.9-27.4 1-1.6 3.3-3 .1-4.6 3.6-2.7 5.7-1.5 6.7 2.6.4 1.6 1 3.2 2.3 4.4 1.5 8.7 5.5 16.6 8 25h-37zM3317 68c-3.2 1.6-1 3.1.1 4.6L3337 100h-37c2.5-8.4 6.5-16.3 8-25a8.5 8.5 0 0 0 2.3-4.4c1-4.1 3.1-5.3 6.7-2.6z"/><path class="st52" d="M1176 100l20-12c6.4-4.1 13.9-6.4 19.2-12.3 1.6-1.8 4.8-1.1 7.2-1.5 4.9-.8 9.9-1.3 14.8-2 2-.3 3.6 0 4.8 1.8h7c-9 2.5-18.3 2.5-27.4 4-1.6.3-3.7-.3-4.3 1.6-.5 1.6 1.4 2.4 2.4 3.5 5 5.5 10.5 10.5 14.4 16.9h-35c-5.3-1.5-10.7-4.1-16 0h-7.1zM2644 88l20 12h-7c-5.3-4.1-10.7-1.5-16 0h-35c4.1-6.5 9.5-11.8 14.7-17.2 1.2-1.3 3.7-2.4 1.3-4.8 2.3-.2 3.9 1.6 6 2 5.9 1.5 10.6 5.5 16 8z"/><path class="st21" d="M263 0c2.7 13.7 2.5 27.6 4.2 41.4A4 4 0 0 1 266 45L240 0h23zM3574 45c-2.6-4.9-.7-10-.2-14.8.6-5.5.9-11.1 1.4-16.6.5-4.6 1.2-9.1 1.8-13.6h23l-26 45z"/><path class="st80" d="M1168 0c2.2 7.7 8.9 12.3 13.1 18.6 3.8 5.6 9.3 10 11.9 16.4-2.6 1.2-3.9-.5-5.3-2.3-4.3-5.3-8.8-10.3-12.5-16.1-1.3-2-3.4-3.1-5.1-4.7-2.2-1.5-4.7-1.6-7.2-1.6-15.8-.1-31.6.3-47.4-1.1-3.4-.3-7.1.3-9.7-2.8-1.2-2.1-3.2-4-.8-6.6 21 .2 42 .2 63 .2zM2650 30l18.4-22.9c1.7-2.1 3-4.4 3.6-7.1h63c2.4 2.5.4 4.5-.8 6.5-2.4 3.1-5.9 2.6-9.1 2.8-15.7 1.1-31.4 1.2-47.1 1.1-2.8 0-5.7-.1-8.1 1.7-5.9 4.2-9 10.9-13.8 16.1-1.7 1.8-3 4.1-6.1 3.1-.4-.4-.4-.9 0-1.3z"/><path class="st81" d="M1999 94v1c-2.3 3.8-6.9 2.8-10 5h-27l26.5-26.9c2.5-2.6 4-1.6 4.5 1.7.7 4.4 1.3 8.9 2.1 13.2.5 2.4.1 5.6 3.9 6zM1841 95v-1c3.8-.4 3.4-3.6 3.8-6.1.9-4.4 1.4-8.8 2.1-13.2.5-3.3 2-4.2 4.5-1.7l26.5 26.9h-27c-3-2.1-7.6-1.1-9.9-4.9z"/><path class="st82" d="M3214 67c-3 1.4-1.7 3.6-.7 5.4 4.6 8.9 8 18.3 11.7 27.6h-27l13-35c1.3.2 2.3.9 3 2zM615 100c3.8-9.3 7.1-18.7 11.8-27.6 1-1.8 2.3-4-.8-5.4a4.2 4.2 0 0 1 3-2l13 35h-27z"/><path class="st83" d="M3429 14l3-14h34c-4.1 5.8-11.1 7.7-16.6 11.6-5.8 4.1-12.1 7.4-18.3 11-1.1.6-2.2 2.2-3.5 1-1.2-1 0-2.5.2-3.7l1.2-5.9zM408 0l3 14 1.1 5.8c.2 1.3 1.4 2.7.2 3.7-1.3 1.2-2.4-.4-3.5-1l-25-15.2c-3.5-2.1-7.6-3.5-9.9-7.4L408 0z"/><path class="st84" d="M2952 80c-.4 4.3-1.2 8.6-1.2 12.9 0 2.6-1.5 4.7-1.8 7.1h-26c7.6-7.4 17.1-12.4 25.2-19.3.7-.6 1.9-.5 2.8-.8.3-.3.7-.3 1 .1zM891 100c-2.6-6.4-1.7-13.4-3-20 .3-.4.7-.3 1 0 1 .2 2.1.2 2.8.8 8.1 6.8 17.6 11.8 25.2 19.3l-26-.1z"/><path class="st85" d="M2239 19c-.2-6.4 3-12.5 2-19h23a17.8 17.8 0 0 1-6.5 7.9c-5.1 3.9-9.8 8.4-14.6 12.7-2.7 2.5-3.9 2.2-3.9-1.6zM1599 0c-1.5 4.2 1.4 8 1.2 12.2-.1 2.3.5 4.6.8 6.8-.3 1.6.1 4.8-2.7 2.5-7.2-6-14.1-12.5-21-18.9-.7-.6-.9-1.7-1.3-2.6h23z"/><path class="st86" d="M2645 36l-2 2c0-1.4 0-2.8-1-4l-23-34h5c5.6 8.6 10.2 17.9 17.2 25.5 2.7 2.9 2.8 6.3 3.8 9.5.2.2.3.4.2.7l-.2.3zM1197 38l-2-2c.8-10 9.4-15.7 13.5-23.8 2.1-4.2 5-8.1 7.5-12.2h5l-23 34c-1 1.2-1 2.6-1 4z"/><path class="st87" d="M700 8c-6.3.2-9.9-4.3-14-8h18c3.7 5.2-1.8 5.8-4 8zM3154 0c-4.1 3.7-7.7 8.2-14 8-2.2-2.2-7.7-2.8-4-8h18z"/><path class="st11" d="M3136 0c-.1 3.4 2.3 5.5 4 8h-2c-6.4-2-12.7-4.1-19.1-6a8.6 8.6 0 0 1-3.9-2h21zM700 8c1.7-2.5 4.1-4.6 4-8h21c-6.4 2.9-13 5-19.8 6.9L702 8h-2z"/><path class="st88" d="M806 95c3.3 1.1 6.7 2.1 9 5h-23c4.1-3.2 9.1-3.9 14-5zM3025 100c2.3-2.8 5.7-3.9 9-5 4.9 1.1 9.9 1.8 14 5h-23z"/><path class="st89" d="M1841 95c4.4-.5 7.3 2.1 10 5h-19c2.2-3.2 6.1-3.1 9-5zM1989 100c2.7-2.9 5.6-5.5 10-5 2.9 1.9 6.8 1.8 9 5h-19z"/><path class="st90" d="M0 90c4.5 1.9 6.5 6.2 9 10-3 0-8.1 1-8.6-.2C-.9 97.1 0 93.3 0 90zM3831 100c2.5-3.8 4.5-8.1 9-10v1c0 3 1.2 7.2-.3 8.7-1.5 1.5-5.7.3-8.7.3z"/><path class="st91" d="M3027 0a32.3 32.3 0 0 1-12.1 3.8c-3.1.5-6 0-6.9-3.8h19zM832 0c-.9 3.8-3.7 4.4-6.9 3.8-4.2-.7-8.4-1.6-12.1-3.8h19z"/><path class="st92" d="M1183 100c3.2-5.4 4.8-6.1 10.1-3.4 2 1 4.5 1.2 5.9 3.4h-16zM2641 100c2.4-2.8 5.9-3.8 9.1-4.8 3.4-1.1 5.6 1.7 6.9 4.8h-16z"/><path class="st93" d="M2670 0c-1.3 6.2-1.8 6.4-7.4 3.6-1.8-.9-3.7-1.6-4.6-3.6h12zM1182 0c-1.6 2.9-4.7 3.9-7.3 4.9-4.4 1.6-4.1-2.3-4.7-4.9h12z"/><path class="st12" d="M1511 35l4.4-28.6c.3-2.1.4-4.3.6-6.4h2c-2.9 12.2-3.6 24.9-7 37v-2zM2324 0c.6 10 2.9 19.7 4.4 29.6l.6 5.4v2c-2.5-8.6-3.3-17.5-4.9-26.3L2322 0h2z"/><path class="st16" d="M3716 0v36c-1.4-2.1-1-4.5-1-6.7V0h1z"/><path class="st94" d="M1105 0l1 6c.6.6.7 1.2.3 2-.4.3-.8.3-1.3 0-.7-4.6-6.2-4.4-8-8h8zM2734 6l1-6h8c-1.8 3.6-7.3 3.4-8 8a1 1 0 0 1-1.3 0c-.4-.8-.3-1.4.3-2z"/><path class="st95" d="M3745 98c2.2.1 4.5-.3 6 2h-8l2-2zM89 100c1.5-2.3 3.8-2 6-2l2 2h-8z"/><path class="st96" d="M2734 6v2c.1 1.4-.1 2.7-1.1 3.7a311 311 0 0 0-13.5 14.6c-8.2 9.3-17 18.1-25.4 27.2-8.6 9.4-17.3 18.7-26.2 27.8-2.5 1.9-5.1 3.6-7.1 6l-.9.9c-.8.8-1.5 1.5-.7 2.7a6.4 6.4 0 0 1-4 2l-1-1c-1.6-5.2-1-10.6-.1-15.7 3.2-18.7 6-37.4 9.7-56 .7-3.3 2.6-6.1 3.4-9.3 1.5-2.8 4.1-3 6.9-3h23.9c10.6-.2 21.2-.6 31.8-1 1.4 0 2.9-.6 4.3-.9z"/><path class="st97" d="M2666 80c8.3-8.8 16.9-17.2 24.6-26.4 7-8.4 15.1-15.8 22.3-24C2719.5 22 2725.7 14 2734 8h1c8.3 5.5 15.1 12.8 22.6 19.2 1.9 1.6 3.3 3.9 6.3 2.8l1 5h-1c-1.2-1.9-2.5-1.5-4.2-.6l-41.8 23.2c-11.9 6.5-23.9 12.8-35.7 19.6-7 4.1-14.2 8-21.3 11.8-2.2.8-2.8.1-2-2 2.8-2 5.1-4.3 7.1-7z"/><path class="st98" d="M2659 87c.3 1.1.9 1.7 2 2l-2 2c-5.2-1.3-1.1-2.7 0-4z"/><path class="st96" d="M1106 8V6c1.7.8 3.5.9 5.3 1 18.1.8 36.2 1.2 54.3 1 2.9 0 5.7 0 7.4 3 4.5 10.3 5.6 21.4 7.4 32.4 1.7 10.3 3.7 20.6 5.3 31 .9 5.9 1.8 11.8.2 17.7l-1 1a7.6 7.6 0 0 1-4-2c.9-1.2.2-1.9-.7-2.7l-.9-.9a45.1 45.1 0 0 0-7.1-6c-8.2-8.7-16.8-17-24.5-26.1-6.9-8.1-14.9-15.1-21.7-23.3a313.1 313.1 0 0 0-17.5-18.9c-1.4-1.6-2.8-2.9-2.5-5.2z"/><path class="st97" d="M1106 8c3.4 2.1 6 5.2 8.7 8.1l33.5 36.5c8.5 9.2 17.2 18.3 25.8 27.4 2 2.7 4.3 5 7 7 .8 2.1.2 2.8-2 2-15.6-8.7-31.1-17.8-47-26.1-17.1-8.9-33.8-18.7-50.8-27.8-1.6-.9-3.4-2.7-5.2-.1h-1l1-5c2.8 1 4.3-.9 6-2.5 6.3-5.6 12.5-11.3 18.9-16.8 1.2-1.1 2.7-1.8 4.1-2.7h1z"/><path class="st98" d="M1179 89c1.1-.3 1.7-.9 2-2 1.1 1.3 5.2 2.7 0 4l-2-2z"/><path class="st86" d="M2644 88c-5.8-1.8-10.8-5.1-16-8-2.1-3.5-5.8-3.5-9.2-4l-65.8-8.3c-.3 0-.5-.4-1.6-1.2 31-9.4 61-20.1 91.7-28.6-.3 4.9-3.1 9-4.8 13.4-2.6 6.6-6 12.9-9 19.4-2.7 5.8-2.1 6.9 3.6 10.2 3.7 2.2 8 3.8 11.1 7.1zM1242 74l-24.5 3.1c-3.4.4-5.7 3.2-8.6 4.7-4.2 2.2-8.3 4.8-12.9 6.2 3.1-3.4 7.4-4.9 11.3-7.1 5.8-3.4 6.2-4.5 3.4-10.6l-13-28.4c-.5-1.2-.4-2.6-.6-3.9 30.7 8.4 60.6 19.2 91.1 28.3l-.1 1.3c-6.3.8-12.6 1.5-18.9 2.5-9.2 1.3-18.3 1.7-27.2 3.9z"/><path class="st74" d="M3426 28c6.2 0 12 2.3 18 3.6 21.5 4.8 43 10 64.5 15.1 2.7.6 5.7.7 7.5 3.3-.4.8-.9 1.5-2 1-1-2.5-3.3-2.5-5.4-3l-65.4-15.4c-5.8-1.3-11.7-2.1-17.2-4.6z"/><path class="st42" d="M3514 51l2-1h1v1l-7 3c.9-1.6 2.5-2.2 4-3z"/><path class="st74" d="M324 50c1.2-1.9 3.2-2.3 5.1-2.8l80.4-18.8c1.4-.3 3-.3 4.4-.4-9.7 4-20.2 5.4-30.3 7.9-18 4.4-36.2 8.4-54.3 12.6-1.5.3-2.9.9-3.4 2.6-1 .4-1.5-.3-1.9-1.1z"/><path class="st42" d="M324 50l2 1c1.5.8 3.1 1.4 4 3l-7-3v-1h1z"/><path class="st99" d="M700 10c4.1 1.1 5.7 5 8.1 7.8 14.1 16.1 28 32.5 41.9 48.7 1.5 1.8 2.2 3.2-1 3.5-1.6-.9-3.4-1.1-5-2-7.8-2.8-15.6-5.4-23.3-8.3-10.2-3.8-20.4-7.9-30.7-11.5-2.3-.8-4-1.5-4-4.2l14-34zM3091 70c-3.3-.3-2.5-1.7-1-3.5l24-28 22.1-25.7c1.1-1.3 2.2-2.5 3.9-2.8l14 34c-.1 2.3-1.3 3.3-3.5 4.1-10.6 3.8-20.9 8.3-31.6 11.7-7.7 2.5-14.9 6.4-22.9 8.2-1.6.9-3.4 1.1-5 2z"/><path class="st19" d="M1522 57c-1.6-.9-2.7-2.1-3-4 1.6.9 2.7 2.1 3 4zM2321 53c-.3 1.9-1.4 3.1-3 4 .3-1.9 1.4-3.1 3-4z"/><path class="st100" d="M763 76l-7-4c1.6-5.3 6.7-8 10.4-11 7.6-6.1 14.3-13.4 22.2-19.1 7.9-5.7 14.2-13.3 21.8-19.3 5-3.9 9.3-8.8 14.2-12.9 1.9-1.6 3.7-3.3 6.3-3.8-2 12.5-6.5 24.4-9.7 36.5-3.9 14.8-8.1 29.5-12.4 44.2-.7 2.3-1.4 4.5-3.6 5.8-2.3.4-4.2-.7-6.3-1.5-10.3-3.2-19.7-8.3-29.7-12.3L763 76zM3004 6c-8.3-.4-16.7 1.2-25 0 4.6-2.2 9.5-.1 14.2-.9 3.9-.7 8 .2 11.9-.8 1.7-.4 3.4.2 4.7 1.3 5.2 4.2 10.9 7.9 15.5 13 2.8 3.1 6.1 5.6 9.2 8.4 11.7 10.4 23.3 21 35.3 31 3.5 2.9 6.6 6.4 10.5 9 1.8 1.2 3.4 2.7 3.8 5.1l-7 4c-12.1 4.7-23.6 11-36 15-2 .8-3.9 1.9-6.2 1.6-2.4-1.4-3.1-3.8-3.8-6.2-5.2-18.4-10.5-36.7-15.5-55.2-1.8-6.9-4.7-13.5-5.6-20.6-.5-3.8-3.2-4.2-6-4.7z"/><path class="st101" d="M3724 35c14.4-2.4 28.6-5.8 42.9-9.1 2.5-.6 5.4-2.3 6.2 2.1 0 5.7-3.2 10.6-4.8 15.8a446.6 446.6 0 0 1-11.2 31.2c-3.1 5.6-4.3 11.8-6.9 17.6-.5 1-.4 2.5-1.9 2.6-1.5.1-1.8-1.4-2.3-2.3l-23.9-43.7-5.1-9.1c-.1-1.7.9-2.9 2-4 1.5-1.3 3.5.1 5-1.1z"/><path class="st21" d="M116 36h5c1.1 1.1 2.1 2.3 2 4a6070 6070 0 0 0-29.1 53.3C93 94.9 92 96 90 95c-.8-1.8-1.7-3.6-1.6-5.7 6.8-4.3 8.2-12.1 12.1-18.3 3-4.7 5.7-9.5 8.3-14.5 2.2-4.2 4-8.6 7.4-12.1 2.5-2.7-.9-5.6-.2-8.4z"/><path class="st102" d="M2940 76a62.6 62.6 0 0 1-16-4c-1.5-1.2-3.5.2-5-1l-3-1c-1.5-1.2-3.5.2-5-1-2.6-1.1-5.4-1.2-8-2-2.8-.1-5.5-.6-8-2-1.5-1.2-4 .4-5-2 16.7-18.6 34.1-36.6 52-54 3.5.4 3.7 3.5 4.4 5.9 1.8 6.9 2.1 14.1 2.8 21.1 1.2 11.5 2.7 23 3.7 34.5.3 3.1 1.2 7-3.9 7.5-1.4 0-2.8 0-4-1-1.5-1.2-3.5.2-5-1z"/><path class="st103" d="M2949 78c2.2-1.5 2-3.6 1.8-5.8-2-17.3-3.7-34.7-5.9-51.9-.5-3.8.4-8.1-2.9-11.3V8c2.3.4 3.6 2.3 5.2 3.7 14.2 13 27.3 27.1 40.4 41.3 1.3 1.5 3 2.7 4.4 4 .5.6.8 1.3.8 2.1-.2 2.3-1.8 3.5-3.6 4.3-9.8 4.4-19.5 8.8-29.1 13.7-2.9 1.5-6.3.3-9.1 1.9l-2-1z"/><path class="st102" d="M924 70l-3 1c-1.5 1.2-3.5-.2-5 1l-16 4c-1.5 1.2-3.5-.2-5 1l-4 1c-4.4-.3-4.2-3.6-4-6.5.8-8.7 1.9-17.4 2.8-26.2.9-8.7 1.6-17.5 3-26.1.6-3.8.2-8.5 5.2-10.2 9.7 8.1 17.6 18 26.4 26.9 8.7 8.8 17.8 17.3 25.6 27.1-1 2.4-3.5.8-5 2l-8 2c-2.6.8-5.4.9-8 2-1.5 1.2-3.5-.2-5 1z"/><path class="st103" d="M898 9c-3.1 2.2-2.2 5.9-2.5 8.8-2.3 18.4-4.3 36.9-6.3 55.4-.2 1.9.1 3.7 1.9 4.8l-2 1c-11.4-1.2-20.5-8.1-30.8-12.2-2.3-.9-4.5-2.1-6.9-2.8-2.3-.7-4.2-2-4.3-4.8.2-.8.5-1.5 1-2.1 7.8-6.1 13.6-14.1 20.4-21.2 8.7-9.2 18-17.7 27-26.5.7-.7 1.8-.9 2.6-1.3l-.1.9z"/><path class="st58" d="M2951 79l22.7-11.1L2992 59c2.5-1.5 4.6-1 6.7 1 11.3 10.6 23.7 20 34.6 31.1.4.5 1.2.6 1.7 1l6-1c-2 1.9-4.5 2.3-7 3-10.6-.7-20.9-3.5-31.3-5.4-15-2.7-29.9-5.8-44.9-8.7-2-.4-3.9-1-5.8.1h-1V79z"/><path class="st25" d="M3091 70c1.4-1.4 3.1-2 5-2a6.8 6.8 0 0 1-5 2z"/><path class="st58" d="M848 59c5.6 4.2 12.4 5.8 18.5 8.9 7.4 3.9 15 7.4 22.5 11v1h-1c-1.9-1.1-3.8-.5-5.8-.1l-69.3 13.4c-2.3.4-4.6.5-6.9.8-2.5-.7-5-1.1-7-3l6 1c5.6-4.6 10.9-9.5 16.3-14.3 6.7-5.9 13.6-11.5 20-17.8 2.1-1.9 4.2-2.4 6.7-.9z"/><path class="st25" d="M744 68c1.9 0 3.6.6 5 2-1.9 0-3.6-.6-5-2z"/><path class="st0" d="M3757 75c1.3-4.3 2.5-8.6 3.9-12.8L3773 28h1c-2.2 10.2-6.5 19.7-9.9 29.5-2.2 6.2-3.6 12.7-7.1 18.5v-1zM89 89l1 6v1c-3.7-7.8-6.2-16.1-9-24.2C75.9 57.2 69.9 43 66 28h1c2.7.3 3.5 2.4 4.1 4.4 5.7 17.4 12.3 34.5 18.1 51.8.6 1.7.6 3.2-.2 4.8z"/><path class="st33" d="M1069 41c.4-2.4 2.1-3.8 4-5-.4 2.4-2.1 3.8-4 5z"/><path class="st29" d="M2422 63c-3.1 3-7.2 3.1-11 4 2.3-5 7.6-2 11-4z"/><path class="st104" d="M848 59c-6.1 1.3-9.1 6.8-13.6 10.3-8.7 6.9-16.8 14.5-25.1 21.8-1.3 1.1-2.6 2.2-4.3.9l20.9-74.3c1.2-4.1 1.7-8.5 5.1-11.7h4.2c-3.2 1.8-3.5 3.7-2.6 6 4.5 12.9 8.4 26.1 12 39.3.5 1.9-.1 5.3 3.5 5.7l-.1 2zM3035 92c-1.5.8-2.8.6-4.1-.6l-32.7-28.8c-1.8-1.6-3.3-3.8-6.2-3.7v-2c3.4-1 3.1-4.3 3.8-6.6 3.5-12.8 7.1-25.5 11.6-38 1.3-3.7-.5-5.2-3.3-6.4 5-.4 7.6 2.2 8.9 6.8l20 71.5 2 7.8z"/><path class="st22" d="M2890 63l5 2h-5v-2zM945 65l5-2v2h-5z"/><path class="st101" d="M89 89a700 700 0 0 1-16.7-45.9L67 28c.2-2.3 1.5-3.3 3.7-2.8l44.4 10.2.8.5c4.4 2.5 5.7 5.4 2.3 9.5a46.9 46.9 0 0 0-7.8 13.4c-2.2 6-6.8 10.3-9.1 16.2-1.4 3.7-3.5 7.4-5.3 11-1.3 3-3.8 4.3-7 3z"/><path class="st16" d="M3724 35c-1.5 1.2-3.3 1-5 1 1.5-1.2 3.3-1 5-1z"/><path class="st103" d="M929 69a12 12 0 0 1 8-2 17.2 17.2 0 0 1-8 2zM916 72c1.5-1.2 3.3-1 5-1-1.5 1.2-3.3 1-5 1zM895 77c1.5-1.2 3.3-1 5-1-1.5 1.2-3.3 1-5 1zM924 70c1.5-1.2 3.3-1 5-1-1.5 1.2-3.3 1-5 1zM2903 67a12 12 0 0 1 8 2c-2.8-.1-5.5-.6-8-2zM2919 71c1.7 0 3.5-.2 5 1-1.7 0-3.5.2-5-1zM2940 76c1.7 0 3.5-.2 5 1-1.7 0-3.5.2-5-1zM2911 69c1.7 0 3.5-.2 5 1-1.7 0-3.5.2-5-1z"/><path class="st105" d="M1186 92c-1.8-11.6-3.5-23.2-5.5-34.7-2-12.1-4.3-24.1-6.5-36.1-.6-3.4-1.9-6.7-1-10.2 7 7.7 12.6 16.6 20 24l2 1c-.5 15.6-4.4 30.7-6.6 46-.4 3.4 0 7.1-2.4 10zM2667 11c1 7.8-2.6 14.9-3.4 22.4-1.3 13.2-4.9 26-6.3 39.1-.7 6.5-3.2 12.8-3.3 19.5-3.2-6.9-3.1-14.4-4.3-21.7-1.8-11.4-4.8-22.6-4.7-34.3v-1l2-1c.9-1.1 1.6-2.4 3-3 6.6-5.9 11-13.6 17-20z"/><path class="st77" d="M2650 31l-3 3c.3-1.9 1.4-3.1 3-4v1z"/><path class="st98" d="M2666 80a10.9 10.9 0 0 1-7 7 31 31 0 0 1 7-7zM1181 87a10.9 10.9 0 0 1-7-7 31 31 0 0 1 7 7z"/></svg>