<?xml version="1.0" encoding="utf-8"?>
<!-- Generator: Adobe Illustrator 22.1.0, SVG Export Plug-In . SVG Version: 6.00 Build 0)  -->
<svg version="1.1" id="Layer_1" xmlns="http://www.w3.org/2000/svg" xmlns:xlink="http://www.w3.org/1999/xlink" x="0px" y="0px"
	 viewBox="0 0 3840.4 99.7" preserveAspectRatio="xMinYMid" style="enable-background:new 0 0 3840.4 99.7;" xml:space="preserve">
<style type="text/css">
	.st0{fill:#541D82;}
	.st1{fill:#9046C2;}
	.st2{fill:#8741C2;}
	.st3{fill:#9347D0;}
	.st4{fill:#7922B1;}
	.st5{fill:#821DC3;}
	.st6{fill:#8228BE;}
	.st7{fill:#7827A4;}
	.st8{fill:#7935A4;}
	.st9{fill:#7822A6;}
	.st10{fill:#7F24C2;}
	.st11{fill:#8322D0;}
	.st12{fill:#7127A1;}
	.st13{fill:#7C30AF;}
	.st14{fill:#6C2499;}
	.st15{fill:#9127DB;}
	.st16{fill:#5E1D87;}
	.st17{fill:#6C1DA1;}
	.st18{fill:#823CB8;}
	.st19{fill:#7828A3;}
	.st20{fill:#681D97;}
	.st21{fill:#5E1D90;}
	.st22{fill:#9E38E8;}
	.st23{fill:#8327D0;}
	.st24{fill:#7B1DB8;}
	.st25{fill:#8727D8;}
	.st26{fill:#641D93;}
	.st27{fill:#642493;}
	.st28{fill:#791DBB;}
	.st29{fill:#70279E;}
	.st30{fill:#682495;}
	.st31{fill:#7D3BAF;}
	.st32{fill:#852ED0;}
	.st33{fill:#9335DB;}
	.st34{fill:#9538E2;}
	.st35{fill:#A03BF3;}
	.st36{fill:#7027A0;}
	.st37{fill:#682795;}
	.st38{fill:#833DB8;}
	.st39{fill:#7E38B1;}
	.st40{fill:#7B1DBB;}
	.st41{fill:#972EE5;}
	.st42{fill:#6C1D9E;}
	.st43{fill:#7C3BA6;}
	.st44{fill:#682797;}
	.st45{fill:#823BB4;}
	.st46{fill:#681D99;}
	.st47{fill:#993BE2;}
	.st48{fill:#5E1D85;}
	.st49{fill:#6C2795;}
	.st50{fill:#501D7D;}
	.st51{fill:#622790;}
	.st52{fill:#6D279B;}
	.st53{fill:#853DC1;}
	.st54{fill:#591D86;}
	.st55{fill:#9738E2;}
	.st56{fill:#681D9E;}
	.st57{fill:#973BE2;}
	.st58{fill:#9330DF;}
	.st59{fill:#7D35AF;}
	.st60{fill:#791DB0;}
	.st61{fill:#791DB8;}
	.st62{fill:#872ED1;}
	.st63{fill:#5E1D93;}
	.st64{fill:#7D38B0;}
	.st65{fill:#682793;}
	.st66{fill:#541D7F;}
	.st67{fill:#5E2284;}
	.st68{fill:#823BB8;}
	.st69{fill:#7024A1;}
	.st70{fill:#823CBB;}
	.st71{fill:#6C279B;}
	.st72{fill:#501D82;}
	.st73{fill:#7927AF;}
	.st74{fill:#701DA4;}
	.st75{fill:#8728D0;}
	.st76{fill:#792EA4;}
	.st77{fill:#7B27B1;}
	.st78{fill:#711DAF;}
	.st79{fill:#6C1DA0;}
	.st80{fill:#7D27BC;}
	.st81{fill:#8341B8;}
	.st82{fill:#781DAF;}
	.st83{fill:#681DA0;}
	.st84{fill:#9030D3;}
	.st85{fill:#7127A0;}
	.st86{fill:#7827AF;}
	.st87{fill:#7D1DC2;}
	.st88{fill:#7C27BB;}
	.st89{fill:#7A3CA5;}
	.st90{fill:#461D6D;}
	.st91{fill:#8827D4;}
	.st92{fill:#632492;}
	.st93{fill:#7124A5;}
	.st94{fill:#8428C6;}
	.st95{fill:#481D72;}
	.st96{fill:#832EC2;}
	.st97{fill:#8730D0;}
	.st98{fill:#8731CA;}
	.st99{fill:#9027D8;}
	.st100{fill:#952EE2;}
	.st101{fill:#5E1D91;}
	.st102{fill:#A13BF5;}
	.st103{fill:#A038E8;}
	.st104{fill:#9930E5;}
	.st105{fill:#8228C1;}
</style>
<g>
	<path class="st0" d="M54,100c-15,0-30,0-45,0c-4.7-1.8-6.9-5.9-9-10C0,61.3,0,32.7,0,4c4.3-4.5,8.7-0.7,12.5,0.5
		c15,4.7,30,9.4,45.2,13.9c3,0.9,3.6,0.1,3.3-2.6c-0.4-3.1,0-6.3-0.8-9.4C59.5,3.9,59.9,1.6,62,0c10.3,0,20.7,0,31,0
		c1.7,2,0.8,3.9-0.8,5.2C85.1,11,78.6,17.7,70.8,22.7c-2.6,1.6-2.4,4.6-4.4,6.4c-2.9,3.2-1.4,7.3-1.8,10.9
		c-2.2,18.5-5.3,36.8-7.4,55.2C57,97.4,55.4,98.6,54,100z"/>
	<path class="st0" d="M3831,100c-15,0-30,0-45,0c-2.3-1.7-3.1-4-3.4-6.8c-2-15.3-3.9-30.6-6.3-45.9c-0.7-4.8-1.1-9.6-1.2-14.4
		c0-1.6-0.1-3-1.5-4c-3.5-7.8-11.5-10.8-17.2-16.4c-2.6-2.5-5.2-5-8.2-7.1c-1.8-1.3-3-3.2-1.2-5.5c10.3,0,20.7,0,31,0
		c2.1,1.6,2.5,3.9,1.9,6.3c-0.7,3.1-0.4,6.3-0.8,9.4c-0.3,2.7,0.2,3.4,3.3,2.7c6-1.4,11.8-3.5,17.7-5.3c11.3-3.4,22.5-7,33.7-10.5
		c2.5-0.8,4.5-0.7,6.3,1.4c0,28.7,0,57.3,0,86C3837.9,94.1,3835.7,98.2,3831,100z"/>
	<path class="st1" d="M1960,100c-26.7,0-53.3,0-80,0c-2.9-1.3-5.4-3.2-7.6-5.5c-7.7-8-15.8-15.6-23.5-23.6c-2.1-2.2-3.2-3.9,0.2-5.8
		c1,0,2,0.4,2.9-0.2c9-5.6,19.4-7.8,29-11.9c10.8-4.6,22-8.5,32.9-13c4-1.7,8.2-1.7,12.2,0c13.4,5.8,27.3,10.4,40.8,16.1
		c6.9,2.9,14.4,4.3,20.7,8.6c1,0.7,2.3,0,3.4,0.2c3,1.5,2.6,3.4,0.6,5.5c-8.5,8.6-17.2,17.1-25.7,25.7
		C1964.1,97.9,1962,98.8,1960,100z"/>
	<path class="st2" d="M1960,100c9.7-9.9,19.5-19.8,29.2-29.7c1.2-1.2,3.5-2,1.8-4.3c-2.6,0.7-3.9-1.2-5.1-2.9
		c-12.8-17.8-25.6-35.6-37.9-53.7c-0.9-1.4-2-2.6-3-4c-1.3-1.8-1.7-3.6,0-5.4c15.3,0,30.7,0,46,0c1.7,1.3,2.3,3.2,2.3,5.3
		c0.3,16.4,1.9,32.9,0.6,49.3c0.4-6.2,2.8-12,4.4-18c2.4-9.3,5.2-18.4,7.5-27.7c1-3.9,2.1-7.3,6.2-8.9c9,0,18,0,27,0
		c6.2,3.7,8.3,10.5,12,16.1c4.1,6.2,7.8,12.7,11.9,18.9c0.6,1.1,0.4,2.5,0.8,3.7c0.8,1.8,0.9,3.5-0.5,5
		c-10.5,11.2-23.2,19.7-34.8,29.6c-7.1,6-14.8,11.3-21.7,17.5c-2.2,2-4.7,3.7-7.6,4.6c-4.3,0.7-5.5-2.3-6.1-5.6
		c-0.6-3.1-1-6.2-1.4-9.3c-0.2-1.5-0.1-3.3-1.6-3.9c-1.9-0.8-2.9,1.2-4,2.2c-4.7,4.6-9.4,9.3-14,14.1c-2.9,3-6,5.6-10,7.1
		C1961.3,100,1960.7,100,1960,100z"/>
	<path class="st2" d="M1849,66c-1.7,2.4,0.6,3.1,1.8,4.3c9.7,9.9,19.5,19.8,29.2,29.7c-0.7,0-1.3,0-2,0c-5.4-1.9-9-6.2-12.8-10
		c-3.8-3.7-7.5-7.6-11.3-11.3c-1-1-2-2.7-3.6-2.2c-1.9,0.6-1.7,2.7-1.9,4.3c-0.4,3-0.8,5.9-1.4,8.9c-0.6,3.2-1.6,6.4-6,5.8
		c-7.4-2.5-12.1-8.6-18-13.1c-14.2-10.9-28-22.4-41.9-33.7c-1.7-1.4-2.5-3.5-4.3-4.8c-1.5-1.5-1.3-3.2-0.5-5
		c0.4-1.2,0.2-2.5,0.8-3.7c6.6-9.2,11.8-19.2,17.9-28.6c1.7-2.6,3.4-4.8,6-6.3c9,0,18,0,27,0c2.4,1.3,4.7,2.9,5.1,5.7
		c0.8,5.4,3,10.5,4.2,15.8c1.2,5.1,2.7,10.2,4.1,15.2c1.7,5.9,3.8,11.6,4.5,15.6c-1.1-14.1,0.5-30.3,0.8-46.5c0-2.2,0.4-4.3,2.3-5.7
		c15.3,0,30.7,0,46,0c2.1,2.3,0.9,4.2-0.5,6.2c-11.1,16.2-22.8,31.9-34,48.1c-2.2,3.1-4.2,6.4-6.9,9.1
		C1852.3,64.8,1851,66.1,1849,66z"/>
	<path class="st3" d="M1849,66c14.4-20.3,28.9-40.5,43.3-60.7c1.2-1.6,2.3-3.2,2.7-5.3c16.7,0,33.3,0,50,0
		c2.4,6.1,6.6,11.1,10.3,16.3c11.7,15.9,22.8,32.2,34.2,48.4c0.4,0.5,1,0.9,1.5,1.3c-1.3,2.7-3.2,1.1-4.7,0.5
		c-20.3-7.9-40.5-16-60.8-24c-3.6-1.4-7.1-1.6-10.7-0.2c-20.2,8-40.5,16-60.8,24C1852.5,66.9,1850.5,68.9,1849,66z"/>
	<path class="st4" d="M3413,100c-2.3,0-4.7,0-7,0c-30.7-6.7-59.2-20-88.8-30c-2.5-1.3-4.1-0.8-5.1,2.1c-0.7,2.1-1.9,4.5-5,2.6
		c-2.2-3.5,0.6-6.1,1.6-9c0.7-1.1,1.6-2.1,2.7-2.9c6.4-2,12-5.6,18.1-8.3c15.4-6.7,30.7-13.4,46.1-20c14.3-3.1,28.6-6.5,43.1-8.7
		c1.8-0.3,3.6-0.5,5.4,0c1,0.6,1.8,1.3,2.2,2.4c1.4,3.8,0.6,7.7-0.3,11.3c-2.9,11.6-3.2,23.6-5.7,35.3c-1.3,6.3-2.7,12.6-3.4,19.1
		C3416.7,96.5,3415,98.4,3413,100z"/>
	<path class="st4" d="M434,100c-2.3,0-4.7,0-7,0c-2.5-1.9-3.8-4.4-4.2-7.6c-2.2-15.4-5.4-30.6-7.3-46.1c-0.6-5.2-2.6-10.3-2.4-15.6
		c0-0.8,0.4-1.6,0.6-2.4c0.4-1.1,1.2-1.9,2.2-2.4c1.8-0.7,3.6-0.4,5.4-0.1c14.5,2.2,28.8,5.6,43.1,8.8c17.9,7.6,35.6,15.4,53.4,23.2
		c3.6,1.6,6.6,4.5,10.7,5.1c1.1,0.7,1.9,1.8,2.7,2.9c1,2.9,3.8,5.4,1.8,8.9c-3.3,2-4.5-0.5-5.2-2.8c-1-2.9-2.7-2.9-4.9-1.8
		c-15.6,6.2-31.5,11.3-47.1,17.2c-6.2,2.3-12.6,4.2-18.7,6.9C449.6,97.1,441.8,98.4,434,100z"/>
	<path class="st5" d="M3210,0c12.7,0,25.3,0,38,0c5.9,2.1,9.9,6.7,13.7,11.2c3.4,4.1,7.1,7.9,10.9,11.6
		c12.1,11.9,23.1,24.9,35.5,36.5c3.3,3,2.9,5.6-0.2,8.3c-4.6,1.2-9.3,0.8-13.9,0.6c-14.6-0.7-29.2-1.3-43.8-1.2
		c-10,0.1-19.9,0.3-29.9,0.3c-3.2,0-6-1.9-9.2-2c-0.6-0.2-1.1-0.5-1.6-0.9c-2.4-4.4-1.2-9.1-1.5-13.7c-0.9-14.3,0.2-28.6-0.3-42.9
		C3207.6,5,3207.4,2,3210,0z"/>
	<path class="st5" d="M592,0c12.7,0,25.3,0,38,0c2.1,1.6,2.4,3.9,2.3,6.3c-0.5,14.6,0.6,29.2-0.3,43.8c-0.3,4.7,1,9.6-1.4,14.1
		c-0.4,0.5-0.9,0.8-1.5,1c-8.3,2.3-16.7,1.4-25.2,1.5c-18.9,0.1-37.9-0.2-56.8,1.4c-5,0.4-10,0.7-14.9-0.4c-3.8-4.4-3.9-4.9-0.1-8.5
		c13.9-13.3,26.3-28.1,40.3-41.3c3.3-3.1,5.7-6.9,8.9-10.1C584.5,4.6,587.7,1.6,592,0z"/>
	<path class="st6" d="M2758,100c-30.7,0-61.3,0-92,0c-2.4-1.5-5.5-1.3-7.9-3c-1.4-1-3.5-1.4-3.7-3.7c0.4-1.9,2.2-2.5,3.3-3.7
		c0.9-0.8,1.9-1.5,2.9-2.2c13.6-8.6,27.7-16.2,41.8-23.9c16.9-9.3,33.9-18.3,50.5-28c1.9-1.1,3.8-2.1,5.8-3c3.9-1.7,5.2-0.9,6.8,3.5
		c1,6.7-0.6,13.2-1.2,19.7c-1.1,13-2.3,26-3.9,39C2760.1,96.8,2759.7,98.7,2758,100z"/>
	<path class="st6" d="M1174,100c-30.7,0-61.3,0-92,0c-1.5-1.2-2.1-2.9-2.3-4.8c-2.3-18.3-3.8-36.7-5.5-55.1c-0.1-1.3,0.4-2.6,0.4-4
		c1.4-4.6,3.1-5.4,7.7-3.2c7.3,3.6,14.2,7.8,21.4,11.8c12.3,6.8,24.8,13.4,37.1,20.2c13,7.2,26.2,14.2,38.6,22.5
		c1,0.6,2,1.3,2.9,2.1c1.1,1.2,2.9,1.8,3.3,3.7c-1.1,3.5-4.3,4-7,5.2C1177.1,99.1,1175.3,98.9,1174,100z"/>
	<path class="st7" d="M2552,0c5.7,0,11.3,0,17,0c12,3.5,22.9,9.5,33.9,15.1c11.8,6,24,11.2,35.5,17.7c1.5,0.8,2.9,0.2,4.3,0.7
		c1.8,1,1.8,2.6,1.5,4.3c-0.2,0.5-0.5,1-0.9,1.3c-6.5,4.3-14.2,5.5-21.4,7.7c-10.5,3.2-20.9,6.6-31.4,10
		c-10.3,3.3-20.9,5.4-29.8,9.8c9.1,0.1,18.9,2.2,28.8,3.3c10.1,1.1,20.2,2.4,30.2,3.8c3.8,0.5,8.2,0.7,8.6,6.2
		c-2.4,2.5-4.8,0.1-7.2,0.1c-14.2-1.2-28.3-3.3-42.4-5.2c-6.9-0.9-13.8-1.5-20.7-2.5c-3.3-0.5-6.5-1.1-9.6-2.5
		c-2.9-2.2-3.4-5.1-3.2-8.8c1.4-18.1,2.8-36.3,4.4-54.4C2549.8,4.3,2549.7,1.7,2552,0z"/>
	<path class="st7" d="M1271,0c5.7,0,11.3,0,17,0c1.5,1.2,2.1,2.9,2.3,4.8c1.8,19.6,3.1,39.2,4.7,58.7c0.2,2.9-1.4,4.7-3.3,6.4
		c-7.9,3.4-16.6,3.1-24.9,4.3c-5.9,0.9-11.8,1.6-17.7,2.6c-2.5,0.3-4.6-0.6-6.7-1.9c-1.8-2.8,0.3-3.7,2.3-4
		c11.6-1.7,23.3-3.6,35-4.5c-14-4.9-28.4-8.9-42.5-13.6c-9.3-3.1-18.8-5.4-27.9-9.1c-4.1-1.7-9-1.2-12.5-4.6c-0.4-0.3-0.8-0.8-1-1.3
		c-0.4-1.7-0.4-3.3,1.3-4.3c2.6,0.3,4.5-1.4,6.7-2.4c20.2-8.5,39-19.9,59.3-28.4C1265.7,1.7,1268.6,1.7,1271,0z"/>
	<path class="st8" d="M2272,100c-31.3,0-62.7,0-94,0c-1.2-4,1.6-6.7,3.6-9.2c15.8-19.2,31.5-38.5,47.4-57.6c1.4-1.7,2.8-3.3,4.6-4.5
		c1.3-0.8,2.1-2.2,3.7-2.5c1.1,0,2,0.5,2.7,1.3c5.7,9.9,10.1,20.4,15,30.7c5.4,11.1,10.6,22.3,15.9,33.5
		C2272.1,94.3,2274.5,96.9,2272,100z"/>
	<path class="st8" d="M1662,100c-31.3,0-62.7,0-94,0c-2.2-2.2-0.7-4.5,0.2-6.5c4.7-10.3,9.6-20.4,14.4-30.6
		c4.2-8.8,8.4-17.7,12.5-26.5c1.4-3,3.3-5.8,4.8-8.7c0.7-0.9,1.5-1.4,2.7-1.4c1.7,0.1,2.5,1.6,3.7,2.5c4.5,3.5,7.7,8.3,11.3,12.6
		c13.6,16.3,26.9,32.8,40.5,49.2C1660.3,93.1,1662.9,95.9,1662,100z"/>
	<path class="st9" d="M3413,100c3.5-18.2,6.8-36.5,9.2-54.9c0.8-5.7,2.5-11.3,2.8-17.1c0.2-0.2,0.4-0.4,0.6-0.6
		c0.3-0.1,0.5-0.2,0.8-0.4c5.4-0.1,10.5,2,15.4,3.4c8.6,2.5,17.5,3.9,26.1,5.9c13.5,3.1,26.8,7.3,40.5,9.7c2.6,0.5,5.8,0.7,6.5,4.3
		c-0.5,2.2-2,3.8-3.7,5.2c-27,13.5-54.3,26.2-81.1,40c-4.2,2.2-8.9,2.6-13.2,4.3C3415.7,100,3414.3,100,3413,100z"/>
	<path class="st9" d="M415,28c0.4,9.8,3.6,19.2,4.6,28.9c1.5,14.5,4.8,28.7,7.4,43.1c-1.3,0-2.7,0-4,0c-11.6-2.4-21.5-8.7-31.9-13.8
		c-20.8-10.2-41.7-20.1-62.3-30.5c-1.7-1.4-3.1-3-3.8-5.1c0.4-3.6,3.5-3.9,5.9-4.4c15.7-3.3,31-8.1,46.6-11.2
		c8.4-1.7,16.6-4.2,25.1-5.3c3.3-0.4,6.2-2.4,9.5-2.9c0.6,0,1.1,0.1,1.7,0.3C414.3,27.1,414.7,27.5,415,28z"/>
	<path class="st10" d="M3210,64c0.3,0,0.7,0,1,0c0.3,0.4,0.6,0.9,0.7,1.4c-1.7,11.1-6.3,21.3-10.5,31.5c-0.6,1.5-2.1,2-3.1,3.1
		c-29,0-58,0-87,0c-1.7-2-0.8-3.7,0.6-5.3c12.7-14.1,24.3-29.2,37-43.4c2-2.2,4-4.4,6.7-5.8c5.9-1.3,11,1.9,16.3,3.5
		c10.9,3.4,21.8,6.9,32.7,10.6C3206.7,60.5,3209,61.3,3210,64z"/>
	<path class="st10" d="M629,64c0.3,0,0.7,0,1,0c0.8-2.2,2.6-3.3,4.8-4c14.8-4.8,29.5-9.8,44.4-14.3c1.7-0.5,3.5-1.1,5.3-0.2
		c7.1,4.6,11.8,11.5,17.2,17.7c8.6,10.1,16.9,20.4,25.7,30.3c1.6,1.8,3.8,3.6,1.6,6.4c-29,0-58,0-87,0c-1-1.1-2.5-1.6-3.1-3.1
		c-4.2-10.3-8.9-20.4-10.5-31.5C628.4,64.9,628.6,64.4,629,64z"/>
	<path class="st11" d="M685,47c-11.2,2.2-21.8,6.5-32.7,9.9c-7.4,2.3-14.8,4.7-22.2,7.1c-0.4-6.9-0.3-13.8-0.1-20.7
		C630.3,28.9,630,14.4,630,0c18.7,0,37.3,0,56,0c5.1,1.5,9.3,4.9,14.5,6.4c0.7,0.3,1.4,0.7,1.8,1.3c0.7,1.4-0.1,2.5-0.7,3.6
		c-4.3,11.3-8.7,22.5-13.6,33.5C687.3,45.9,686.2,46.6,685,47z"/>
	<path class="st11" d="M3210,64c-15.6-5-31.2-10-46.8-14.9c-2.7-0.8-5.4-1.4-8.2-2.1c-1.3-0.4-2.3-1.1-3-2.3
		c-4.8-11-9.3-22.2-13.6-33.5c-0.7-1.1-1.4-2.2-0.8-3.5c0.4-0.6,1.1-1,1.8-1.3c5.1-1.6,9.5-4.7,14.5-6.4c18.7,0,37.3,0,56,0
		c0,14.4-0.3,28.9,0.1,43.3C3210.3,50.2,3210.4,57.1,3210,64z"/>
	<path class="st12" d="M2386,0c8.3,0,16.7,0,25,0c2.1,1,2.5,2.9,2.4,5c-0.1,10.8-0.7,21.5-1,32.3c-0.1,4.7,0.5,9.3,1,13.9
		c0.2,1.6,0.1,3.3,0,5c-0.1,9.6-0.8,10.4-10.1,11.4c-10.2-1.6-19.4-6.5-29.5-8.6c-11.4-2.3-21.8-7.9-33.4-9.4
		c-2.9-0.4-5.2-2.7-7.9-3.9c-2.1-1-2.3-3.1-1.2-5.1c2.2-4.3,6.4-6.9,10.1-9.5c11.6-8.1,22.9-16.5,34.1-25.1
		C2378.9,3.6,2382.3,1.6,2386,0z"/>
	<path class="st12" d="M1429,0c8.3,0,16.7,0,25,0c11.6,5.7,21,14.5,31.4,21.9c6.5,4.6,13.3,8.8,19.2,14.2c1.5,1.4,3.1,2.5,3.9,4.4
		c1.4,2.9,0.3,4.4-2.4,5.9c-8.2,4.7-17.7,5.1-26.3,8.4c-11.1,4.3-23,5.9-34.1,10.6c-2.8,1.2-6.1,1.3-9.2,2.1c-1.4,0.2-2.6-0.5-4-0.4
		c-3.8,0.2-5.2-1.9-5.7-5.5c-0.5-4-0.7-8-0.3-12c1.2-9.5,1.2-18.9,0-28.4c-0.7-5.9,1.2-11.9,0-17.9C1426.3,1.9,1427.6,0.8,1429,0z"
		/>
	<path class="st13" d="M1601,28c-0.9,5.3-3.7,9.9-6,14.7c-8.9,19.1-18,38.2-27,57.3c-1.7,0-3.3,0-5,0c-8.3-4.8-14.4-12.2-20.7-19.1
		c-7-7.7-14.4-15-21.9-22.4c-1-1.5-2.3-2.7-3.6-3.9c-1.8-2.1-4.5-3.7-5.2-6.7c-1.1-5.8-0.9-6.3,4.8-7.5c22.8-4.7,45.8-8.5,68.6-12.7
		c3.1-0.6,6.2-1.4,9.2-2.1C1596.8,25.6,1599.2,26.1,1601,28z"/>
	<path class="st13" d="M2272,100c-7.6-16.2-15.3-32.2-22.7-48.5c-3.5-7.8-8.4-15-10.4-23.5c1.8-1.9,4.2-2.2,6.7-2.4
		c19.3,4.4,38.9,7.1,58.3,11c6.5,1.3,13.1,2.2,19.6,3.8c5.7,1.4,6,1.8,4.7,7.4c-1,2.8-3.9,4-5.3,6.4c-1.3,1.3-2.4,2.7-3.4,4.2
		c-7.8,7.5-15.3,15.1-22.6,23.1c-4,4.4-7.8,9-12.4,12.8c-2.4,2-5,3.7-7.5,5.6C2275.3,100,2273.7,100,2272,100z"/>
	<path class="st14" d="M2552,0c-0.4,17.1-2.7,34-3.6,51.1c-0.3,5.9-3.1,12.1,0.6,17.9c-0.3,0.5-0.8,0.8-1.3,0.9
		c-11.3-0.1-21.6-4.7-32.3-7.5c-13.3-3.5-26.5-7.1-39.6-11.3c-0.5-0.1-1-0.2-1.4-0.5c-7.3-4.1-7.2-6.9-0.2-11.4
		c12.5-8.1,25-16.2,37.5-24.2c8.7-5.5,16.7-12.7,27.2-15C2543.3,0,2547.7,0,2552,0z"/>
	<path class="st14" d="M1291,69c3.6-5.8,0.8-12,0.6-17.9c-0.3-11.1-1.7-22.1-2.5-33.2c-0.4-6-1.5-11.9-1-17.9c4.3,0,8.7,0,13,0
		c11.4,3.2,20.2,11.1,30,17c7.5,4.5,14.7,9.7,22.2,14.1c5.3,3.1,10,7,15.4,10c3.3,1.9,3.2,4.7,0.2,7.2c-1.4,1.2-2.9,2.3-4.7,2.8
		c-20.4,6.4-41.1,11.5-61.5,17.7c-3.3,1-6.9,0.9-10.3,1.1C1291.7,69.8,1291.3,69.4,1291,69z"/>
	<path class="st15" d="M832,0c25,0,50,0,75,0c1.4,2.4-0.4,3.3-1.9,4.3c-4.4,2.9-9.4,4.1-14.5,4.7c-8.4,1-16.9,0.2-25.3-0.5
		c-10.9-0.9-21.9,0.8-32.7-1.1c-4.1,0.7-6.1,3.9-9,6.4c-6.3,5.4-12.2,11.2-18.2,16.8c-10.2,9.4-21.3,17.8-31.4,27.3
		c-4.8,4.5-9.8,8.9-15.1,12.8c-1.2,0.9-2.4,2.6-4.3,1.2c-1.4-2.4-1.6-5.1-1.4-7.7c1.9-18.5,3.9-37,5.9-55.5c0.3-3,0.2-6.4,3-8.7
		c17,0,34,0,51,0c4.1,1.3,8.4,1.4,12.6,2C828,2.3,830.2,1.9,832,0z"/>
	<path class="st15" d="M2933,0c25,0,50,0,75,0c1.9,2.1,4.4,2.3,6.9,1.9c4-0.6,8.2-0.7,12.1-1.9c17,0,34,0,51,0
		c1.9,1.4,2.2,3.6,2.6,5.7c2.1,14.1,3.1,28.4,4.7,42.6c0.5,4.8,1.1,9.6,1.5,14.4c0.3,3.2,0.2,6.3-1.3,9.2c-4.4,0.6-6.7-3.1-9.4-5.3
		c-11.1-9-21.6-18.7-32.5-27.9c-7.2-6.2-14.7-12.4-21.2-19.6c-3.1-3.4-6.8-6.1-9.9-9.6c-3.9-4.3-9.6-3.7-14.6-2.9
		c-6.6,1-13.3,0.2-19.8,1.6c-7.8,0.3-15.5,1.5-23.3,1.1c-6.8-0.4-13.5-1.3-19.5-4.9C2933.7,3.5,2931.5,2.7,2933,0z"/>
	<path class="st16" d="M3678,100c-8.7,0-17.3,0-26,0c-3.5-1.5-3.7-4.8-4.3-7.9c-2.3-12.6-3.8-25.3-6.3-37.8
		c-0.4-1.8-0.7-3.6-2.1-4.9c-1-3.5,1.6-5.1,3.6-7.1c0.6-0.2,1.1-0.2,1.7-0.1c5.8,0.5,11.5-1.1,17.3-1.6c17.9-1.5,35.8-2.6,53.6-5.5
		c1.1-0.4,2.2-0.3,3.3,0.4c1.7,1.9,0.6,3.6-0.5,5.2c-3.4,1.8-4.6,5.5-6.5,8.5c-9.5,15.1-18.5,30.5-27.9,45.7
		C3682.3,97.2,3680.5,99,3678,100z"/>
	<path class="st16" d="M188,100c-8.7,0-17.3,0-26,0c-2.5-1-4.3-2.9-5.8-5.2c-10.6-16.9-20.6-34.2-31.2-51c-0.8-1.3-1.9-2.2-3-3.2
		c-0.3-1.7-2.4-3.2-0.8-5.2c1-0.7,2.1-0.9,3.3-0.6c10,2.5,20.4,2.5,30.5,3.8c12.8,1.6,25.8,1.7,38.5,4c0.7,0.1,1.3-0.1,1.9-0.4
		c0.6-0.1,1.1-0.1,1.7,0.1c2,1.9,4.6,3.6,3.7,7.1c-3.4,5.2-3.3,11.4-4.3,17.2c-1.4,9-3,18-4.4,27.1C191.6,96.2,190.9,98.8,188,100z"
		/>
	<path class="st17" d="M326,0c16,0,32,0,48,0c12.5,4.9,23.1,13.1,34.8,19.8c0.8-2.3-0.6-5.5,2.9-6.2c5,3.6,6.1,10.3,2.3,14.4l0,0
		c-15.4,3.8-30.8,7.3-46.3,10.9c-12.4,2.9-24.7,6.1-37.2,8.6c-2.3,0.5-4.5,1-6.1,2.9c-0.5,0.3-1.1,0.3-1.7,0.3
		c-0.9-0.3-1.5-0.9-1.9-1.7c-1.3-3.3-0.3-6.6-0.1-9.9c0.6-11.3,1.6-22.5,2.8-33.8C323.8,3.2,324.3,1.3,326,0z"/>
	<path class="st17" d="M3466,0c16,0,32,0,48,0c3,2.6,2.9,6.3,3.1,9.6c0.6,11.9,2.4,23.7,2.6,35.6c0,1.2-0.3,2.3-0.6,3.4
		c-0.3,0.9-1,1.5-1.8,1.8c-0.6,0.1-1.1,0.1-1.7-0.1c-2-2.2-4.9-2.5-7.6-3.1c-15.8-3.6-31.5-7.4-47.3-11.1
		c-11.6-2.7-23.2-5.4-34.7-8.1v0c-3.7-4-2.8-10.4,2.1-14.4c2.7,1.8,2.7,1.8,2.9,6.2C3442.8,13.2,3453.5,4.9,3466,0z"/>
	<path class="st18" d="M2175,100c-0.7,0-1.3,0-2,0c-3.9-1.1-6.9-3.5-10-6.1c-14-12-27.5-24.6-41.3-36.8
		c-7.4-6.6-15.5-12.6-21.3-20.9c-0.5-1-0.6-2.1-0.1-3.2c1.2-1.8,3-1.8,4.9-1.9c6.5-0.2,12.9-0.5,19.4,0.6c5.3,0.9,10.9,0.6,16.4,0.6
		c9.6,0,19.1,2.8,28.8,1.4c1.3-0.2,2.7,0.1,3.9,0.5c3.6,0.7,7,1.9,10.5,3.1c2.9,1,3.7,2.7,3.5,5.6c-0.4,6.3-1.6,12.5-2.7,18.7
		c-1.5,8.8-2.5,17.7-4.1,26.4C2180.2,92.5,2180,97.6,2175,100z"/>
	<path class="st18" d="M1667,100c-0.7,0-1.3,0-2,0c-2.6-1.2-3.9-3.3-4.6-6.1c-2.2-8.7-3.1-17.6-4.3-26.4c-1.1-7.7-3-15.3-3.7-23.1
		c-0.4-4.2,0.5-6.5,4.8-7.7c3-0.8,6-1.8,9.1-2.6c1-0.3,2-0.5,3-0.4c14.8,1.1,29.3-2.2,44.1-1.9c7,0.1,14.1-1.3,21.3-0.7
		c1.9,0.2,3.7,0.1,4.9,1.8c0.6,1.1,0.5,2.1-0.1,3.1c-8.2,11-19.3,19.1-29.4,28.3c-8.8,8.1-17.5,16.3-26.8,23.9
		C1678.1,92.5,1674.1,98.4,1667,100z"/>
	<path class="st19" d="M1594,28c-11.5,3.3-23.4,4.6-35.1,6.9c-14,2.7-28,5.5-42.1,7.7c-4.5,0.7-4.2,2.4-2.8,5.4
		c-2,0.9-3.1-0.4-4.1-1.8c-1.1-3.2-1.6-6.5-0.7-9.8c1.2-8.8,3-17.5,4.2-26.3c0.5-3.8,1.7-7.4,4.6-10.1c19.3,0,38.7,0,58,0
		c7.6,4.5,13.5,10.9,20,16.7c2,1.8,3.9,2,6.1,2c2.1,1.5,3,3.7,1.8,5.9c-1,1.9-2.9,2.9-5.2,2.9C1597.2,27.5,1595.5,27.1,1594,28z"/>
	<path class="st19" d="M2326,48c1.5-3,1.7-4.6-2.7-5.4c-23.7-4-47.4-8.5-71.1-12.9c-2.1-0.4-4.3-0.4-6.2-1.7
		c-1.4-0.9-2.9-0.5-4.3-0.5c-2.5,0-4.7-0.8-5.7-3.1c-1-2.2-0.2-4.2,1.8-5.7c4.5,0.6,7.2-2.6,9.9-5.3c5.1-5,10.5-9.5,16.4-13.5
		c19.3,0,38.7,0,58,0c2,2.1,3.4,4.4,3.9,7.3c1.7,9.9,4.1,19.7,4.5,29.8c0,2.9,0.3,5.8-0.2,8.7C2329.4,47.6,2328.2,48.8,2326,48z"/>
	<path class="st20" d="M3417,100c4.7-3.7,10.4-5.8,15.6-8.5c24.2-12.1,48.5-23.8,72.8-35.7c1.5-0.7,3.1-1.2,4.6-1.8
		c2.7-1.4,5.1-3.6,8.4-3.8c3.2,0.9,3.7,3.6,3.9,6.3c0.9,11.6,2.1,23.1,3,34.7c0.2,3.1,0.7,6.4-2.2,8.8
		C3487.7,100,3452.3,100,3417,100z"/>
	<path class="st20" d="M330,54c8,3.7,16,7.3,23.8,11.2c22.5,11,44.9,22.1,67.3,33.2c0.7,0.3,1.2,1.1,1.8,1.6c-35.3,0-70.7,0-106,0
		c-3.1-2.7-2.4-6.4-2.1-9.7c0.8-11.1,2.1-22.1,2.9-33.1c0.2-2.8,0.4-5.7,3.9-6.7C325,50.3,327.3,52.6,330,54z"/>
	<path class="st21" d="M3643,43c-1,2-2,4-3,6c2.2,2.2,0.9,4.4-0.2,6.4c-7.1,13-13.9,26.1-20.9,39.2c-1.2,2.3-2.9,4-5,5.5
		c-10.3,0-20.7,0-31,0c-4.4-5.6-4.6-12.6-6.2-19.1c-2.5-9.6-4.4-19.3-7.4-28.7c-0.1-2.7,1.4-3.6,3.8-4.3c6.3-1.8,12.9-1.4,19.3-1.8
		c11.6-0.8,23.2-2.1,34.8-2.2c10-0.1,11-1.5,8.6-11.2c-2.1-8.6-4.7-17-6.6-25.6c-0.5-2.4-1.6-4.9,0.7-7c0.7,0,1.3,0,2,0
		c1.9,1.6,2.6,3.7,3.3,6c2.7,9.7,5,19.6,7.8,29.3C3643.8,37.9,3644.1,40.4,3643,43z"/>
	<path class="st21" d="M200,49c-1-2-2-4-3-6c-1-2.4-0.9-4.8-0.2-7.3c2.9-10,5.3-20.2,8.1-30.2c0.6-2.1,1.4-4.1,3.1-5.5
		c0.7,0,1.3,0,2,0c2.3,2.1,1.3,4.6,0.7,7c-2.1,9.4-4.9,18.7-7.2,28c-1.6,6.5-0.8,8.1,5.7,8.4c11.6,0.6,23.2,1.6,34.8,2.4
		c7.6,0.5,15.3,0.4,22.8,2.1c2.4,0.6,3.9,1.6,3.9,4.2c-3.1,9.4-5,19.2-7.5,28.8c-1.7,6.5-1.9,13.5-6.2,19.1c-10.3,0-20.7,0-31,0
		c-5.7-3.7-7.2-10.2-10.3-15.6c-5.4-9.5-10.3-19.4-15.5-29C199.1,53.4,197.8,51.2,200,49z"/>
	<path class="st22" d="M2866,0c20.7,0,41.3,0,62,0c5.1,2.3,10.1,4.6,14.8,7.6c0.2,0.5,0.3,0.9,0.2,1.4c-0.7,2.1-2,3.8-3.6,5.3
		c-12.8,12.5-24.4,26.2-37.5,38.4c-3.6,3.4-5.8,8.2-10.5,10.4c-0.8,0.4-1.4,0.8-2.3,0.8c-4.3-0.2-8.6,0.3-12.8-1.2
		c-1.8-0.7-4-0.8-4.7-3.2c1.3-3.9,4.4-2.7,7.1-2.4c5.1,0.5,5.4,0.3,3.8-4.5c-4.8-14.3-10.1-28.5-15.8-42.5
		C2865.4,7.1,2863,3.6,2866,0z"/>
	<path class="st22" d="M912,0c20.7,0,41.3,0,62,0c3,3.6,0.6,7.1-0.7,10.2c-5.7,14.1-11.1,28.4-16,42.9c-1.5,4.5-1.2,4.8,3.7,4.2
		c2.7-0.3,5.7-1.5,7.3,2.1c-3.1,5-8.4,4-13,4.6c-1.4,0.2-2.9-0.6-4.3,0c-3.3-0.6-5.8-2.6-7.7-5c-4.2-5.4-9.1-10.1-14-14.8
		c-10.2-9.7-19-20.8-29.3-30.4c-1.4-1.3-2.3-2.8-3-4.5c-0.1-0.5,0-1,0.1-1.5C901.8,4.5,906.9,2.4,912,0z"/>
	<path class="st23" d="M3154,44c0.3,1,0.7,2,1,3c-13.8,16.5-27.3,33.2-41.7,49.2c-1,1.1-2,2.2-2.3,3.8c-21,0-42,0-63,0
		c-3.2-1.2-6.6-1.6-10-2c-1.9-0.2-3.5-0.7-4.4-2.5c-0.2-0.5-0.2-1-0.1-1.6c1.8-2.3,4.2-3.8,6.8-5c12.2-4.5,23.9-10.4,36-15.3
		c5-0.5,9.7-1.4,13.5-5.1c0.4-0.3,0.8-0.5,1.2-0.8c1.7-0.7,3.4-1.4,5.2-2C3115.3,58.2,3134.8,51.6,3154,44z"/>
	<path class="st23" d="M685,47c0.3-1,0.7-2,1-3c12.3,4.4,24.2,9.8,36.6,13.8c7.3,2.3,14.2,5.4,21.3,8c1.8,0.5,3.4,1.4,5.2,2
		c0.4,0.2,0.8,0.5,1.2,0.8c3.8,3.6,8.5,4.7,13.5,5.2c12.1,4.9,23.8,10.6,36,15.2c2.7,1.1,4.9,2.7,6.8,4.9c0.2,0.5,0.1,1,0,1.6
		c-0.9,1.9-2.4,2.4-4.4,2.6c-3.4,0.3-6.8,0.7-10.1,2c-21,0-42,0-63,0c-4.1-6.8-10.1-12.2-15-18.4C704.6,69.9,694.7,58.5,685,47z"/>
	<path class="st24" d="M3211,65c0-0.3,0-0.7,0-1c8.4,1.2,16.8,0,25.1,0.2c19.5,0.4,39-0.2,58.4,1.7c4.8,0.5,9.6,0.1,14.4,0.1
		c0.3-0.3,0.7-0.4,1,0c-0.7,3-1.3,6-2,9c1.4,0.9,1.8,2.3,1.5,3.9c-1.4,6.5-3.7,12.6-6.5,18.6c-0.6,1.3-1.9,1.7-3,2.5
		c-12,0-24,0-36,0c-6.7-1.7-12.3-5.4-18-9.2c-10-6.6-19.9-13.2-30.1-19.5c-1.1-0.7-2.1-1.7-2.9-2.7C3212.3,67.5,3211.4,66.4,3211,65
		z"/>
	<path class="st24" d="M629,64c0,0.3,0,0.7,0,1c-0.4,1.4-1.4,2.4-2.4,3.4c-5.8,5-12,9.4-18.6,13.2c-7.4,4.4-14.4,9.4-21.6,14.1
		c-3.3,2.2-7.1,2.4-10.4,4.2c-12,0-24,0-36,0c-1.9-0.9-3.1-2.3-3.9-4.3c-2-5.1-4.1-10.1-5.3-15.4c-0.5-2-0.9-3.9,1.2-5.3
		c-0.7-3-1.3-6-2-9c0.3-0.3,0.7-0.4,1,0C563.6,64.3,596.3,64.7,629,64z"/>
	<path class="st25" d="M763,76c-5.3-0.4-9.2-4.2-14-6c-0.5-4.5-4.7-6.2-7.1-9.1c-12.8-15.2-25.7-30.3-38.8-45.3
		c-1.4-1.6-2.3-3.6-3.1-5.6c0.7-0.7,1.3-1.3,2-2c-0.5-1.9,1-2.1,2.2-2.7c4.9-2.5,10.2-3.7,15.6-4.3c1.8-0.2,3.6-0.1,5.2-1
		c12.3,0,24.7,0,37,0c-1.5,14.5-2.9,29-4.4,43.5c-0.8,7.9-1.7,15.8-2.6,23.7c-0.2,1.7-0.1,3.3,0.9,4.8C760.7,70.8,762.1,71.6,763,76
		z"/>
	<path class="st25" d="M3091,70c-4.7,1.8-8.6,5.6-14,6c0.9-4.4,2.3-5.2,7-4c2.4-5.3-0.1-10.5-0.5-15.6c-1.6-18.8-3.6-37.6-5.5-56.4
		c12.3,0,24.7,0,37,0c5.5,1.6,11.5,1.1,16.7,3.6c2.3,1.1,5.6,0.9,6.3,4.4c0.7,0.7,1.3,1.3,2,2c-1.4,5.3-5.7,8.5-9,12.4
		c-11.9,14-24,27.8-35.8,42C3093.7,66.2,3090.6,66.7,3091,70z"/>
	<path class="st26" d="M270,52c-3.1-3.8-7.6-2.6-11.4-2.8c-8.1-0.5-16.1-1.5-24.2-1.6c-6.8-0.1-13.4-1.5-20.2-1.3
		c-4.3,0.1-8.6-0.7-12.8-1.5c-3-0.5-2.1-2.9-1.6-4.8c3.4-13.3,6.8-26.7,10.2-40c10,0,20,0,30,0c5.3,2.7,7.3,8,9.9,12.7
		c5.3,9.6,11.4,18.7,16,28.7c0.4,0.7,1,1.3,1.6,1.9c1.2,0.8,2.1,2,2.9,3.2c1.2,1.7,2,3.6,3.5,5.1c1.4,1.4,1.6,3.1,0.1,4.7
		C270.8,56.6,269.3,55.4,270,52z"/>
	<path class="st26" d="M3630,0c3.3,12.9,6.5,25.7,10,38.6c1.1,4.2,1,6.2-4.3,6.7c-13.5,1.3-26.9,2-40.4,2.8
		c-7.4,0.4-14.8,1.1-22.2,1.7c-1.5,0.1-2.3,1.1-3,2.3c0.7,3.4-0.8,4.6-4,4.3c-1.6-1.6-1.4-3.3,0-4.7c1.5-1.5,2.3-3.5,3.5-5.2
		c0.9-1.1,1.7-2.4,2.9-3.2c4.7-6.8,8-14.5,12.4-21.5c3.4-5.3,6-11.1,9.5-16.3c1.5-2.3,3.2-4.2,5.6-5.4C3610,0,3620,0,3630,0z"/>
	<path class="st27" d="M2476,49c14.2,4,28.5,7.9,42.7,11.9c9.8,2.7,19.5,5.4,29.3,8.1c1.5,0.8,2.4,1.9,1.6,3.7
		c-0.1,0.1-0.2,0.4-0.3,0.4c-9.8-0.5-15.5,7.2-22.9,11.4c-6.2,3.5-11.9,7.8-17.8,11.9c-2.7,1.9-6,1.9-8.7,3.6c-7.3,0-14.7,0-22,0
		c-1.9-1.6-2.7-3.7-3.2-6c-2.7-13.5-5.4-27-8.1-40.5c-0.3-1.6-0.7-3.3,0.3-4.8C2470.1,45.4,2473,48.2,2476,49z"/>
	<path class="st27" d="M1292,69c21.8-6,43.5-12.1,65.3-18.1c2.2-0.6,4.5-1.2,6.7-1.9c2.9-0.8,5.8-3.6,8.8-0.4c1.1,2.3,0.5,4.6,0,6.8
		c-2.5,12.7-5,25.4-7.6,38.1c-0.5,2.5-1.2,4.8-3.3,6.5c-7.3,0-14.7,0-22,0c-9.7-2.7-17-9.5-25.2-14.7c-5-3.2-10.2-6.2-14.8-10.1
		c-1.6-1.4-3.7-2.2-6-1.7c-1.3,0.3-2.6,0.5-3.6-0.8C1289.6,70.9,1290.5,69.8,1292,69z"/>
	<path class="st28" d="M3310,66c-0.3,0-0.7,0-1,0c0.6-1.9-0.4-3-1.7-4.3c-14.5-14.7-28.9-29.3-43.2-44.1
		c-5.5-5.7-10.8-11.7-16.1-17.6c22.7,0,45.3,0,68,0c3.9,2.8,2.5,6.6,1.4,9.9c-1.2,3.6-1.8,7-0.2,10.6c0.3,0.6,0.6,1.3,0.4,1.9
		c-3,10.3,0.4,21.1-2.8,31.4c-0.7,2.1-0.9,4.2-0.3,6.4c0.3,2-1.1,2.9-2.5,3.7C3311.3,64.7,3310.7,65.3,3310,66z"/>
	<path class="st28" d="M531,66c-0.3,0-0.7,0-1,0c-0.7-0.7-1.3-1.3-2-2c-1.5-0.9-2.8-1.8-2.5-3.8c0.9-3.1-0.3-5.9-0.9-8.8
		c-0.9-4.4-1.9-8.7-0.4-13.2c0.8-2.4-0.1-4.9-0.7-7.4c-1-4.2-1.8-8.3-0.1-12.7c1-2.7-0.1-5.5-0.9-8.2c-1-3.4-2.4-7.1,1.5-9.9
		c22.7,0,45.3,0,68,0c-4.7,6-10.3,11.2-15.5,16.8C562.3,32,547.6,46.6,533,61.4C531.7,62.7,530.3,63.8,531,66z"/>
	<path class="st0" d="M3678,100c11.5-18.9,23.1-37.8,34.6-56.7c1.1-1.8,2.1-3.4,4.4-3.3c2.7,0.2,4.1,2.1,5.1,4.2
		c5.8,11.7,12.9,22.7,18.6,34.5c1.5,3.1,3.5,6,5.1,9.1c1.3,2.4,2.7,2.2,3.6-0.4c1.1-3.1,2.5-6.1,3.4-9.3c0.7-2.2,1.8-4,4.6-3.2
		c0.4,0.3,0.7,0.7,1,1.2c1,1.8,0.3,3.5-0.2,5.3c-1.1,4-3.1,7.7-4.2,11.7c-1.1,3.9-3.6,5.8-7.6,5.6c-1.2,0.4-2.4,0.5-3.4,1.4
		C3721.3,100,3699.7,100,3678,100z"/>
	<path class="st0" d="M123,40c1.8,0,3,0.8,4,2.4c9.4,15.5,19,31,28.5,46.5c2.2,3.7,4.4,7.4,6.6,11.1c-21.7,0-43.3,0-65,0
		c-0.9-0.8-2-0.9-3.1-1.3c-1.8-0.4-4.1,0.2-4.7-2.5c0-0.5,0-1,0.2-1.4c5.2-4.2,7.6-10.4,10.5-16c6-11.4,13.1-22.2,18.3-34.1
		C119.1,42.7,120.6,40.8,123,40z"/>
	<path class="st29" d="M2329,46c0-3,0-6,0-9c-0.6-0.7-0.5-1.4-0.2-2.1c4.4,0,3.1,3.8,4.2,6.1c-1.2,2.6,0.3,3.4,2.5,4.2
		c8.5,3.1,17.6,4.5,26.2,7.7c10.7,4,22.1,5.6,32.6,10.2c2.7,1.2,5.8,1.3,8.7,2c2.6,0.6,5.1,1.4,7.8,1.7c0.4,0.3,0.7,0.7,0.8,1.2
		c0.3,1.9-0.8,3.2-2.1,4.3c-8.3,7.6-14.7,17-23.7,23.9c-2.2,1.7-4.6,2.5-6.8,3.9c-5.7,0-11.3,0-17,0c-4.2-3.5-6.7-8.2-9.2-12.9
		c-6.5-12.1-13.9-23.8-20.6-35.9C2331.6,49.2,2330.5,47.5,2329,46z"/>
	<path class="st29" d="M1511,37c0,3-1.3,6,0,9c-1.4,1.5-2.6,3.1-3.2,5.1c-7.4,13.3-15.5,26.1-22.6,39.6c-1.9,3.5-4.1,6.8-7.3,9.3
		c-5.7,0-11.3,0-17,0c-6.2-2.7-11.1-7.1-15.6-12c-4.9-5.4-9.8-10.7-15-15.9c-1.2-1.2-2.4-2.4-2.2-4.3c0.1-0.5,0.4-0.9,0.8-1.3
		c2.7-0.2,5.3-1,8-1.6c9-1.5,17.4-5.4,26.2-7.8c13.8-3.9,27.5-8,41.3-12c2.3-0.7,3.7-1.5,2.5-4.1c1.1-2.3-0.2-6.1,4.2-6.1
		C1511.5,35.6,1511.6,36.3,1511,37z"/>
	<path class="st30" d="M1372,49c-2.7-1.7-5.3-0.1-8,0c6.5-4.2,6.3-4-0.5-8.3c-12-7.6-23.8-15.7-35.8-23.4
		c-6.8-4.4-13.8-8.6-20.7-12.8c-2.1-1.3-4.4-2.3-5.9-4.5c30.3,0,60.7,0,91,0c2.6,2.4,1.1,4.8,0,7.2c-5.5,12.6-11.3,25-17,37.5
		C1374,46.1,1373.8,48.1,1372,49z"/>
	<path class="st30" d="M2476,49c-2.7-0.1-5.3-1.7-8,0c-1.8-0.9-2-2.9-3.1-4.3c-5.7-12.5-11.5-24.9-17-37.5c-1.1-2.4-2.6-4.8,0-7.2
		c30.3,0,60.7,0,91,0c-4.6,5-11,7.3-16.5,11.1c-11.9,8.2-24.4,15.4-36.5,23.2c-4.6,3-8.9,6.4-13.8,8.9c-2.1,1-2.2,2.4-0.1,3.6
		C2473.4,47.5,2474.7,48.3,2476,49z"/>
	<path class="st31" d="M1738,36c0.3-0.7,0.7-1.3,1-2c1.1-1.2,2.3-0.8,3.6-0.2c1.1,0.7,2.3,1.3,3.1,2.3c10.8,19,21.2,38.2,31.6,57.4
		c1.1,2,2.4,4.1,0.7,6.4c-20.7,0-41.3,0-62,0c-2.6-2.2-1.8-4.7-0.8-7.3c5.7-14.4,11.3-28.7,16.8-43.1
		C1733.7,44.9,1736.8,40.9,1738,36z"/>
	<path class="st31" d="M2101,34c0.3,0.7,0.7,1.3,1,2c-0.8,3.1,2.1,4.6,3,7c5.9,14.5,12.2,28.9,17.2,43.8c0.7,2.1,1.8,3.9,2.6,5.9
		c1.1,2.5,1.8,5.1-0.8,7.3c-20.7,0-41.3,0-62,0c-1.7-2.4-0.4-4.4,0.7-6.4c10.5-19.2,20.8-38.4,31.6-57.4c0.8-1.1,2-1.6,3.1-2.3
		C2098.6,33.2,2099.9,32.8,2101,34z"/>
	<path class="st32" d="M2758,100c0.3-12.8,2.4-25.5,3.4-38.2c0.7-8.9,1.7-17.8,2.6-26.8c0.3-0.4,0.7-0.6,1.2-0.8
		c0.5-0.1,1,0,1.4,0.1c5.1,3.1,8.2,8.2,11.9,12.6c13.4,15.9,26.9,31.7,39.9,47.9c1.2,1.5,2.9,3,1.5,5.3
		C2799.3,100,2778.7,100,2758,100z"/>
	<path class="st32" d="M1076,35c1.6,15.7,3.2,31.4,4.7,47.1c0.6,6,0.9,11.9,1.3,17.9c-20.7,0-41.3,0-62,0c-1.4-2.3,0.3-3.7,1.5-5.3
		c11.4-14.1,23.1-27.8,34.7-41.7c3.7-4.4,7.5-8.9,11.1-13.5c1.6-1.3,2.8-3.1,4.3-4.5c0.5-0.5,1.1-1,1.8-1.2c0.5-0.1,1,0,1.5,0.1
		C1075.3,34.3,1075.7,34.6,1076,35z"/>
	<path class="st33" d="M2766,35c-0.3,0-0.7,0-1,0c-0.8-1.6-2.3-2.9-2.5-4.9c-0.6-3.5,2.1-5.7,3.1-8.6c1.6-4.8,4.1-9.4,5.8-14.2
		c1.1-3.1,2.8-5.6,5.5-7.3c9.3,0,18.7,0,28,0c2.1,1.5,4.2,3,5.6,5.4c7.3,13.2,14.7,26.2,22.7,39c1.7,2.7,3.3,5.8,1.8,9.3
		c-2.5,2-5.2,0.8-7.6,0.1c-18.6-5.2-37-10.9-55.4-16.5C2769.9,36.6,2768.3,34.9,2766,35z"/>
	<path class="st33" d="M1075,35c-0.3,0-0.7,0-1,0c-2.6-0.7-4.2,1.5-6.3,2.3c-9.2,3.3-18.7,5.7-28.1,8.7c-8.7,2.8-17.5,5.3-26.3,7.6
		c-2.7,0.7-5.4,2.2-8.1,0.3c-1.8-4.5,0.7-8,2.8-11.4c7-11.3,13.6-22.8,20-34.4c1.8-3.2,3.6-6.3,7-8.1c9.3,0,18.7,0,28,0
		c2.8,1.7,4.5,4.3,5.6,7.4c2.7,7.7,6.8,14.8,8.8,22.7C1077.3,32.1,1075.8,33.4,1075,35z"/>
	<path class="st34" d="M2766,35c1.2-2.7,3.1-1.1,4.7-0.6c18.7,5.5,37.4,11.1,56.1,16.7c2.7,0.8,5.5,1.3,8.2,1.9
		c0.9-1.2,0.2-2.5,0.4-3.8c0.4-2,1.3-3.4,3.7-1.9c1.4,1.7,0.8,3.6,0.8,5.5c0.2,4.9-2.2,9.3-3.3,13.9c-1.9,8.2-3.1,16.6-4.9,24.9
		c-0.7,3.4-1.8,6.4-4.7,8.4c-2.3,0-4.7,0-7,0c-16.4-19.6-32.8-39.1-49.1-58.7C2769.2,39.3,2767.6,37.1,2766,35z"/>
	<path class="st34" d="M1005,53c12.5-2.6,24.6-6.7,36.8-10.3c9.7-2.9,19.3-5.8,29-8.7c1.3-0.4,2.6-0.7,3.3,1.1c-0.3,0.3-0.7,0.7-1,1
		c-1.1,1.8-2.9,3.2-4,5c-13.8,16.6-27.6,33.2-41.3,49.8c-2.5,3.1-5.1,6.1-7.7,9.2c-2.3,0-4.7,0-7,0c-2.9-2-4.1-5-4.7-8.4
		c-1.5-10-3.9-19.7-5.7-29.7c-0.6-3.1-3.3-5.5-2.5-8.9c0-1.9-0.7-3.8,0.6-5.5c2.3-1.7,3.3-0.3,3.7,1.7
		C1004.8,50.4,1004.1,51.8,1005,53z"/>
	<path class="st21" d="M3716,36c-0.8,2-2.5,1.8-4.1,2.1c-17.1,2.3-34.2,3.6-51.4,5c-4,0.3-7.9,1-11.8,1.6c-1.9,0.3-3.7,0.6-4.6-1.6
		c-0.9-1.6-0.4-3.1,0.8-4c5.4-4.2,8.8-10.2,14.9-13.9c5.6-3.4,9.5-9.2,14.1-14c4.6-4.7,8.4-9.8,15.3-11.1c8.7,0,17.3,0,26,0
		c1.2,1.1,1.5,2.5,1.5,4c-0.1,10.4,0.3,20.7-0.2,31.1C3716.2,35.4,3716.1,35.7,3716,36z"/>
	<path class="st21" d="M196,43c-0.9,2.3-2.8,1.8-4.6,1.6c-16.1-1.6-32.3-3.1-48.4-4.7c-5.4-0.5-10.8-1.4-16.3-2
		c-1.3-0.2-2.2-0.7-2.7-1.9c-1.1-2.1-1.4-4.4-1.4-6.8c0-7.5-0.1-15,0-22.4c0-2.5,0-5,2.3-6.8c8.7,0,17.3,0,26,0
		c6.9,1.3,10.6,6.5,15.3,11c5.7,5.5,10.3,12.2,17.3,16.4c5,3,7.7,8.6,12.2,12.4C196.7,40.5,196.7,41.9,196,43z"/>
	<path class="st35" d="M1002,47c0,2,0,4,0,6c-1.6,2-3.6,3.1-6.3,3.5c-6.9,1.1-13.7,2.3-20.6,3.4c-2.5,0.4-5,0.7-7.2-0.9
		c-3.5-0.3-6.9,0.8-10.3,1.3c-1.6,0.3-3.5,1.3-4.7-0.2c-1.4-1.7,0.1-3.4,0.7-5.1c6.8-18.3,13.5-36.7,20.3-55c6.3,0,12.7,0,19,0
		c2.1,1.3,3.2,3.1,3.7,5.6c2.3,11.9,4.1,23.8,6.3,35.7C1003.4,43.3,1003.1,45.2,1002,47z"/>
	<path class="st35" d="M2838,53c0-2,0-4,0-6c-1.4-2.3-1.2-4.7-0.7-7.2c2-10.6,3.6-21.2,5.6-31.8c0.6-3.1,0.9-6.3,4.2-8
		c6.3,0,12.7,0,19,0c5.5,15,10.9,30,16.5,44.9c1.5,3.9,2.4,7.9,4.4,11.7c1.7,3.3-0.1,4.7-3.5,4c-3.8-0.7-7.5-1.8-11.3-1.6
		c-2.2,1.6-4.7,1.3-7.2,0.9c-6.9-1.1-13.7-2.3-20.6-3.4C2841.6,56.1,2839.6,55,2838,53z"/>
	<path class="st36" d="M1373,44c5.7-12.7,11.3-25.3,17-38c0.9-2,2-3.8,2-6.1c3,0,6,0,9,0c6.1,3.9,6.1,11.1,9.1,16.7
		c4.2,8,6.7,16.9,10.8,25c1.9,3.7,2.4,7.9,3.9,10.5c-0.2-14.8-0.1-30.8,0-46.8c0-2.1,0.6-3.9,2.3-5.3c0.7,0,1.3,0,2,0
		c-0.3,1.3-0.9,2.6-0.8,3.9c0.2,13.2,0.6,26.5,0.8,39.7c0.1,5.6-1.6,11.1-0.5,16.9c0.8,4.3,2.4,5.9,6.6,4.4c0.6-0.2,1.3,0.1,1.9,0.1
		c-2.4,1.8-5.2,2.1-8,2c-4,1.1-7.8,0.4-11.6-1.1c-10.5-4.1-21-8.1-31.6-11.6c-3.5-1.2-6.9-2.5-10-4.3C1373.5,48.7,1371.6,47,1373,44
		z"/>
	<path class="st36" d="M2448,0c2.5,9.3,7.6,17.5,11.2,26.4c2.5,5.9,5.2,11.8,7.8,17.7c1.2,2.7-0.1,4.4-2.3,5.7
		c-2.8,1.7-5.8,3.1-9,4.1c-11.1,3.4-21.6,8.1-32.6,11.6c-3.8,0.4-7.8-0.3-11.4,1.6c-0.2,0-0.5,0-0.7,0c-2.8,0.1-5.6-0.2-8-2
		c8.2,0.1,9.3-0.6,8.9-9.5c-0.4-8.6-1.5-17.3-0.7-25.9c0.8-8.4-0.9-16.9,0.7-25.3c0.3-1.5-0.2-3-0.8-4.4c0.7,0,1.3,0,2,0
		c1.7,1.3,2.3,3.2,2.3,5.3c0.1,15.9,0.1,31.9,0,46.9c-0.4,1.6,0.4,1.1-0.2,1.1c-0.1,0-0.1-0.2,0-0.5c2.7-7.4,6.1-14.6,8.9-22
		c3.2-8.2,7.5-15.8,9.9-24.3c0.8-3,3.1-4.6,5.1-6.5C2442,0,2445,0,2448,0z"/>
	<path class="st37" d="M1373,44c0,2.3,1.7,3,3.4,3.7c11.6,5,23.5,9,35.3,13.2c5.8,2,11.5,4,17.3,6.1c0,0.3,0,0.7,0,1
		c-0.1,2.4-2.1,3.3-3.7,4.3c-12.3,7.1-23.9,15.3-36,22.8c-3.3,2-6.9,3.1-10.2,5c-5.7,0-11.3,0-17,0c1.6-13.5,5.1-26.6,7.5-39.9
		c0.7-3.7,1.7-7.4,2.5-11.1C1372,47.3,1371.8,45.5,1373,44z"/>
	<path class="st37" d="M2422,63c13.9-4.6,27.6-9.5,41.1-15.1c1.8-0.8,3.9-1.3,3.9-3.9c1.2,1.5,1,3.3,1,5c3.7,16.9,7.5,33.8,10,51
		c-5.7,0-11.3,0-17,0c-16.9-7.4-31.1-19.3-47.1-28.3c-1.4-0.8-2.8-1.8-2.9-3.7c0-0.3,0-0.7,0-1c0,0,0,0,0,0
		C2414,63.9,2418.8,65.6,2422,63z"/>
	<path class="st38" d="M1999,94c21-17,42-34,63-51c4.5,0.9,3.2,4.5,2.9,7.1c-1.3,8.7-2.7,17.4-3.9,26.2c-0.7,4.6-0.9,9.3-1.7,13.9
		c-0.6,3.6-1.1,7.3-4.3,9.8c-15.7,0-31.3,0-47,0c-1.7-1.1-3.6-1.3-5.6-1.6c-1.9-0.3-3.5-0.9-3.9-3.1
		C1998.5,94.8,1998.6,94.4,1999,94z"/>
	<path class="st38" d="M1778,43c21,17,42,34,63,51c0.4,0.4,0.5,0.8,0.5,1.4c-0.4,2.1-2.1,2.8-3.9,3.1c-1.9,0.3-3.9,0.4-5.6,1.6
		c-15.7,0-31.3,0-47,0c-3.2-2.5-3.8-6.2-4.2-9.8c-1.5-13.2-3.5-26.4-5.6-39.6C1774.8,47.8,1773.2,44.1,1778,43z"/>
	<path class="st39" d="M1742,35c-1-0.3-2-0.7-3-1c-7-0.3-13.9-1.1-21.1-0.2c-8.1,1.1-16.5,0.2-24.6,1.3c-8.8,1.2-17.6,0.5-26.4,1.8
		c-3.9,1-7.9,0.3-11.8,0.7c-2.4-1.2-2.5-3.4-2-5.6c1.7-8.6,2.1-17.4,3.4-26c0.4-2.6,1.1-4.8,3.4-6.2c3.7,0,7.3,0,11,0
		c6.3,2.5,13,3.5,19.2,6.6c12.8,6.6,26.3,11.7,39.4,17.6c3.5,1.6,6.5,2.8,8.4-1.9c0.2-0.6,1.1-0.7,1.8-0.7
		C1743.9,25.6,1743.5,30.2,1742,35z"/>
	<path class="st39" d="M2101,34c-1,0.3-2,0.7-3,1c-1.6-4.8-1.8-9.3,2-13.3c0.5-0.1,1.2-0.2,1.4,0.2c2.8,5.8,6.6,3.4,10.6,1.6
		c14.4-6.4,29-12.5,43.2-19.3c4.4-2.1,9.5-1.8,13.8-4.2c3.7,0,7.3,0,11,0c1.8,1.3,3,2.8,3.3,5.2c1.4,9,1.8,18.2,3.6,27.2
		c0.4,2,0,4-2,5.3c-4-0.2-8,0.2-11.9-0.7c-1.1-0.3-2.3-1.1-3.3-0.9c-9.3,2-18.4-1-27.5-1.4c-7.8-0.3-15.7,0.3-23.6-1.3
		C2113,32.4,2106.9,33.7,2101,34z"/>
	<path class="st40" d="M3312,64c0.3-1.3,0.7-2.7,1-4c3.9-11.2,11.4-20.5,17.1-30.7c4.3-7.6,9-15,13.5-22.6c1.7-2.8,3.6-5.1,6.4-6.7
		c3.7,0,7.3,0,11,0c4.8,2.9,5.8,8.3,8,12.8c2.7,5.7,5.3,11.4,7.7,17.2c0.9,2.1,1.3,4.2-0.7,5.9c-0.7,1.2-1.8,1.9-3.1,2.5
		c-18.8,7.9-37.6,16-56.1,24.6C3315.3,63.8,3313.7,64,3312,64z"/>
	<path class="st40" d="M527,60c0.3,1.3,0.7,2.7,1,4c-7.3-0.8-13.3-5.1-19.8-7.7C495,50.9,482,44.9,468.9,39.2
		c-1.8-0.8-3.8-1.3-4.9-3.2c-1.8-1.6-1.7-3.4-0.9-5.4c3.7-8.9,7.9-17.6,11.7-26.3c0.8-1.9,2.9-2.7,4.2-4.2c3.7,0,7.3,0,11,0
		c6.4,3.5,8.4,10.5,12,16.1c7.1,11.2,13.5,22.8,20.6,33.9C524.5,53.2,525.7,56.6,527,60z"/>
	<path class="st41" d="M912,0c-3.9,4.1-9.7,4.7-14,8c-4.3,6.1-9.7,11.1-15.1,16.3c-7.6,7.4-14.9,15-22,22.9
		c-3.8,4.3-7,9.3-12.8,11.3c-3.2,0.7-4.1-1.6-4.9-3.8c-2.6-7.2-4-14.7-6.6-21.9c-2.3-6.4-3.2-13.2-6.1-19.4
		c-1.1-2.4-0.1-4.5,0.2-6.8c0-0.2,0.1-0.4,0.1-0.7c1.6-1.2,3.5-1.2,5.3-0.8c4.3,1.1,8.6,1.1,12.9,0.7c11.5-1.1,22.8,1.6,34.1,1
		c6.9-0.4,14,0.4,20.2-3.7c1.4-0.9,3-1.4,3.5-3.3C908.7,0,910.3,0,912,0z"/>
	<path class="st42" d="M326,0c-1.3,16.3-2.7,32.7-4,49c-2,2.1-4.6,2.3-7.3,2.4c-12.3,0.1-24.5,0.1-36.8,0c-1.2,0-2.3,0-3.5-0.3
		c-3.9-0.9-4.9-3-3-6.5c1-1.9,2.1-3.8,3.6-5.4c2.9-2.9,4.8-6.3,6.1-10.1c7.1-8.5,13.4-17.6,20.5-26.1c1.3-1.5,3-1.9,4.4-3.1
		C312.7,0,319.3,0,326,0z"/>
	<path class="st42" d="M3518,49c-1-11-2-22.1-3-33.1c-0.4-5.3-0.7-10.6-1-15.9c6.7,0,13.3,0,20,0c2.3,1,4,2.7,5.6,4.6
		c6.7,7.9,12.6,16.5,19.3,24.4c1.2,5.8,6,9.4,8.9,14.1c3.1,5.1,1.9,7.8-4.2,8c-13.3,0.3-26.5,0.2-39.8,0
		C3521.6,51.3,3519.5,50.8,3518,49z"/>
	<path class="st41" d="M2942,8c-4.3-3.3-10.1-3.9-14-8c1.7,0,3.3,0,5,0c3.8,4.9,9.1,5.9,14.8,6.5c10.4,1.2,20.8-0.3,31.2-0.5
		c8.1-0.4,16.2-0.5,24.3-0.5c6.3,0.4,7.7,2.8,5.8,8.7c-3.8,12-7.6,24.1-10.9,36.3c-0.9,3.3-0.8,7.6-5.7,8.3
		c-6.1-1.5-9.2-6.8-13.1-10.9c-8.2-8.7-16-17.7-24.9-25.7C2949.7,17.9,2945.6,13.2,2942,8z"/>
	<path class="st43" d="M1738,36c2.8,1.4,1.2,3.6,0.6,5.2c-4.9,12-10.5,23.8-14.7,36.1c-2.6,7.6-6.7,14.7-7.8,22.8
		c-16.3,0-32.7,0-49,0c12.5-11.4,25.1-22.8,37.7-34.1c7.4-6.7,15-13.1,22.4-19.7C1730.8,42.8,1733.8,38.8,1738,36z"/>
	<path class="st43" d="M2124,100c0.3-4.1-2.5-7.1-3.6-10.7c-4-13.4-10.5-25.8-14.7-39.1c-1-3.1-3.1-5.9-4.2-9
		c-0.6-1.6-2.3-3.8,0.5-5.2c23.7,21.3,47.3,42.7,71,64C2156.7,100,2140.3,100,2124,100z"/>
	<path class="st44" d="M2549,73c-0.3-1.3-0.7-2.7-1-4c0.3,0,0.7,0,1,0c12,1.4,24,2.8,36,4.3c12.3,1.5,24.6,3.1,37,4.7
		c3.1,1,3.5,3.1,1.3,5.1c-5.8,5.6-9.8,13.1-17.3,16.9c-14.3,0-28.7,0-43,0c-5.9-3.8-7.4-10.7-11.1-16c-1.2-1.7-2-3.8-3.1-5.6
		C2547.7,76.6,2547.1,74.7,2549,73z"/>
	<path class="st44" d="M1292,69c-0.3,1.3-0.7,2.7-1,4c0.9,1.7,1.3,3.4,0.3,5.2c-3.4,5.9-6.5,11.9-10,17.7c-1.1,1.8-2.8,2.8-4.3,4.1
		c-14.3,0-28.7,0-43,0c-7.6-3.8-11.7-11.1-17.3-16.9c-3.1-3.2-1.1-6.1,4.3-7c7.8-1.3,15.7-1.9,23.7-1.7c1.4,0,3,0.5,4.3-0.5
		c11.9-1.5,23.7-2.9,35.6-4.4c2.1-0.3,4.3-0.4,6.4-0.6C1291.3,69,1291.7,69,1292,69z"/>
	<path class="st45" d="M2173,37c4,0,8,0,12,0c3.2-3.2,7.7-2.9,11.6-3.7c11-2.4,22-5.1,33.1-6.8c2.7-0.4,5.9-1.2,5.3,3.6
		c-9.9,11.8-19.7,23.6-29.6,35.4c-7.6,9.2-15.2,18.3-22.8,27.5c-1.8,2.2-3.1,4.7-4.6,7c-1,0-2,0-3,0c2-2.3,2.8-5,3.2-8.1
		c1.8-13.9,3.5-27.8,6.4-41.5c0.6-2.9,0.7-5.9,1-8.9c0.2-2.4-1.8-2.4-3.3-3C2179.2,37.4,2175.8,38.8,2173,37z"/>
	<path class="st45" d="M1655,37c4,0,8,0,12,0c-2.8,1.8-6.2,0.6-9.2,1.5c-2.4,0.7-3.4,1.6-3.1,4.5c0.7,7.4,2.8,14.6,3.6,22
		c1,9,3.1,17.9,3.6,26.9c0.2,3.2,1.1,5.8,3.1,8.1c-1,0-2,0-3,0c-3.9-7.4-10.1-13.1-15.2-19.6c-10-12.5-20.4-24.8-30.6-37.2
		c-3.7-4.5-7.4-8.9-11.2-13.3c-0.6-4.7,2.6-4,5.3-3.6c8.3,1.5,16.6,3.1,24.8,5.1c4.7,1.1,9.4,2,14.1,3
		C1651.3,35,1653.2,35.7,1655,37z"/>
	<path class="st46" d="M284,29c-1,5.6-6,8.6-8.6,13.1c-1.1,1.9-4.1,3.6-3.2,5.7c1,2.3,4.2,1.1,6.4,1.1C293,49,307.5,49,322,49
		c0.3,0.3,0.7,0.7,1,1c0.4,0.2,0.5,0.4,0.4,0.7c-0.1,0.2-0.2,0.3-0.4,0.3c-2.3,0.9-2.7,2.9-2.8,4.9c-0.6,14.7-3.2,29.3-3.2,44.1
		c-2.3,0-4.7,0-7,0c-6.3-2.4-9.4-8.3-13.4-13c-6.9-8.1-13.8-16.1-20.5-24.4c-1.4-1.8-3.7-3.7-2.1-6.6c-1.7-3-3.3-6-5-9
		c-0.5-0.8-0.5-1.6,0-2.3c3.4-4.8,6.8-9.8,10.8-14.1C280.9,29.4,282,28,284,29z"/>
	<path class="st46" d="M3518,49c14.6,0,29.3,0,43.9,0c2.1,0,5,1.1,5.9-1.1c0.9-2-1.8-3.6-3-5.3c-2.2-3.1-4.6-6.1-7-9.1
		c-1.1-1.3-1.9-2.7-1.9-4.5c0.6-0.4,1.3-0.6,1.8-0.2c5.8,5.1,10.9,10.6,13.2,18.2c-1.7,3-3.3,6-5,9c1.6,2.7-0.4,4.6-1.8,6.2
		c-9.5,11.3-18.9,22.7-28.5,33.9c-1.6,1.9-3.7,2.7-5.7,3.9c-2.3,0-4.7,0-7,0c0-14.8-2.6-29.4-3.2-44.1c-0.1-2-0.6-4-2.8-4.9
		c-0.4-0.2-0.5-0.4-0.4-0.7c0.1-0.2,0.2-0.3,0.4-0.3C3517.3,49.7,3517.7,49.3,3518,49z"/>
	<path class="st47" d="M2838,53c11.3,2,22.7,4,34,6c5.7,2.5,12.1,2.2,18,4c0.2,0.2,0.3,0.4,0.5,0.5c0.2,0.5,0.2,0.9,0.2,1.4
		c-0.2,0.5-0.4,0.8-0.8,1.2c-16.5,12.5-33.7,23.8-51.8,33.9c-3.7,0-7.3,0-11,0C2831.6,84.5,2831.8,68.1,2838,53z"/>
	<path class="st47" d="M968,59c11.3-2,22.7-4,34-6c6.2,15.1,6.4,31.5,11,47c-3.7,0-7.3,0-11,0c-18-10.1-35.3-21.3-51.8-33.8
		c-0.4-0.3-0.7-0.7-0.8-1.2c-0.1-0.5,0-1,0.2-1.5c0.2-0.2,0.3-0.4,0.5-0.5C955.9,61.2,962.3,61.5,968,59z"/>
	<path class="st48" d="M125,0c0,10.1,0,20.2,0,30.2c0,2,0.3,4-1,5.8c-1,0-2,0-3,0c-1.2,1.4-2.8,1.8-4.5,2.1
		C102.4,34.9,88.2,32,74,28.7c-2-0.5-3.9-0.7-5.9-0.1c-0.5,0.1-1,0.1-1.5-0.1c-0.2-0.2-0.4-0.3-0.6-0.5c-0.3-3.4,1.7-5.5,4.1-7.4
		C77.1,14.9,84,9.1,91,3.3c1.1-0.9,1.8-1.9,2-3.3C103.7,0,114.3,0,125,0z"/>
	<path class="st48" d="M3719,36c-1,0-2,0-3,0c0,0,0,0,0,0c-0.8-12-0.8-24,0-36c10.3,0,20.7,0,31,0c1.8,4.6,6.3,6.5,9.6,9.6
		c4.6,4.2,9.6,8,14.4,12c2,1.7,3.2,3.7,3,6.4c-0.2,0.2-0.4,0.3-0.6,0.5c-0.5,0.2-1,0.2-1.5,0.1c-7.3-0.7-13.9,2.3-20.9,3.5
		c-8.8,1.6-17.4,3.9-26.2,5.4c-1.9,0.3-3.5-0.4-5-1.3C3719.5,36.2,3719.2,36.1,3719,36z"/>
	<path class="st49" d="M2329,46c3.9-1.4,4.6,1,5,4c-1.8,1.8-1.9,4.5-1.8,6.4c0.1,8.1-1.8,15.9-2.4,23.9c-0.5,6.5-0.5,13.3-2.8,19.7
		c-16.7,0-33.3,0-50,0c0.2-1.6,1.2-2.7,2.3-3.8c13.7-12.3,24.8-27.2,38.7-39.3c0.9-1.4,2.1-2.6,3-4c1.3-2,3-3.7,5-5
		C2327,47.3,2328,46.7,2329,46z"/>
	<path class="st49" d="M1506,50c0.4-3,1.1-5.4,5-4c1,0.7,2,1.3,3,2c1.3,2,3,3.7,5,5c0.9,1.4,2.1,2.6,3,4c11,9.7,20.4,20.8,30.4,31.5
		c3.6,3.8,8.5,6.4,10.6,11.6c-16.7,0-33.3,0-50,0c-1.9-2.2-1.3-5.2-1.4-7.6c-0.6-7.8-1.6-15.6-2.5-23.3
		C1508.4,62.8,1509.2,56,1506,50z"/>
	<path class="st50" d="M90,96c1.7,0.7,3.3,1.3,5,2c-1.6,1.9-4.4,0.3-6,2c-11.7,0-23.3,0-35,0c3-22.9,6-45.9,9-68.8
		c0.2-1.8,0.1-3.9,3-3.2c0,0,0,0,0,0c4.1,4.5,5.1,10.5,7.1,15.8c5.5,14.6,10.7,29.3,15.6,44.1C89.6,90.6,90.2,93.2,90,96z"/>
	<path class="st50" d="M3745,98c4.4-0.8,6.5-3.6,7.5-7.9c1.1-4.8,3.9-9.1,4.5-14.1c-0.5-6.3,2.9-11.6,4.6-17.3
		c2.5-8.8,6.3-17,9.4-25.6c0.7-1.9,1.5-3.7,3-5c0,0,0,0,0,0c2-0.6,2.8,0.5,2.9,2.2c0.9,13.2,3.3,26.2,5.1,39.3
		c1.4,10.1,2.7,20.3,4,30.5c-11.7,0-23.3,0-35,0C3749.4,98.3,3746.6,99.9,3745,98z"/>
	<path class="st51" d="M1379,100c2.5-4,6.8-5.7,10.6-8c11.5-7.3,23-14.4,34.5-21.7c1.6-1,3.1-2,4.9-2.3c5.5,4.8,10.9,9.8,15.4,15.6
		c3.7,4.8,9,7.9,13,12.3c1.2,1.3,2.4,2.7,3.6,4.1C1433.7,100,1406.3,100,1379,100z"/>
	<path class="st51" d="M2411,68c10.1,4.4,18.8,11,28.1,16.8c5.5,3.4,10.9,6.8,16.4,10.3c2.1,1.3,4.2,2.7,5.5,5c-27.3,0-54.7,0-82,0
		c2.6-3.5,5.7-6.5,9.2-9.1c6.4-4.9,10.5-12,16.6-17.2C2406.9,71.9,2408.9,69.9,2411,68z"/>
	<path class="st52" d="M2333,41c-3.6-0.5-2.4-4.1-4-6c-2.4-10.2-3.5-20.6-5.5-30.8c-0.3-1.4-0.7-2.9,0.5-4.2c20.7,0,41.3,0,62,0
		c-3.8,5.7-9.8,8.9-15.1,12.8C2358.3,22.2,2345.5,31.4,2333,41z"/>
	<path class="st52" d="M1511,35c-1.6,1.9-0.4,5.5-4,6c-15.8-11.8-31.6-23.5-47.5-35.3c-2.1-1.6-4.1-3.4-5.5-5.7c20.7,0,41.3,0,62,0
		c1.2,1.3,0.8,2.8,0.5,4.2C1514.5,14.4,1513.4,24.8,1511,35z"/>
	<path class="st16" d="M274,56c10.6,12.8,21.3,25.6,31.9,38.4c1.5,1.8,2.8,3.7,4.1,5.6c-17.7,0-35.3,0-53,0
		c0.7-10.5,4.4-20.4,6.5-30.6c0.8-4,2.2-8,2.8-12.1c0.3-2.3,0.8-4.7,3.7-5.3C271,53.7,272.3,55,274,56z"/>
	<path class="st16" d="M3530,100c7.5-10.6,16.4-20.1,24.7-30c3.8-4.6,7.7-9.2,11.3-14c1.7-1,3-2.3,4-4c2.7,0.5,3.2,2.7,3.7,4.8
		c2.8,11.9,5.6,23.9,8.5,35.8c0.6,2.4,0.9,4.9,0.8,7.4C3565.3,100,3547.7,100,3530,100z"/>
	<path class="st53" d="M2055,100c2.5-16.6,4.9-33.2,7.5-49.8c0.4-2.5,1.1-4.9-0.5-7.2c0.7-1.3,0.7-2.7,0-4c6-3.7,13.1-4.2,19.7-6.1
		c3.2-0.9,6.4-1.6,9.7-2.2c1.9-0.4,4.1-1,5.5,0.9c1.5,2,0.1,3.7-0.9,5.4c-5.5,10.2-10.9,20.5-16.5,30.7
		c-5.8,10.8-11.7,21.6-17.5,32.3C2059.7,100,2057.3,100,2055,100z"/>
	<path class="st53" d="M1778,43c-2.3,6.4,0.7,12.4,1.5,18.6c1.6,12.8,3.6,25.6,5.5,38.4c-2.3,0-4.7,0-7,0
		c-10.8-19.6-21.5-39.3-32.2-58.9c-0.7-1.3-1.2-2.7-1.8-4.1c-1.1-1.7-2.4-3.4-0.9-5.4c1.3-1.7,3.2-1.4,5-1
		c9.5,2.1,19.1,4.1,28.3,7.2c0.6,0.2,1.1,0.7,1.5,1.2C1777.3,40.3,1777.3,41.7,1778,43z"/>
	<path class="st54" d="M196,43c-6.2-4.7-10-11.8-16.9-15.9c-5.1-3-8.3-8.4-12.6-12.6C161.3,9.7,157,4,151,0c19,0,38,0,57,0
		c-1.2,11.4-5.4,22.1-8,33.1c-0.8,3.3-1.2,6.8-3,9.9C196.7,43,196.3,43,196,43z"/>
	<path class="st54" d="M3689,0c-9.5,6.8-16.1,16.6-24.8,24.1c-7,6-13.5,12.6-20.2,18.9c-0.3,0-0.7,0-1,0c-4.4-14.2-8.7-28.3-11-43
		C3651,0,3670,0,3689,0z"/>
	<path class="st55" d="M938,100c-7,0-14,0-21,0c-11-4.4-19.8-11.9-28.4-19.7c-0.2-0.5-0.2-1-0.1-1.5c0.4-1,1.3-1.6,2-2.3
		c1.3-0.8,2.7-1.4,4.2-2c1.7-0.5,3.5-0.6,5.2-0.9c5.2-1.2,10.4-2.3,15.4-4c1.6-0.5,3.3-0.6,4.9-0.9c1.2-0.1,2.2-0.7,3.3-1
		c1.6-0.3,3.1-0.5,4.6-1c0.4-0.2,0.9-0.3,1.4-0.3c2.7,0.2,5-1.3,7.5-1.7c2.9-0.5,5.6-1.7,8.5-1.9c1.8,0.2,3.2,1,4.5,2.2l0,0
		c2.1,1.9,1.5,4.3,0.8,6.5c-2.5,7.7-5.9,15.1-8.3,22.8C941.7,96.7,940.2,98.7,938,100z"/>
	<path class="st55" d="M2923,100c-7,0-14,0-21,0c-2.5-1.3-3.9-3.6-4.7-6.2c-2.2-7.5-5.6-14.5-8-21.9c-0.7-2.3-1.6-4.8,0.6-6.9v0
		c1.2-1.2,2.8-1.7,4.5-2c2.9,0.1,5.5,1.5,8.4,1.8c2.6,0.3,4.9,1.9,7.5,1.7c0.5,0,0.9,0.1,1.4,0.2c1.5,0.5,3,0.9,4.6,1.2
		c1.1,0.3,2.2,0.8,3.3,0.9c1.7,0.2,3.3,0.5,4.9,0.9c4.9,2,10.1,3,15.3,4c1.7,0.2,3.5,0.4,5.2,0.9c1.4,0.6,2.8,1.1,4.2,1.9
		c0.8,0.7,1.6,1.2,2.1,2.2c0.2,0.5,0.2,1,0,1.5c-6.3,6.6-14,11.4-21.3,16.7C2928,98.4,2925.2,98.6,2923,100z"/>
	<path class="st56" d="M3317,68c12.5,3.4,24.5,8.5,36.7,12.7c16.4,5.6,32.6,11.6,48.8,17.5c1.2,0.4,2.3,1.2,3.5,1.9c-23,0-46,0-69,0
		c-5.1-1.8-7.2-6.6-10.2-10.3c-4.3-5.2-8.2-10.7-11.9-16.3C3312.7,70.1,3313.4,68.5,3317,68z"/>
	<path class="st56" d="M434,100c3.7-2.6,8.2-3.5,12.4-5c22.3-8.2,44.7-16.2,67.1-24.2c3.1-1.1,6.4-1.9,9.5-2.8
		c3.8,0.5,4.4,2.1,1.9,5.7c-4.7,7.1-10,13.9-15.3,20.6c-1.9,2.4-3.7,4.6-6.6,5.7C480,100,457,100,434,100z"/>
	<path class="st57" d="M938,100c3.3-11.9,9-23,12-35c1.9,0,3.6,0.6,5.1,1.8c13.3,10.9,28.8,18.6,42.7,28.7c1.7,1.2,3.9,2,4.3,4.5
		C980.7,100,959.3,100,938,100z"/>
	<path class="st57" d="M2890,65c3,12,8.7,23.1,12,35c-21.3,0-42.7,0-64,0c0.3-2.1,2-2.9,3.5-4c14.3-10.1,29.9-18.2,43.5-29.3
		C2886.4,65.6,2888.1,65,2890,65z"/>
	<path class="st58" d="M1002,47c-3.4-12-4.4-24.5-7-36.7c-0.7-3.4-1.4-6.9-2-10.3c14,0,28,0,42,0c-5.1,10.8-11.6,20.8-17.4,31.1
		c-4.2,7.3-8.4,14.6-12.6,21.9C1001.5,52.3,1004.1,48.5,1002,47z"/>
	<path class="st58" d="M2847,0c-2.7,14.6-5.3,29.1-8,43.7c-0.2,1.1-0.7,2.2-1,3.3c-2.1,1.5,0.5,5.3-3,6
		c-7.3-12.6-14.6-25.1-21.8-37.7c-2.9-5-5.5-10.2-8.2-15.3C2819,0,2833,0,2847,0z"/>
	<path class="st59" d="M1655,37c-6.3,1.4-12.1-1.7-18-2.6c-9.2-1.5-18.2-3.7-27.3-5.7c-1.8-0.4-3.7-1.1-4.6,1.3
		c-1.2-0.7-1.8-1.7-2-3c0.2-2.8,1.9-4.2,4.2-5.5c11.1-6.1,22.6-11.4,33.5-17.6c3.9-2.2,8.5-1.6,12.2-3.9c2.3,0,4.7,0,7,0
		C1658.3,12.3,1656.7,24.7,1655,37z"/>
	<path class="st59" d="M2235,30c-0.8-2.1-2.4-1.8-4.1-1.5c-12.3,2.7-24.6,5.3-37,7.9c-2.9,0.6-5.9,1.1-8.9,0.5
		c-1.7-12.3-3.3-24.7-5-37c2.3,0,4.7,0,7,0c16.7,4.4,30.8,14.3,46.1,21.7c2.3,1.1,3.5,2.9,3.9,5.3C2236.8,28.3,2236.2,29.3,2235,30z
		"/>
	<path class="st60" d="M479,0c-3.7,8.6-7.4,17.3-11.3,25.8c-1.5,3.3-3.3,6.5-3.7,10.2c-6.9,0-13.4-2.1-20.1-3.4
		c-9-1.7-17.9-3.7-26.9-5.6c-0.8-4.4,3.3-5.3,5.6-6.5c10-5.1,19.7-10.6,29.6-15.9c3.5-1.9,7.6-2.2,10.8-4.6C468.3,0,473.7,0,479,0z"
		/>
	<path class="st60" d="M3376,36c-1.8-8.2-6.5-15.1-9.5-22.8c-1.7-4.4-4.4-8.5-5.5-13.2c5.3,0,10.7,0,16,0c7.5,3,14.7,6.5,21.7,10.5
		c7.2,4.2,15,7.5,22,12.2c1.5,1,3.2,2,2.3,4.3c-13.4,2.8-26.7,5.5-40.1,8.2C3380.7,35.7,3378.3,35.8,3376,36z"/>
	<path class="st61" d="M527,60c-5.1-2.1-5.7-7.5-8.2-11.4c-9.4-14.6-18-29.7-26.9-44.6c-0.8-1.3-1.2-2.7-1.8-4.1c11.3,0,22.7,0,34,0
		c-1.4,5.3,1.8,10,2.3,15c0.1,1.5,0.7,2.9-0.3,4.3c-2.2,3.1-1.3,6.4-0.3,9.5c1.2,3.9,1.8,7.7,0.5,11.7c-1.1,3.7,0,7.2,0.9,10.7
		C527.8,54.2,528.5,57.1,527,60z"/>
	<path class="st61" d="M3350,0c-6,12-13.6,23-20.3,34.7c-4.2,7.3-8.6,14.5-12.9,21.8c-0.9,1.6-1.7,3.3-3.8,3.6
		c-0.7-1.5-1.4-3.3-0.8-4.8c2.9-7.4,1.1-15,1.3-22.5c0.1-3.9,3.3-7.8,1.3-11.5c-2.1-4.1-1.1-7.7,0.2-11.4c1.1-3.2,1.5-6.4,1-9.7
		C3327.3,0,3338.7,0,3350,0z"/>
	<path class="st62" d="M3034,94c0,0.3,0,0.7,0,1c-0.2,2.2-1.8,2.8-3.6,3.3c-1.8,0.5-3.8,0.5-5.4,1.7c-25.3,0-50.7,0-76,0
		c-2.6-2.8-1-6.2-0.8-9.1c0.2-4.1,0.1-8.7,3.8-11.9c2.9-2.8,6.5-1.4,9.4-0.8c21.2,4.1,42.4,8,63.5,12.3
		C3028.1,91.2,3031.3,91.9,3034,94z"/>
	<path class="st62" d="M806,95c0-0.3,0-0.7,0-1c6.3-4,13.7-4.5,20.7-5.9c16.9-3.2,33.9-6.6,50.8-9.8c3.4-0.6,7.1-2,10.4,0.6
		c4.6,6.5,4.8,13.6,3,21c-25.3,0-50.7,0-76,0c-1.6-1.2-3.6-1.2-5.4-1.7C807.8,97.8,806.2,97.2,806,95z"/>
	<path class="st63" d="M3571,47c-6.1-5.1-9.4-12.5-15-18c-4.3-3.2-6.6-8.2-9.9-12.3c-4.3-5.4-9.2-10.3-12.1-16.7c14.3,0,28.7,0,43,0
		c1,1,1.8,2,1.6,3.5c-1.2,8.8-1.5,17.7-2.3,26.6c-0.5,5.1-1.9,9.9-2.3,14.9C3573.3,46.2,3572.3,46.8,3571,47z"/>
	<path class="st63" d="M284,29c-5.5,5.6-9,12.9-15,18c-1.3-0.2-2.3-0.9-3-2c-0.4-5-1.8-9.9-2.3-14.9c-0.8-8.9-1.1-17.8-2.3-26.6
		C261.2,2,262,1,263,0c14.3,0,28.7,0,43,0C299.7,10.4,291.8,19.7,284,29z"/>
	<path class="st64" d="M2169,0c-1.1,2-2.9,3.1-5,3.8c-18.6,6.9-36.3,15.9-54.6,23.5c-7.7,3.2-8.4,2.9-8.4-5.4c-1-0.6-2-1.5-1.9-2.7
		c0.7-6.7,0.2-13.6,4.9-19.3C2125.7,0,2147.3,0,2169,0z"/>
	<path class="st64" d="M1739,22c0,8.3-0.7,8.5-8.4,5.4c-18.6-7.7-36.5-17.1-55.5-23.9c-1.8-0.6-3.1-1.8-4.1-3.4c21.7,0,43.3,0,65,0
		c4.7,5.6,4.2,12.6,4.9,19.3C1741,20.5,1740,21.4,1739,22z"/>
	<path class="st65" d="M1506,50c1-0.7,1.4-2.7,3-2c1.3,0.5,0.6,2,0.7,3.1c0.8,7.7,2,15.4,2.5,23.1c0.4,7.1,1.5,14.2,2.4,21.2
		c0.2,1.4-1.1,3.1-1.7,4.6c-11.7,0-23.3,0-35,0c0.4-1.4,0.5-3,1.2-4.2C1488.1,80.5,1497.1,65.2,1506,50z"/>
	<path class="st65" d="M2327,100c-3.5-4.8-1.4-10.3-0.3-14.7c1.2-4.7,0.8-9.4,1.4-14c1-7.1,2.5-14.4,2-21.7c0-0.5,0.4-1.5,0.8-1.6
		c1.7-0.5,2,1.4,3.1,2c8.9,15.2,17.9,30.5,26.8,45.8c0.7,1.2,0.8,2.8,1.2,4.2C2350.3,100,2338.7,100,2327,100z"/>
	<path class="st66" d="M200,49c4.1,7.9,8.3,15.7,12.2,23.7c4.5,9.2,10.4,17.6,13.8,27.3c-12.7,0-25.3,0-38,0c3.3-13.2,4.7-26.6,7-40
		c0.5-3.1,1.4-6.1,1.9-9.2C197.3,48.9,198.1,48.2,200,49z"/>
	<path class="st66" d="M3614,100c3.4-9.7,9.3-18.1,13.8-27.3c3.9-8,8.1-15.8,12.2-23.7c2.9-1.2,2.9,1,3.2,2.8
		c2.6,14.8,5.2,29.6,7.8,44.4c0.2,1.3,0.7,2.5,1,3.8C3639.3,100,3626.7,100,3614,100z"/>
	<path class="st67" d="M1277,100c2.1-6.1,5.9-11.3,8.9-16.9c1.8-3.3,3.4-6.7,5.1-10.1c2.9-4.1,6.3-2.6,9.5-0.5
		c12.8,8.6,25.5,17.3,38.2,26c0.5,0.4,0.9,1,1.3,1.5C1319,100,1298,100,1277,100z"/>
	<path class="st67" d="M2549,73c2.9,7.2,7.4,13.5,10.9,20.3c1.1,2.2,2.6,4.2,3.1,6.7c-21,0-42,0-63,0c5.6-5.2,12.5-8.7,18.6-13.2
		c6.4-4.7,13.4-8.5,19.7-13.4C2541.6,70.9,2545.3,68.2,2549,73z"/>
	<path class="st68" d="M2061,36c-8-11.6-15.5-23.5-22-36c16.3,0,32.7,0,49,0c1.7,1.8,1.3,3.6,0.1,5.4c-5.9,9.4-11.9,18.6-17.8,28
		c-0.7,1.1-1.5,2.2-2.4,3.1C2065.3,38.8,2063,39.4,2061,36z"/>
	<path class="st68" d="M1801,0c-6.5,12.5-14,24.4-22,36c-3,3.1-5,3.1-7.8-0.6c-3.8-5-6.6-10.6-10.3-15.7c-3.1-4.3-5.5-9-8.4-13.4
		c-1.4-2.1-2.5-4-0.5-6.2C1768.3,0,1784.7,0,1801,0z"/>
	<path class="st69" d="M2642,34c-1.1,2.7-2.8,1.5-4.5,0.7c-18.8-9.2-37.5-18.3-56.3-27.5C2577,5.1,2572,4.3,2569,0
		c16.7,0,33.3,0,50,0c6,3.1,8.3,9.3,11.8,14.4c3.1,4.5,6.1,9.1,9.5,13.3C2641.8,29.6,2643.2,31.5,2642,34z"/>
	<path class="st69" d="M1271,0c-1.6,2.8-4.5,3.8-7.2,5.1c-20.4,9.9-40.9,19.7-61.3,29.6c-1.6,0.8-3.3,2-4.5-0.7
		c-1.1-1.9-0.2-3.7,0.9-5c5.9-7.5,10.9-15.8,16.3-23.7c1.5-2.2,3.3-4.1,5.8-5.3C1237.7,0,1254.3,0,1271,0z"/>
	<path class="st70" d="M1752,0c3.3,7.4,8.1,14,12.5,20.7c3,4.6,5.7,9.3,8.6,13.9c1.8,2.8,3.3,3.5,5.8,1.3c-0.3,1-0.7,2-1,3
		c-10.4-0.4-20.2-3.8-30.2-6.1c-4.4-1-5.1,0.4-3.8,4.1c-0.7-0.7-1.3-1.3-2-2c-1-4.3-2-8.7-3-13c0.1-7.5-2.9-14.5-3-22
		C1741.3,0,1746.7,0,1752,0z"/>
	<path class="st70" d="M2061,36c1.7,1,3.3,2.6,5-0.1c7.1-11.3,14.3-22.7,21.4-34c0.3-0.5,0.4-1.3,0.6-1.9c5.3,0,10.7,0,16,0
		c-0.1,7.5-3.1,14.5-3,22c-1,4.3-2,8.7-3,13c-0.7,0.7-1.3,1.3-2,2c1.3-3.7,0.6-5.2-3.8-4.1c-10,2.3-19.8,5.7-30.2,6.1
		C2061.7,38,2061.3,37,2061,36z"/>
	<path class="st71" d="M2439,0c-2.3,7.6-5.6,14.8-8.7,22c-3.6,8.5-7,17-10.5,25.5c-1.8,4.2-4.1,8.1-5.6,12.5
		c-1.8-20.1-0.9-40.1-1.2-60C2421.7,0,2430.3,0,2439,0z"/>
	<path class="st71" d="M1427,0c-0.2,19.9,0.6,39.8-0.7,61.2c-2.4-5.3-4.7-9.3-6-13.7c-1.6-5.3-4.4-9.9-6.3-15
		c-4-11-9.6-21.3-13-32.5C1409.7,0,1418.3,0,1427,0z"/>
	<path class="st72" d="M3840,4c-6.8,0.1-12.7,3.4-19,5.2c-13.7,3.9-27.2,8.5-40.8,12.9c-1.4,0.5-2.9,1.2-4.2-0.2
		c-1.2-1.3-0.6-2.7-0.2-4.2c1.8-5.8,1.4-11.8,2.2-17.7c19.3,0,38.7,0.1,58-0.1C3839.4-0.1,3840.8,0.6,3840,4z"/>
	<path class="st72" d="M62,0c0.9,6.2,0.3,12.6,2.5,18.7c1.1,3.1-0.8,4.8-4.2,3.5c-6.7-2.5-13.6-4.2-20.4-6.3
		C27.9,12.2,15.9,8.2,4,4.4C2.7,4,1.3,4.1,0,4c-0.8-3.4,0.6-4.1,4-4.1C23.3,0.1,42.7,0,62,0z"/>
	<path class="st73" d="M1182,0c11.3,0,22.7,0,34,0c1.5,1.5,0.9,3-0.1,4.4c-5.5,7.4-9.7,15.7-15.8,22.7c-2.1,2.4-2.8,5.6-4.3,8.4
		c-0.3,0.5-0.6,0.8-1.1,1c-1.1,0.2-2-0.1-2.9-0.7c-7.1-9.9-14.9-19.4-22.7-28.9c-1.8-2.2-3.4-4.2-1.1-6.9c0.7,0,1.3,0,2,0
		C1174,4.2,1178,1.5,1182,0z"/>
	<path class="st73" d="M2670,0c0.7,0,1.3,0,2,0c2.3,2.7,0.7,4.8-1.1,6.9c-6.7,7.8-12.9,16-19.2,24.1c-1.3,1.4-2.4,3.1-4.1,4.2
		c-1,0.5-1.9,0.6-2.9,0.1c-6.3-10.7-13.9-20.5-20.6-30.9c-1-1.5-1.6-2.9-0.1-4.5c11.3,0,22.7,0,34,0C2662,1.5,2666,4.2,2670,0z"/>
	<path class="st74" d="M3423,27c-13.3-8.3-27.3-15.2-41.1-22.6c-2-1.1-4.4-1.7-4.9-4.4c18.3,0,36.7,0,55,0c2.8,4.8,1.4,11.4-3,14
		c-2.3,4.4-4,8.9-3,14c-0.3,0-0.7,0-1,0C3424.3,27.7,3423.7,27.3,3423,27z"/>
	<path class="st74" d="M463,0c-0.5,2.8-2.9,3.4-4.9,4.4c-12.9,7-25.8,13.9-38.7,20.9c-0.9,0.5-1.6,1.1-2.4,1.7c-0.7,0.3-1.3,0.7-2,1
		c-0.3,0-0.7,0-1,0c1-5.1-0.7-9.6-3-14c-4.4-2.6-5.8-9.2-3-14C426.3,0,444.7,0,463,0z"/>
	<path class="st75" d="M1076,30c-5.4-9.6-8.7-20-13-30c11.3,0,22.7,0,34,0c3.8,1.9,8.9,2.1,9.3,7.9c-0.3,3-3.1,3.7-4.8,5.4
		c-6.2,5.7-12.6,11.1-18.9,16.8C1080.5,31.9,1078.2,33.3,1076,30z"/>
	<path class="st75" d="M2777,0c-4.2,10.1-7.7,20.4-13,30c-1.5,2.5-3.8,2.2-5.5,0.8c-8.2-7-16.3-14.1-24.3-21.4
		c-0.4-0.3-0.4-0.9-0.5-1.4c0.4-5.8,5.5-6.2,9.3-8C2754.3,0,2765.7,0,2777,0z"/>
	<path class="st76" d="M2237,27c-7.5-5.3-15.8-9-23.9-13c-7.4-3.7-14.3-8.4-22.3-10.9c-1.5-0.5-2.9-1.6-3.8-3.1c18,0,36,0,54,0
		c2.4,1.6,3.1,3.7,2.2,6.4c-1,3-0.7,6.2-1.6,9.2c-0.4,1.4-0.1,3.5-2.6,3.4c-2.5,6.2-2.1,7.1,4.2,8.1c0.9,0.1,1.8,0.6,2.8,0.9
		c-2.3,0-4.7,0-7,0C2238.3,27.7,2237.7,27.3,2237,27z"/>
	<path class="st76" d="M1653,0c-2.1,2.9-5.5,3.4-8.4,4.9c-13.3,6.7-26.6,13.6-39.8,20.4c-0.7,0.4-1.2,1.1-1.8,1.7
		c-0.7,0.3-1.3,0.7-2,1c-2.3,0-4.7,0-7,0c0.9-0.3,1.8-0.8,2.8-0.9c6.3-1,6.8-1.9,4.2-8.1c-1.6,0.2-2-0.9-2.3-2
		c-1.1-4.1-1.3-8.4-2.2-12.6c-0.5-2.1,1.1-3.3,2.5-4.4C1617,0,1635,0,1653,0z"/>
	<path class="st77" d="M2655,93c3.2,3,8.2,3.4,11,7c-0.7,0-1.3,0-2,0c-8.1-1.8-14.7-6.7-22-10.2c-2.8-2.9-6-5.2-9.5-7.2
		c-7.1-4-7.9-7.5-4.7-14.7c3.6-7.9,7.9-15.4,10.4-23.7c0.8-2.6,3.5-4,4.8-6.3v0c0.7-0.9,0.6-3.1,2.8-1.9c2.7,5.5,2.3,11.6,3.6,17.4
		c2.6,12.2,3.4,24.7,5.5,37C2655.1,91.4,2655.2,92.2,2655,93z"/>
	<path class="st77" d="M1174,100c2.8-3.6,7.8-3.9,11-7c-0.2-0.8-0.1-1.7,0.2-2.5c2.1-12.1,3-24.4,5.4-36.5c0.9-4.7,1.7-9.5,2.2-14.3
		c0.2-1.6,0.7-2.9,2.2-3.7l0,0c2-0.6,1.1,1.5,2,2v0c6.3,6.5,7.8,15.5,11.9,23.2c1.5,2.7,2.8,5.6,4.1,8.5c2.6,5.9,1.9,8.8-3.7,12
		c-4,2.3-8,4.7-11.2,8.1c-7.3,3.4-13.9,8.5-22.1,10.2C1175.3,100,1174.7,100,1174,100z"/>
	<path class="st78" d="M576,100c9.6-6.4,19.2-12.8,28.9-19.1c7-4.6,14.1-9.2,21.1-13.9c3.5,0.4,4.7,2.9,2.5,7
		c-2.9,5.6-4.7,11.7-7.4,17.4c-1.5,3.3-2.5,6.9-6.2,8.6C602,100,589,100,576,100z"/>
	<path class="st78" d="M3214,67c10.9,7.1,21.9,14.2,32.8,21.4c5.8,3.8,11.5,7.7,17.2,11.6c-13,0-26,0-39,0c-5.5-2.9-6-8.9-8.3-13.7
		c-1.9-4-3.2-8.3-5.4-12.3c-1.1-2.1-1-4.2-0.2-6.3C3211.8,66.5,3212.8,66.1,3214,67z"/>
	<path class="st53" d="M1849,0c0.1,20.9-1.7,41.7-0.9,62.6c-0.5,0.1-0.9,0.2-1.4,0.3c-0.9-2-2.4-4-2.7-6.1
		c-1.9-11-5.8-21.5-8.7-32.2c-2.2-8.2-3.7-16.7-7.2-24.5C1835,0,1842,0,1849,0z"/>
	<path class="st53" d="M2012,0c-3.9,6.7-5,14.2-6.6,21.6c-0.8,3.7-2.5,7.1-3.3,10.8c-1.8,8.8-5.1,17.3-6.7,26.2
		c-0.2,1.3-0.9,3.2-3.4,4.4c0.8-21.4-1-42.2-0.9-63.1C1998,0,2005,0,2012,0z"/>
	<path class="st79" d="M503,100c5.9-9.7,13.7-17.9,19.9-27.4c1-1.6,3.3-3,0.1-4.6c3.6-2.7,5.7-1.5,6.7,2.6c0.4,1.6,1,3.2,2.3,4.4
		c1.5,8.7,5.5,16.6,8,25C527.7,100,515.3,100,503,100z"/>
	<path class="st79" d="M3317,68c-3.2,1.6-1,3.1,0.1,4.6c6.6,9.1,13.3,18.2,19.9,27.4c-12.3,0-24.7,0-37,0c2.5-8.4,6.5-16.3,8-25
		c1.3-1.2,1.9-2.8,2.3-4.4C3311.3,66.5,3313.4,65.3,3317,68z"/>
	<path class="st52" d="M1176,100c6.7-4,13.3-8,20-12c6.4-4.1,13.9-6.4,19.2-12.3c1.6-1.8,4.8-1.1,7.2-1.5c4.9-0.8,9.9-1.3,14.8-2
		c2-0.3,3.6,0,4.8,1.8c2.3,0,4.7,0,7,0c-9,2.5-18.3,2.5-27.4,4c-1.6,0.3-3.7-0.3-4.3,1.6c-0.5,1.6,1.4,2.4,2.4,3.5
		c5,5.5,10.5,10.5,14.4,16.9c-11.7,0-23.3,0-35,0c-5.3-1.5-10.7-4.1-16,0C1180.7,100,1178.3,100,1176,100z"/>
	<path class="st52" d="M2644,88c6.7,4,13.3,8,20,12c-2.3,0-4.7,0-7,0c-5.3-4.1-10.7-1.5-16,0c-11.7,0-23.3,0-35,0
		c4.1-6.5,9.5-11.8,14.7-17.2c1.2-1.3,3.7-2.4,1.3-4.8c2.3-0.2,3.9,1.6,6,2C2633.9,81.5,2638.6,85.5,2644,88z"/>
	<path class="st21" d="M263,0c2.7,13.7,2.5,27.6,4.2,41.4c0.2,1.4-0.2,2.6-1.2,3.6c-8.7-15-17.3-30-26-45C247.7,0,255.3,0,263,0z"/>
	<path class="st21" d="M3574,45c-2.6-4.9-0.7-10-0.2-14.8c0.6-5.5,0.9-11.1,1.4-16.6c0.5-4.6,1.2-9.1,1.8-13.6c7.7,0,15.3,0,23,0
		C3591.3,15,3582.7,30,3574,45z"/>
	<path class="st80" d="M1168,0c2.2,7.7,8.9,12.3,13.1,18.6c3.8,5.6,9.3,10,11.9,16.4c-2.6,1.2-3.9-0.5-5.3-2.3
		c-4.3-5.3-8.8-10.3-12.5-16.1c-1.3-2-3.4-3.1-5.1-4.7c-2.2-1.5-4.7-1.6-7.2-1.6c-15.8-0.1-31.6,0.3-47.4-1.1
		c-3.4-0.3-7.1,0.3-9.7-2.8c-1.2-2.1-3.2-4-0.8-6.6C1126,0,1147,0,1168,0z"/>
	<path class="st80" d="M2650,30c6.1-7.7,12.3-15.3,18.4-22.9c1.7-2.1,3-4.4,3.6-7.1c21,0,42,0,63,0c2.4,2.5,0.4,4.5-0.8,6.5
		c-2.4,3.1-5.9,2.6-9.1,2.8c-15.7,1.1-31.4,1.2-47.1,1.1c-2.8,0-5.7-0.1-8.1,1.7c-5.9,4.2-9,10.9-13.8,16.1c-1.7,1.8-3,4.1-6.1,3.1
		C2649.6,30.9,2649.6,30.4,2650,30z"/>
	<path class="st81" d="M1999,94c0,0.3,0,0.7,0,1c-2.3,3.8-6.9,2.8-10,5c-9,0-18,0-27,0c8.8-9,17.6-18,26.5-26.9
		c2.5-2.6,4-1.6,4.5,1.7c0.7,4.4,1.3,8.9,2.1,13.2C1995.6,90.4,1995.2,93.6,1999,94z"/>
	<path class="st81" d="M1841,95c0-0.3,0-0.7,0-1c3.8-0.4,3.4-3.6,3.8-6.1c0.9-4.4,1.4-8.8,2.1-13.2c0.5-3.3,2-4.2,4.5-1.7
		c8.9,9,17.7,18,26.5,26.9c-9,0-18,0-27,0C1847.9,97.8,1843.3,98.8,1841,95z"/>
	<path class="st82" d="M3214,67c-3,1.4-1.7,3.6-0.7,5.4c4.6,8.9,8,18.3,11.7,27.6c-9,0-18,0-27,0c4.3-11.7,8.7-23.3,13-35
		C3212.3,65.2,3213.3,65.9,3214,67z"/>
	<path class="st82" d="M615,100c3.8-9.3,7.1-18.7,11.8-27.6c1-1.8,2.3-4-0.8-5.4c0.7-1.1,1.7-1.8,3-2c4.3,11.7,8.7,23.3,13,35
		C633,100,624,100,615,100z"/>
	<path class="st83" d="M3429,14c1-4.7,2-9.3,3-14c11.3,0,22.7,0,34,0c-4.1,5.8-11.1,7.7-16.6,11.6c-5.8,4.1-12.1,7.4-18.3,11
		c-1.1,0.6-2.2,2.2-3.5,1c-1.2-1,0-2.5,0.2-3.7C3428.3,17.9,3428.6,15.9,3429,14z"/>
	<path class="st83" d="M408,0c1,4.7,2,9.3,3,14c0.4,2,0.7,3.9,1.1,5.8c0.2,1.3,1.4,2.7,0.2,3.7c-1.3,1.2-2.4-0.4-3.5-1
		c-8.4-5-16.7-10.1-25-15.2c-3.5-2.1-7.6-3.5-9.9-7.4C385.3,0,396.7,0,408,0z"/>
	<path class="st84" d="M2952,80c-0.4,4.3-1.2,8.6-1.2,12.9c0,2.6-1.5,4.7-1.8,7.1c-8.7,0-17.3,0-26,0c7.6-7.4,17.1-12.4,25.2-19.3
		c0.7-0.6,1.9-0.5,2.8-0.8C2951.3,79.6,2951.7,79.6,2952,80z"/>
	<path class="st84" d="M891,100c-2.6-6.4-1.7-13.4-3-20c0.3-0.4,0.7-0.3,1,0c1,0.2,2.1,0.2,2.8,0.8c8.1,6.8,17.6,11.8,25.2,19.3
		C908.3,100,899.7,100,891,100z"/>
	<path class="st85" d="M2239,19c-0.2-6.4,3-12.5,2-19c7.7,0,15.3,0,23,0c-1.3,3.4-3.6,5.7-6.5,7.9c-5.1,3.9-9.8,8.4-14.6,12.7
		C2240.2,23.1,2239,22.8,2239,19z"/>
	<path class="st85" d="M1599,0c-1.5,4.2,1.4,8,1.2,12.2c-0.1,2.3,0.5,4.6,0.8,6.8c-0.3,1.6,0.1,4.8-2.7,2.5
		c-7.2-6-14.1-12.5-21-18.9c-0.7-0.6-0.9-1.7-1.3-2.6C1583.7,0,1591.3,0,1599,0z"/>
	<path class="st86" d="M2645,36c-0.7,0.7-1.3,1.3-2,2c0-1.4,0-2.8-1-4c-7.7-11.3-15.3-22.7-23-34c1.7,0,3.3,0,5,0
		c5.6,8.6,10.2,17.9,17.2,25.5c2.7,2.9,2.8,6.3,3.8,9.5c0.2,0.2,0.3,0.4,0.2,0.7C2645.1,35.9,2645.1,36,2645,36z"/>
	<path class="st86" d="M1197,38c-0.7-0.7-1.3-1.3-2-2c0.8-10,9.4-15.7,13.5-23.8c2.1-4.2,5-8.1,7.5-12.2c1.7,0,3.3,0,5,0
		c-7.7,11.3-15.3,22.7-23,34C1197,35.2,1197,36.6,1197,38z"/>
	<path class="st87" d="M700,8c-6.3,0.2-9.9-4.3-14-8c6,0,12,0,18,0C707.7,5.2,702.2,5.8,700,8z"/>
	<path class="st87" d="M3154,0c-4.1,3.7-7.7,8.2-14,8c-2.2-2.2-7.7-2.8-4-8C3142,0,3148,0,3154,0z"/>
	<path class="st11" d="M3136,0c-0.1,3.4,2.3,5.5,4,8c-0.7,0-1.3,0-2,0c-6.4-2-12.7-4.1-19.1-6c-1.4-0.4-2.8-0.9-3.9-2
		C3122,0,3129,0,3136,0z"/>
	<path class="st11" d="M700,8c1.7-2.5,4.1-4.6,4-8c7,0,14,0,21,0c-6.4,2.9-13,5-19.8,6.9c-1.1,0.3-2.1,0.7-3.2,1.1
		C701.3,8,700.7,8,700,8z"/>
	<path class="st88" d="M806,95c3.3,1.1,6.7,2.1,9,5c-7.7,0-15.3,0-23,0C796.1,96.8,801.1,96.1,806,95z"/>
	<path class="st88" d="M3025,100c2.3-2.8,5.7-3.9,9-5c4.9,1.1,9.9,1.8,14,5C3040.3,100,3032.7,100,3025,100z"/>
	<path class="st89" d="M1841,95c4.4-0.5,7.3,2.1,10,5c-6.3,0-12.7,0-19,0C1834.2,96.8,1838.1,96.9,1841,95z"/>
	<path class="st89" d="M1989,100c2.7-2.9,5.6-5.5,10-5c2.9,1.9,6.8,1.8,9,5C2001.7,100,1995.3,100,1989,100z"/>
	<path class="st90" d="M0,90c4.5,1.9,6.5,6.2,9,10c-3,0-8.1,1-8.6-0.2C-0.9,97.1,0,93.3,0,90z"/>
	<path class="st90" d="M3831,100c2.5-3.8,4.5-8.1,9-10c0,0.3,0,0.7,0,1c0,3,1.2,7.2-0.3,8.7C3838.2,101.2,3834,100,3831,100z"/>
	<path class="st91" d="M3027,0c-3.7,2.3-7.9,3.1-12.1,3.8c-3.1,0.5-6,0-6.9-3.8C3014.3,0,3020.7,0,3027,0z"/>
	<path class="st91" d="M832,0c-0.9,3.8-3.7,4.4-6.9,3.8c-4.2-0.7-8.4-1.6-12.1-3.8C819.3,0,825.7,0,832,0z"/>
	<path class="st92" d="M1183,100c3.2-5.4,4.8-6.1,10.1-3.4c2,1,4.5,1.2,5.9,3.4C1193.7,100,1188.3,100,1183,100z"/>
	<path class="st92" d="M2641,100c2.4-2.8,5.9-3.8,9.1-4.8c3.4-1.1,5.6,1.7,6.9,4.8C2651.7,100,2646.3,100,2641,100z"/>
	<path class="st93" d="M2670,0c-1.3,6.2-1.8,6.4-7.4,3.6c-1.8-0.9-3.7-1.6-4.6-3.6C2662,0,2666,0,2670,0z"/>
	<path class="st93" d="M1182,0c-1.6,2.9-4.7,3.9-7.3,4.9c-4.4,1.6-4.1-2.3-4.7-4.9C1174,0,1178,0,1182,0z"/>
	<path class="st12" d="M1511,35c1.5-9.5,3-19,4.4-28.6c0.3-2.1,0.4-4.3,0.6-6.4c0.7,0,1.3,0,2,0c-2.9,12.2-3.6,24.9-7,37
		C1511,36.3,1511,35.7,1511,35z"/>
	<path class="st12" d="M2324,0c0.6,10,2.9,19.7,4.4,29.6c0.3,1.8,0.4,3.6,0.6,5.4c0,0.7,0,1.3,0,2c-2.5-8.6-3.3-17.5-4.9-26.3
		c-0.7-3.6-1.4-7.1-2.1-10.7C2322.7,0,2323.3,0,2324,0z"/>
	<path class="st16" d="M3716,0c0,12,0,24,0,36c-1.4-2.1-1-4.5-1-6.7c0-9.8,0-19.5,0-29.3C3715.3,0,3715.7,0,3716,0z"/>
	<path class="st94" d="M1105,0c0.3,2,0.7,4,1,6c0.6,0.6,0.7,1.2,0.3,2c-0.4,0.3-0.8,0.3-1.3,0c-0.7-4.6-6.2-4.4-8-8
		C1099.7,0,1102.3,0,1105,0z"/>
	<path class="st94" d="M2734,6c0.3-2,0.7-4,1-6c2.7,0,5.3,0,8,0c-1.8,3.6-7.3,3.4-8,8c-0.4,0.3-0.9,0.3-1.3,0
		C2733.3,7.2,2733.4,6.6,2734,6z"/>
	<path class="st95" d="M3745,98c2.2,0.1,4.5-0.3,6,2c-2.7,0-5.3,0-8,0C3743.7,99.3,3744.3,98.7,3745,98z"/>
	<path class="st95" d="M89,100c1.5-2.3,3.8-2,6-2c0.7,0.7,1.3,1.3,2,2C94.3,100,91.7,100,89,100z"/>
	<path class="st96" d="M2734,6c0,0.7,0,1.3,0,2c0.1,1.4-0.1,2.7-1.1,3.7c-4.7,4.7-9.1,9.6-13.5,14.6c-8.2,9.3-17,18.1-25.4,27.2
		c-8.6,9.4-17.3,18.7-26.2,27.8c-2.5,1.9-5.1,3.6-7.1,6c-0.3,0.3-0.6,0.6-0.9,0.9c-0.8,0.8-1.5,1.5-0.7,2.7c-1.1,1.2-2.5,1.8-4,2
		c-0.3-0.3-0.7-0.7-1-1c-1.6-5.2-1-10.6-0.1-15.7c3.2-18.7,6-37.4,9.7-56c0.7-3.3,2.6-6.1,3.4-9.3c1.5-2.8,4.1-3,6.9-3
		c8,0,16,0.1,23.9,0c10.6-0.2,21.2-0.6,31.8-1C2731.1,6.9,2732.6,6.3,2734,6z"/>
	<path class="st97" d="M2666,80c8.3-8.8,16.9-17.2,24.6-26.4c7-8.4,15.1-15.8,22.3-24C2719.5,22,2725.7,14,2734,8c0.3,0,0.7,0,1,0
		c8.3,5.5,15.1,12.8,22.6,19.2c1.9,1.6,3.3,3.9,6.3,2.8c0.3,1.7,0.7,3.3,1,5c-0.3,0-0.7,0-1,0c-1.2-1.9-2.5-1.5-4.2-0.6
		c-13.9,7.8-27.8,15.5-41.8,23.2c-11.9,6.5-23.9,12.8-35.7,19.6c-7,4.1-14.2,8-21.3,11.8c-2.2,0.8-2.8,0.1-2-2v0
		C2661.7,85,2664,82.7,2666,80z"/>
	<path class="st98" d="M2659,87c0.3,1.1,0.9,1.7,2,2c-0.7,0.7-1.3,1.3-2,2C2653.8,89.7,2657.9,88.3,2659,87z"/>
	<path class="st96" d="M1106,8c0-0.7,0-1.3,0-2c1.7,0.8,3.5,0.9,5.3,1c18.1,0.8,36.2,1.2,54.3,1c2.9,0,5.7,0,7.4,3
		c4.5,10.3,5.6,21.4,7.4,32.4c1.7,10.3,3.7,20.6,5.3,31c0.9,5.9,1.8,11.8,0.2,17.7c-0.3,0.3-0.7,0.7-1,1c-1.5-0.3-2.9-0.9-4-2
		c0.9-1.2,0.2-1.9-0.7-2.7c-0.3-0.3-0.6-0.6-0.9-0.9c-2.1-2.3-4.6-4.2-7.1-6c-8.2-8.7-16.8-17-24.5-26.1
		c-6.9-8.1-14.9-15.1-21.7-23.3c-5.5-6.6-11.5-12.8-17.5-18.9C1107.1,11.6,1105.7,10.3,1106,8z"/>
	<path class="st97" d="M1106,8c3.4,2.1,6,5.2,8.7,8.1c11.1,12.2,22.3,24.4,33.5,36.5c8.5,9.2,17.2,18.3,25.8,27.4c2,2.7,4.3,5,7,7v0
		c0.8,2.1,0.2,2.8-2,2c-15.6-8.7-31.1-17.8-47-26.1c-17.1-8.9-33.8-18.7-50.8-27.8c-1.6-0.9-3.4-2.7-5.2-0.1c-0.3,0-0.7,0-1,0
		c0.3-1.7,0.7-3.3,1-5c2.8,1,4.3-0.9,6-2.5c6.3-5.6,12.5-11.3,18.9-16.8c1.2-1.1,2.7-1.8,4.1-2.7C1105.3,8,1105.7,8,1106,8z"/>
	<path class="st98" d="M1179,89c1.1-0.3,1.7-0.9,2-2c1.1,1.3,5.2,2.7,0,4C1180.3,90.3,1179.7,89.7,1179,89z"/>
	<path class="st86" d="M2644,88c-5.8-1.8-10.8-5.1-16-8c-2.1-3.5-5.8-3.5-9.2-4c-21.9-2.8-43.9-5.5-65.8-8.3c-0.3,0-0.5-0.4-1.6-1.2
		c31-9.4,61-20.1,91.7-28.6c-0.3,4.9-3.1,9-4.8,13.4c-2.6,6.6-6,12.9-9,19.4c-2.7,5.8-2.1,6.9,3.6,10.2
		C2636.6,83.1,2640.9,84.7,2644,88z"/>
	<path class="st86" d="M1242,74c-8.2,1-16.3,2-24.5,3.1c-3.4,0.4-5.7,3.2-8.6,4.7c-4.2,2.2-8.3,4.8-12.9,6.2
		c3.1-3.4,7.4-4.9,11.3-7.1c5.8-3.4,6.2-4.5,3.4-10.6c-4.4-9.4-8.7-18.9-13-28.4c-0.5-1.2-0.4-2.6-0.6-3.9
		c30.7,8.4,60.6,19.2,91.1,28.3c0,0.4-0.1,0.8-0.1,1.3c-6.3,0.8-12.6,1.5-18.9,2.5C1260,71.4,1250.9,71.8,1242,74z"/>
	<path class="st74" d="M3426,28c6.2,0,12,2.3,18,3.6c21.5,4.8,43,10,64.5,15.1c2.7,0.6,5.7,0.7,7.5,3.3c-0.4,0.8-0.9,1.5-2,1
		c-1-2.5-3.3-2.5-5.4-3c-21.8-5.1-43.6-10.3-65.4-15.4C3437.4,31.3,3431.5,30.5,3426,28z"/>
	<path class="st42" d="M3514,51c0.7-0.3,1.3-0.7,2-1c0.3,0,0.7,0,1,0c0,0.3,0,0.7,0,1c-2.3,1-4.7,2-7,3
		C3510.9,52.4,3512.5,51.8,3514,51z"/>
	<path class="st74" d="M324,50c1.2-1.9,3.2-2.3,5.1-2.8c26.8-6.3,53.6-12.6,80.4-18.8c1.4-0.3,3-0.3,4.4-0.4
		c-9.7,4-20.2,5.4-30.3,7.9c-18,4.4-36.2,8.4-54.3,12.6c-1.5,0.3-2.9,0.9-3.4,2.6C324.9,51.5,324.4,50.8,324,50z"/>
	<path class="st42" d="M324,50c0.7,0.3,1.3,0.7,2,1c1.5,0.8,3.1,1.4,4,3c-2.3-1-4.7-2-7-3c0-0.3,0-0.7,0-1C323.3,50,323.7,50,324,50
		z"/>
	<path class="st99" d="M700,10c4.1,1.1,5.7,5,8.1,7.8c14.1,16.1,28,32.5,41.9,48.7c1.5,1.8,2.2,3.2-1,3.5c0,0,0,0,0,0
		c-1.6-0.9-3.4-1.1-5-2c-7.8-2.8-15.6-5.4-23.3-8.3c-10.2-3.8-20.4-7.9-30.7-11.5c-2.3-0.8-4-1.5-4-4.2
		C690.7,32.7,695.3,21.3,700,10z"/>
	<path class="st99" d="M3091,70c-3.3-0.3-2.5-1.7-1-3.5c8-9.3,16-18.7,24-28c7.4-8.6,14.8-17.1,22.1-25.7c1.1-1.3,2.2-2.5,3.9-2.8
		c4.7,11.3,9.3,22.7,14,34c-0.1,2.3-1.3,3.3-3.5,4.1c-10.6,3.8-20.9,8.3-31.6,11.7c-7.7,2.5-14.9,6.4-22.9,8.2
		C3094.4,68.9,3092.6,69.1,3091,70L3091,70z"/>
	<path class="st19" d="M1522,57c-1.6-0.9-2.7-2.1-3-4C1520.6,53.9,1521.7,55.1,1522,57z"/>
	<path class="st19" d="M2321,53c-0.3,1.9-1.4,3.1-3,4C2318.3,55.1,2319.4,53.9,2321,53z"/>
	<path class="st100" d="M763,76c-2.3-1.3-4.7-2.7-7-4c1.6-5.3,6.7-8,10.4-11c7.6-6.1,14.3-13.4,22.2-19.1
		c7.9-5.7,14.2-13.3,21.8-19.3c5-3.9,9.3-8.8,14.2-12.9c1.9-1.6,3.7-3.3,6.3-3.8c0,0,0,0,0,0c-2,12.5-6.5,24.4-9.7,36.5
		c-3.9,14.8-8.1,29.5-12.4,44.2c-0.7,2.3-1.4,4.5-3.6,5.8c-2.3,0.4-4.2-0.7-6.3-1.5c-10.3-3.2-19.7-8.3-29.7-12.3
		C767.2,77.8,765.1,76.9,763,76z"/>
	<path class="st100" d="M3004,6c-8.3-0.4-16.7,1.2-25,0c4.6-2.2,9.5-0.1,14.2-0.9c3.9-0.7,8,0.2,11.9-0.8c1.7-0.4,3.4,0.2,4.7,1.3
		c5.2,4.2,10.9,7.9,15.5,13c2.8,3.1,6.1,5.6,9.2,8.4c11.7,10.4,23.3,21,35.3,31c3.5,2.9,6.6,6.4,10.5,9c1.8,1.2,3.4,2.7,3.8,5.1
		c-2.3,1.3-4.7,2.7-7,4c-12.1,4.7-23.6,11-36,15c-2,0.8-3.9,1.9-6.2,1.6c-2.4-1.4-3.1-3.8-3.8-6.2c-5.2-18.4-10.5-36.7-15.5-55.2
		c-1.8-6.9-4.7-13.5-5.6-20.6C3009.5,6.9,3006.8,6.5,3004,6z"/>
	<path class="st101" d="M3724,35c14.4-2.4,28.6-5.8,42.9-9.1c2.5-0.6,5.4-2.3,6.2,2.1c0,5.7-3.2,10.6-4.8,15.8
		c-3.3,10.5-7.1,20.9-11.2,31.2c-3.1,5.6-4.3,11.8-6.9,17.6c-0.5,1-0.4,2.5-1.9,2.6c-1.5,0.1-1.8-1.4-2.3-2.3
		c-8-14.6-15.9-29.1-23.9-43.7c-1.7-3-3.4-6.1-5.1-9.1c-0.1-1.7,0.9-2.9,2-4c0,0,0,0,0,0C3720.5,34.8,3722.5,36.2,3724,35z"/>
	<path class="st21" d="M116,36c1.7,0,3.3,0,5,0c1.1,1.1,2.1,2.3,2,4c-8,14.5-16,29-23.9,43.6c-1.8,3.2-3.5,6.4-5.2,9.7
		C93,94.9,92,96,90,95c-0.8-1.8-1.7-3.6-1.6-5.7c6.8-4.3,8.2-12.1,12.1-18.3c3-4.7,5.7-9.5,8.3-14.5c2.2-4.2,4-8.6,7.4-12.1
		C118.7,41.7,115.3,38.8,116,36z"/>
	<path class="st102" d="M2940,76c-5.5-0.7-10.9-1.9-16-4c-1.5-1.2-3.5,0.2-5-1c-1-0.3-2-0.7-3-1c-1.5-1.2-3.5,0.2-5-1v0
		c-2.6-1.1-5.4-1.2-8-2c-2.8-0.1-5.5-0.6-8-2c-1.5-1.2-4,0.4-5-2c0,0,0,0,0,0c16.7-18.6,34.1-36.6,52-54c3.5,0.4,3.7,3.5,4.4,5.9
		c1.8,6.9,2.1,14.1,2.8,21.1c1.2,11.5,2.7,23,3.7,34.5c0.3,3.1,1.2,7-3.9,7.5c-1.4,0-2.8,0-4-1C2943.5,75.8,2941.5,77.2,2940,76z"/>
	<path class="st103" d="M2949,78c2.2-1.5,2-3.6,1.8-5.8c-2-17.3-3.7-34.7-5.9-51.9c-0.5-3.8,0.4-8.1-2.9-11.3c0-0.3,0-0.7,0-1
		c2.3,0.4,3.6,2.3,5.2,3.7c14.2,13,27.3,27.1,40.4,41.3c1.3,1.5,3,2.7,4.4,4c0.5,0.6,0.8,1.3,0.8,2.1c-0.2,2.3-1.8,3.5-3.6,4.3
		c-9.8,4.4-19.5,8.8-29.1,13.7c-2.9,1.5-6.3,0.3-9.1,1.9C2950.3,78.7,2949.7,78.3,2949,78z"/>
	<path class="st102" d="M924,70c-1,0.3-2,0.7-3,1c-1.5,1.2-3.5-0.2-5,1c-5.3,1.3-10.7,2.7-16,4c-1.5,1.2-3.5-0.2-5,1
		c-1.3,0.3-2.7,0.7-4,1c-4.4-0.3-4.2-3.6-4-6.5c0.8-8.7,1.9-17.4,2.8-26.2c0.9-8.7,1.6-17.5,3-26.1c0.6-3.8,0.2-8.5,5.2-10.2
		c9.7,8.1,17.6,18,26.4,26.9c8.7,8.8,17.8,17.3,25.6,27.1c0,0,0,0,0,0c-1,2.4-3.5,0.8-5,2c-2.7,0.7-5.3,1.3-8,2
		c-2.6,0.8-5.4,0.9-8,2l0,0C927.5,70.2,925.5,68.8,924,70z"/>
	<path class="st103" d="M898,9c-3.1,2.2-2.2,5.9-2.5,8.8c-2.3,18.4-4.3,36.9-6.3,55.4c-0.2,1.9,0.1,3.7,1.9,4.8
		c-0.7,0.3-1.3,0.6-2,1c-11.4-1.2-20.5-8.1-30.8-12.2c-2.3-0.9-4.5-2.1-6.9-2.8c-2.3-0.7-4.2-2-4.3-4.8c0.2-0.8,0.5-1.5,1-2.1
		c7.8-6.1,13.6-14.1,20.4-21.2c8.7-9.2,18-17.7,27-26.5c0.7-0.7,1.8-0.9,2.6-1.3C898,8.3,898,8.7,898,9z"/>
	<path class="st58" d="M2951,79c7.6-3.7,15.1-7.4,22.7-11.1c6.1-3,12.2-6,18.3-8.9c2.5-1.5,4.6-1,6.7,1c11.3,10.6,23.7,20,34.6,31.1
		c0.4,0.5,1.2,0.6,1.7,1c2-0.3,4-0.7,6-1c-2,1.9-4.5,2.3-7,3c-10.6-0.7-20.9-3.5-31.3-5.4c-15-2.7-29.9-5.8-44.9-8.7
		c-2-0.4-3.9-1-5.8,0.1c-0.3,0-0.7,0-1,0C2951,79.6,2951,79.3,2951,79z"/>
	<path class="st25" d="M3091,70c1.4-1.4,3.1-2,5-2C3094.6,69.4,3092.9,70,3091,70z"/>
	<path class="st58" d="M848,59c5.6,4.2,12.4,5.8,18.5,8.9c7.4,3.9,15,7.4,22.5,11c0,0.3,0,0.7,0,1c-0.3,0-0.7,0-1,0
		c-1.9-1.1-3.8-0.5-5.8-0.1c-23.1,4.5-46.2,8.9-69.3,13.4c-2.3,0.4-4.6,0.5-6.9,0.8c-2.5-0.7-5-1.1-7-3c2,0.3,4,0.7,6,1
		c5.6-4.6,10.9-9.5,16.3-14.3c6.7-5.9,13.6-11.5,20-17.8C843.4,58,845.5,57.5,848,59z"/>
	<path class="st25" d="M744,68c1.9,0,3.6,0.6,5,2C747.1,70,745.4,69.4,744,68z"/>
	<path class="st0" d="M3757,75c1.3-4.3,2.5-8.6,3.9-12.8c4-11.4,8-22.8,12.1-34.2c0.3,0,0.7,0,1,0c-2.2,10.2-6.5,19.7-9.9,29.5
		c-2.2,6.2-3.6,12.7-7.1,18.5C3757,75.7,3757,75.3,3757,75z"/>
	<path class="st0" d="M89,89c0.3,2,0.7,4,1,6c0,0.3,0,0.7,0,1c-3.7-7.8-6.2-16.1-9-24.2C75.9,57.2,69.9,43,66,28c0.3,0,0.7,0,1,0
		c2.7,0.3,3.5,2.4,4.1,4.4c5.7,17.4,12.3,34.5,18.1,51.8C89.8,85.9,89.8,87.4,89,89z"/>
	<path class="st33" d="M1069,41c0.4-2.4,2.1-3.8,4-5C1072.6,38.4,1070.9,39.8,1069,41z"/>
	<path class="st29" d="M2422,63c-3.1,3-7.2,3.1-11,4C2413.3,62,2418.6,65,2422,63z"/>
	<path class="st104" d="M848,59c-6.1,1.3-9.1,6.8-13.6,10.3c-8.7,6.9-16.8,14.5-25.1,21.8c-1.3,1.1-2.6,2.2-4.3,0.9
		c7-24.8,14-49.5,20.9-74.3c1.2-4.1,1.7-8.5,5.1-11.7c1,0,2,0,4.2,0c-3.2,1.8-3.5,3.7-2.6,6c4.5,12.9,8.4,26.1,12,39.3
		c0.5,1.9-0.1,5.3,3.5,5.7C848,57.7,848,58.3,848,59z"/>
	<path class="st104" d="M3035,92c-1.5,0.8-2.8,0.6-4.1-0.6c-10.9-9.6-21.8-19.1-32.7-28.8c-1.8-1.6-3.3-3.8-6.2-3.7c0-0.7,0-1.3,0-2
		c3.4-1,3.1-4.3,3.8-6.6c3.5-12.8,7.1-25.5,11.6-38c1.3-3.7-0.5-5.2-3.3-6.4c5-0.4,7.6,2.2,8.9,6.8c6.6,23.8,13.3,47.7,20,71.5
		C3033.6,86.9,3034.3,89.4,3035,92z"/>
	<path class="st22" d="M2890,63c1.7,0.7,3.3,1.3,5,2c-1.7,0-3.3,0-5,0C2890,64.3,2890,63.7,2890,63z"/>
	<path class="st22" d="M945,65c1.7-0.7,3.3-1.3,5-2c0,0.7,0,1.3,0,2C948.3,65,946.7,65,945,65z"/>
	<path class="st101" d="M89,89c-6.3-15.1-11.5-30.5-16.7-45.9C70.5,38,68.7,33,67,28c0.2-2.3,1.5-3.3,3.7-2.8
		c14.8,3.4,29.6,6.8,44.4,10.2c0.3,0.1,0.6,0.3,0.8,0.5c4.4,2.5,5.7,5.4,2.3,9.5c-3.4,4.1-6.1,8.8-7.8,13.4
		c-2.2,6-6.8,10.3-9.1,16.2c-1.4,3.7-3.5,7.4-5.3,11C94.7,89,92.2,90.3,89,89z"/>
	<path class="st16" d="M3724,35c-1.5,1.2-3.3,1-5,1C3720.5,34.8,3722.3,35,3724,35z"/>
	<path class="st103" d="M929,69c2.4-1.8,5.1-2.1,8-2C934.5,68.4,931.8,68.9,929,69z"/>
	<path class="st103" d="M916,72c1.5-1.2,3.3-1,5-1C919.5,72.2,917.7,72,916,72z"/>
	<path class="st103" d="M895,77c1.5-1.2,3.3-1,5-1C898.5,77.2,896.7,77,895,77z"/>
	<path class="st103" d="M924,70c1.5-1.2,3.3-1,5-1C927.5,70.2,925.7,70,924,70z"/>
	<path class="st103" d="M2903,67c2.8-0.1,5.6,0.2,8,2C2908.2,68.9,2905.5,68.4,2903,67z"/>
	<path class="st103" d="M2919,71c1.7,0,3.5-0.2,5,1C2922.3,72,2920.5,72.2,2919,71z"/>
	<path class="st103" d="M2940,76c1.7,0,3.5-0.2,5,1C2943.3,77,2941.5,77.2,2940,76z"/>
	<path class="st103" d="M2911,69c1.7,0,3.5-0.2,5,1C2914.3,70,2912.5,70.2,2911,69z"/>
	<path class="st105" d="M1186,92c-1.8-11.6-3.5-23.2-5.5-34.7c-2-12.1-4.3-24.1-6.5-36.1c-0.6-3.4-1.9-6.7-1-10.2
		c7,7.7,12.6,16.6,20,24c0.7,0.3,1.3,0.7,2,1c-0.5,15.6-4.4,30.7-6.6,46C1188,85.4,1188.4,89.1,1186,92z"/>
	<path class="st105" d="M2667,11c1,7.8-2.6,14.9-3.4,22.4c-1.3,13.2-4.9,26-6.3,39.1c-0.7,6.5-3.2,12.8-3.3,19.5
		c-3.2-6.9-3.1-14.4-4.3-21.7c-1.8-11.4-4.8-22.6-4.7-34.3c0-0.3,0-0.7,0-1c0.7-0.3,1.3-0.7,2-1c0.9-1.1,1.6-2.4,3-3
		C2656.6,25.1,2661,17.4,2667,11z"/>
	<path class="st77" d="M2650,31c-1,1-2,2-3,3c0.3-1.9,1.4-3.1,3-4C2650,30.3,2650,30.7,2650,31z"/>
	<path class="st98" d="M2666,80c-1.2,3.5-3.6,5.8-7,7C2660.9,84.3,2663.3,82,2666,80z"/>
	<path class="st98" d="M1181,87c-3.4-1.2-5.8-3.5-7-7C1176.7,82,1179.1,84.3,1181,87z"/>
</g>
</svg>
