<svg viewBox="0 0 32 32" width="200" height="200" xmlns="http://www.w3.org/2000/svg"><defs><linearGradient gradientTransform="matrix(1.03226 0 0 1.03226 -.52 -.52)" gradientUnits="userSpaceOnUse" y2=".5" x2="31.5" y1="31.5" x1=".5" id="a"><stop offset="0%" stop-color="#7f41ef"/><stop offset="100%" stop-color="#4f29d0"/></linearGradient></defs><circle cx="16" cy="16" r="15" fill="#fff"/><path d="M16 0A16 16 0 0 0 0 16a16 16 0 0 0 16 16 16 16 0 0 0 16-16A16 16 0 0 0 16 0zm-1.82 3.15l3.91 2.48.66 4.14-1.35.9-1.09 9.54-2.45 1.1-1.64-2.06L11.1 6.68zm8.2 4.92l3 4.13-3.68 13.1-3.87-5.77-.89.4 1.02-8.91 3.33-2.25zm-11.4 10.58l2.47 3.1-.44 5.64-2.38-.41-2.72-7.33zm6.64 1.63l3.55 5.3-4.88 2.37-2.7-.46.44-5.6z" fill="url(#a)"/></svg>