<svg id="Layer_1" xmlns="http://www.w3.org/2000/svg" viewBox="0 0 1005 225.37"><script/><style>.st0,.st1{fill:none}.st1{stroke:#0095e6;stroke-miterlimit:10}.st2{fill:#0095e6}</style><path class="st0" d="M621.59 67.38c-21.2 0-38.38 17.18-38.38 38.38 0 21.2 17.19 38.38 38.38 38.38 21.2 0 38.38-17.18 38.38-38.38.01-21.2-17.18-38.38-38.38-38.38zM327.89 82.4c-7.01-9.22-18.09-15.17-30.57-15.17-17.28 0-31.88 11.41-36.7 27.11a38.466 38.466 0 0 0-1.68 11.27c0 .69.02 1.37.05 2.04l36.33-13.32 32.57-11.93zM748.66 67.23c-21.2 0-38.38 17.18-38.38 38.38 0 21.2 17.18 38.38 38.38 38.38 21.2 0 38.38-17.18 38.38-38.38 0-21.2-17.18-38.38-38.38-38.38z"/><path d="M156.53 0h-62.4C94.09 51.95 51.97 94.06.01 94.07v62.4C86.44 156.46 156.49 86.42 156.53 0zM297.32 143.99c-12.12 0-24.95-5.41-31.73-16.82l89.91-32.83c-.1-.6-.17-1.19-.3-1.77-1.34-6.26-3.47-11.74-7.02-17.62-10.4-17.22-29.29-28.73-50.87-28.73-28.94 0-53.04 20.71-58.31 48.12-.7 3.65-1.08 7.42-1.08 11.27 0 3.23.27 6.4.76 9.49.1.6.2 1.19.32 1.78a58.91 58.91 0 0 0 7.44 19.38c10.4 17.22 29.29 28.73 50.87 28.73 28.94 0 53.04-20.71 58.31-48.12h-21.61c-4.81 15.71-19.41 27.12-36.69 27.12zm-38.38-38.38c0-3.92.59-7.71 1.68-11.27 4.82-15.7 19.42-27.11 36.7-27.11 12.47 0 23.55 5.96 30.57 15.17l-32.57 11.94-36.33 13.32c-.03-.68-.05-1.36-.05-2.05zM0 162.72h156.54v62.66H0zM501.99 46.38c-8.25 0-15.87 1.86-22.63 5.54-6.47 3.51-11.22 7.62-16.2 14.04l-.89 1.48-.89-1.48c-2.79-5.2-8.38-10.1-14.79-13.9-6.35-3.77-13.36-5.68-22.25-5.68-7.14 0-13.71 2.01-19.45 4.79-5.57 2.7-10.1 6.51-14.2 11.53l-1.77 2.37V48.8h-22.48v114.16h22.48V96.12c0-10.44 3.4-16.93 9.17-22.48 4.65-4.47 11.23-7.69 20.11-7.69 8.75 0 15.64 3.77 20.41 8.87 4.67 5 7.99 11.14 7.99 19.82v68.32h22.48V96.42c0-10.08 2.57-15.86 7.99-21.59 5.11-5.4 12.44-8.87 20.7-8.87 8.73 0 17.18 3.97 21.89 9.76 4.43 5.45 7.1 11.15 7.1 20.11v67.14h22.48V95.83c-.01-30.36-22.63-49.45-47.25-49.45zM808.02 48.8h-22.48v10.35c-10.13-8.03-22.96-12.93-36.88-12.93-32.8 0-59.39 26.59-59.39 59.39S715.86 165 748.66 165c14.03 0 26.92-4.88 37.08-13.01v10.97h22.28l.03-57.35-.03-56.81zm-59.36 95.19c-21.2 0-38.38-17.18-38.38-38.38 0-21.2 17.18-38.38 38.38-38.38 21.2 0 38.38 17.18 38.38 38.38 0 21.2-17.18 38.38-38.38 38.38zM621.59 46.37c-13.92 0-26.74 4.75-36.87 12.78V12.13l-22.48 8.28v142.56h22.48v-10.94c10.16 8.14 22.84 13.13 36.87 13.13 32.8 0 59.39-26.59 59.39-59.39 0-32.81-26.59-59.4-59.39-59.4zm0 97.77c-21.2 0-38.38-17.18-38.38-38.38 0-21.2 17.19-38.38 38.38-38.38 21.2 0 38.38 17.18 38.38 38.38.01 21.2-17.18 38.38-38.38 38.38zM859.81 50.57c-5.57 2.7-10.25 6.62-13.91 11.64l-2.1 2.85V48.8h-22.48v114.16h22.48V99.38c0-10.44 3.32-19.17 8.79-25.01 5.18-5.54 12.46-8.47 21.05-8.47 3.17 0 6.12.38 8.84 1.12l7.24-19.69c-3.3-.63-6.8-.95-10.5-.95-7.13 0-13.67 1.41-19.41 4.19zM959.18 97.31l.57-.62 43.77-47.89h-27.21l-53.83 59.45V13.9L900 22.18v140.78h22.48v-25.73l22.48-24.54 34.9 50.27H1005z"/></svg>