<svg xmlns="http://www.w3.org/2000/svg" viewBox="0 0 107.6 107.6"><defs><style>.cls-1{fill:#333}</style></defs><g id="Layer_2" data-name="Layer 2"><g id="Notch_-_White" data-name="Notch - White"><g id="icon"><path class="cls-1" d="M79.9 67.4l-3.1 14h9.6l-3.5-14h-3z"/><path class="cls-1" d="M66.1 0a5.6 5.6 0 0 1 0 .6 12.3 12.3 0 0 1-12.3 12.3A12.3 12.3 0 0 1 41.5.6a5.6 5.6 0 0 1 0-.6H0v107.6h107.6V0zM51.4 96.1l-5.3-26H46l-5.6 26h-7.2L25 58h7.1L37 84l6-26h6.6L55 84.3h.1L60.5 58h7l-9 38.1zm39.2 0l-2.4-8.5H75.4l-1.9 8.5h-7.1L75.6 58h11.2L98 96.1z"/></g></g></g></svg>