<?xml version="1.0" encoding="utf-8"?>
<!-- Generator: Adobe Illustrator 19.0.0, SVG Export Plug-In . SVG Version: 6.00 Build 0)  -->
<svg version="1.1" id="Layer_1" xmlns="http://www.w3.org/2000/svg" xmlns:xlink="http://www.w3.org/1999/xlink" x="0px" y="0px"
	 viewBox="0 0 346.6 517.9" style="enable-background:new 0 0 346.6 517.9;" xml:space="preserve">
<style type="text/css">
	.st0{fill:#9C62A8;}
	.st1{fill:url(#XMLID_43_);}
	.st2{fill:#9C62A8;stroke:#412266;stroke-width:12;stroke-linejoin:round;stroke-miterlimit:10;}
	.st3{fill:#50337C;}
	.st4{fill:#35245B;}
	.st5{fill:#634287;}
	.st6{fill:#C89BC7;stroke:#C89BC7;stroke-width:3;stroke-linecap:round;stroke-linejoin:round;stroke-miterlimit:10;}
	.st7{fill:#C89BC7;stroke:#C89BC7;stroke-width:2;stroke-linecap:round;stroke-linejoin:round;stroke-miterlimit:10;}
	.st8{fill:url(#XMLID_45_);}
	.st9{fill:url(#XMLID_46_);}
</style>
<g id="XMLID_1017_">
	<g id="XMLID_10_">
		<polygon id="XMLID_1_" class="st0" points="241.7,258 124.4,332.9 10,253.2 127.6,178.3 		"/>
		
			<linearGradient id="XMLID_43_" gradientUnits="userSpaceOnUse" x1="-6337.7217" y1="-2843.8936" x2="-6162.7705" y2="-2874.7419" gradientTransform="matrix(-0.525 -0.8511 0.8511 -0.525 -722.3459 -6565.0723)">
			<stop  offset="0.2217" style="stop-color:#04001D"/>
			<stop  offset="0.6321" style="stop-color:#381E5B"/>
			<stop  offset="1" style="stop-color:#2B0522"/>
		</linearGradient>
		<path id="XMLID_7_" class="st1" d="M124.4,342.9c-2,0-4-0.6-5.7-1.8L4.3,261.4c-2.7-1.9-4.3-5.1-4.3-8.4c0.1-3.3,1.8-6.4,4.6-8.2
			l117.6-74.9c3.4-2.2,7.8-2.1,11.1,0.2l114.1,79.7c2.7,1.9,4.3,5.1,4.3,8.4c-0.1,3.3-1.8,6.4-4.6,8.2l-117.3,74.9
			C128.1,342.4,126.2,342.9,124.4,342.9z M28,253.6l96.6,67.3l99.1-63.2l-96.4-67.3L28,253.6z"/>
	</g>
	<path id="XMLID_1023_" class="st2" d="M127.6,178.3"/>
	<polygon id="XMLID_1022_" class="st3" points="127.3,190.3 230.9,257.8 133.3,267.8 	"/>
	<polygon id="XMLID_1021_" class="st4" points="124.6,320.9 133.3,267.8 230.9,257.8 	"/>
	<polygon id="XMLID_1020_" class="st5" points="28,253.6 124.6,320.9 133.3,267.8 	"/>
	<path id="XMLID_1019_" class="st6" d="M56,254.6"/>
	<polygon id="XMLID_1018_" class="st7" points="109.3,210 106.7,235.1 58.8,246.6 57.7,241.9 	"/>
</g>
<g id="XMLID_1009_">
	<g id="XMLID_15_">
		<polygon id="XMLID_11_" class="st0" points="261.3,276.3 336.2,393.6 256.4,507.9 181.5,390.3 		"/>
		
			<linearGradient id="XMLID_45_" gradientUnits="userSpaceOnUse" x1="-8026.6733" y1="3777.9656" x2="-7851.7222" y2="3747.1169" gradientTransform="matrix(-0.8511 0.525 -0.525 -0.8511 -4522.4834 7762.7393)">
			<stop  offset="0.2217" style="stop-color:#04001D"/>
			<stop  offset="0.6321" style="stop-color:#381E5B"/>
			<stop  offset="1" style="stop-color:#2B0522"/>
		</linearGradient>
		<path id="XMLID_12_" class="st8" d="M256.4,517.9c-0.1,0-0.1,0-0.2,0c-3.3-0.1-6.4-1.8-8.2-4.6l-74.9-117.6
			c-2.2-3.4-2.1-7.8,0.2-11.1l79.7-114.1c1.9-2.7,5.1-4.3,8.4-4.3c3.3,0.1,6.4,1.8,8.2,4.6l74.9,117.3c2.2,3.4,2.1,7.8-0.2,11.1
			l-79.7,114.4C262.8,516.3,259.7,517.9,256.4,517.9z M193.6,390.6l63.2,99.3l67.3-96.6l-63.2-99.1L193.6,390.6z"/>
	</g>
	<path id="XMLID_1015_" class="st2" d="M181.5,390.3"/>
	<polygon id="XMLID_1014_" class="st3" points="193.6,390.6 261,287 271,384.6 	"/>
	<polygon id="XMLID_1013_" class="st4" points="324.1,393.3 271,384.6 261,287 	"/>
	<polygon id="XMLID_1012_" class="st5" points="256.8,489.9 324.1,393.3 271,384.6 	"/>
	<path id="XMLID_1011_" class="st6" d="M257.9,461.9"/>
	<polygon id="XMLID_1010_" class="st7" points="213.3,408.6 238.3,411.2 249.8,459.1 245.1,460.2 	"/>
</g>
<g id="XMLID_1001_">
	<g id="XMLID_2_">
		<g id="XMLID_55_">
			<polygon id="XMLID_59_" class="st0" points="261.7,241.7 336.6,124.4 256.9,10 182,127.6 			"/>
			
				<linearGradient id="XMLID_46_" gradientUnits="userSpaceOnUse" x1="-6028.1089" y1="537.5307" x2="-5853.1582" y2="506.6821" gradientTransform="matrix(-0.8511 -0.525 -0.525 0.8511 -4522.4834 -3437.6255)">
				<stop  offset="0.2217" style="stop-color:#04001D"/>
				<stop  offset="0.6321" style="stop-color:#381E5B"/>
				<stop  offset="1" style="stop-color:#2B0522"/>
			</linearGradient>
			<path id="XMLID_56_" class="st9" d="M261.7,251.7c-3.3,0-6.3-1.6-8.2-4.3l-79.7-114.1c-2.3-3.3-2.4-7.7-0.2-11.1L248.4,4.6
				c1.8-2.8,4.9-4.6,8.2-4.6c0.1,0,0.1,0,0.2,0c3.3,0,6.3,1.6,8.2,4.3l79.7,114.4c2.3,3.3,2.4,7.7,0.2,11.1l-74.9,117.3
				c-1.8,2.8-4.9,4.5-8.2,4.6C261.9,251.7,261.8,251.7,261.7,251.7z M194,127.3l67.3,96.4l63.2-99.1L257.3,28L194,127.3z"/>
		</g>
	</g>
	<path id="XMLID_1007_" class="st2" d="M182,127.6"/>
	<polygon id="XMLID_1006_" class="st3" points="194,127.3 261.5,230.9 271.5,133.3 	"/>
	<polygon id="XMLID_1005_" class="st4" points="324.6,124.6 271.5,133.3 261.5,230.9 	"/>
	<polygon id="XMLID_1004_" class="st5" points="257.2,28 324.6,124.6 271.5,133.3 	"/>
	<path id="XMLID_1003_" class="st6" d="M258.3,56"/>
	<polygon id="XMLID_1002_" class="st7" points="213.7,109.3 238.8,106.7 250.3,58.8 245.5,57.7 	"/>
</g>
</svg>
