<svg width="1114" height="1114" fill="none" xmlns="http://www.w3.org/2000/svg"><path d="M248.93 95.95a554.5 554.5 0 1 1 616.14 922.1 554.5 554.5 0 0 1-616.14-922.1zm246.04 11.6l-1.8-1.15-1.42 1.62-107.22 122.9-.7.8.1 1.06 38.99 437.6.06.74.47.59 57.1 71.7 1.2 1.52 1.77-.8 85.3-38.29 1.29-.58.16-1.41 37.82-330.96 46.03-30.7 1.33-.88-.25-1.58-22.98-144.13-.18-1.11-.95-.6-136.12-86.34zm286.15 171.92l-1.39-1.91-1.98 1.27-37.95 24.38-.02.02-.03.01-115.92 78.33-.96.65-.13 1.14-35.5 310.18-.5 4.37 4-1.8 29.06-13.06 133.55 199.1 3.02 4.5 1.47-5.22 128.1-456.04.33-1.16-.71-.99-104.44-143.77zM384.19 647.7l-1.08-1.36-1.65.54-106.87 34.82-2.48.8.9 2.45 94.7 255.16.5 1.35 1.42.24 82.85 14.28 2.7.46.22-2.73 15.31-196.34.08-.99-.61-.77-85.99-107.91zm231.28 56.9l-1.18-1.74-1.92.86-124.99 56.03-1.35.61-.12 1.48L470.6 956.8l-.18 2.28 2.25.38 94 16.01.78.14.72-.35 169.9-82.5 2.58-1.26-1.6-2.39-123.58-184.5z" stroke="currentColor" stroke-width="5"/></svg>